<svg width="25" height="20" viewBox="0 0 25 20" fill="none" xmlns="http://www.w3.org/2000/svg">
<rect x="0.3" y="7.3" width="11.4" height="11.4" rx="5.7" fill="white" fill-opacity="0.5" stroke="#8A9FBA" stroke-width="0.6"/>
<rect x="4.3" y="7.3" width="11.4" height="11.4" rx="5.7" fill="#DEE4EC" stroke="#8A9FBA" stroke-width="0.6"/>
<rect x="9.3" y="7.3" width="11.4" height="11.4" rx="5.7" fill="white" stroke="#8A9FBA" stroke-width="0.6"/>
<path d="M20 12C22.2091 12 24 10.2091 24 8C24 5.79086 22.2091 4 20 4C17.7909 4 16 5.79086 16 8C16 10.2091 17.7909 12 20 12Z" fill="#F4F4F4" stroke="#8A9FBA" stroke-width="0.6"/>
<mask id="path-5-inside-1_1740_337" fill="white">
<path d="M19.9269 8.86248C19.6707 8.86248 19.4629 8.65472 19.4629 8.39845V5.6281C19.4629 5.37183 19.6707 5.16406 19.9269 5.16406C20.1832 5.16406 20.391 5.37183 20.391 5.6281V8.39848C20.3909 8.65475 20.1832 8.86248 19.9269 8.86248Z"/>
</mask>
<path d="M19.9269 8.86248C19.6707 8.86248 19.4629 8.65472 19.4629 8.39845V5.6281C19.4629 5.37183 19.6707 5.16406 19.9269 5.16406C20.1832 5.16406 20.391 5.37183 20.391 5.6281V8.39848C20.3909 8.65475 20.1832 8.86248 19.9269 8.86248Z" fill="#F4FBFF"/>
<path d="M20.391 8.39848L21.391 8.3986V8.39848H20.391ZM19.9269 7.86248C20.2229 7.86248 20.4629 8.10243 20.4629 8.39845H18.4629C18.4629 9.207 19.1184 9.86248 19.9269 9.86248V7.86248ZM20.4629 8.39845V5.6281H18.4629V8.39845H20.4629ZM20.4629 5.6281C20.4629 5.92412 20.2229 6.16406 19.9269 6.16406V4.16406C19.1184 4.16406 18.4629 4.81955 18.4629 5.6281H20.4629ZM19.9269 6.16406C19.6309 6.16406 19.391 5.92412 19.391 5.6281H21.391C21.391 4.81955 20.7355 4.16406 19.9269 4.16406V6.16406ZM19.391 5.6281V8.39848H21.391V5.6281H19.391ZM19.391 8.39836C19.391 8.10246 19.6309 7.86248 19.9269 7.86248V9.86248C20.7355 9.86248 21.3909 9.20703 21.391 8.3986L19.391 8.39836Z" fill="#8A9FBA" mask="url(#path-5-inside-1_1740_337)"/>
<mask id="path-7-inside-2_1740_337" fill="white">
<path d="M19.9269 10.6553C19.6707 10.6553 19.4629 10.4475 19.4629 10.1912V9.89567C19.4629 9.63941 19.6707 9.43164 19.9269 9.43164C20.1832 9.43164 20.391 9.63941 20.391 9.89567V10.1912C20.3909 10.4475 20.1832 10.6553 19.9269 10.6553Z"/>
</mask>
<path d="M19.9269 10.6553C19.6707 10.6553 19.4629 10.4475 19.4629 10.1912V9.89567C19.4629 9.63941 19.6707 9.43164 19.9269 9.43164C20.1832 9.43164 20.391 9.63941 20.391 9.89567V10.1912C20.3909 10.4475 20.1832 10.6553 19.9269 10.6553Z" fill="#8A9FBA"/>
<path d="M20.391 10.1912L21.391 10.1914V10.1912H20.391ZM19.9269 9.65528C20.2229 9.65528 20.4629 9.89523 20.4629 10.1912H18.4629C18.4629 10.9998 19.1184 11.6553 19.9269 11.6553V9.65528ZM20.4629 10.1912V9.89567H18.4629V10.1912H20.4629ZM20.4629 9.89567C20.4629 10.1917 20.2229 10.4316 19.9269 10.4316V8.43164C19.1184 8.43164 18.4629 9.08712 18.4629 9.89567H20.4629ZM19.9269 10.4316C19.6309 10.4316 19.391 10.1917 19.391 9.89567H21.391C21.391 9.08712 20.7355 8.43164 19.9269 8.43164V10.4316ZM19.391 9.89567V10.1912H21.391V9.89567H19.391ZM19.391 10.1911C19.391 9.89531 19.6308 9.65528 19.9269 9.65528V11.6553C20.7356 11.6553 21.3909 10.9997 21.391 10.1914L19.391 10.1911Z" fill="#8A9FBA" mask="url(#path-7-inside-2_1740_337)"/>
</svg>
