<svg width="20" height="20" viewBox="0 0 20 20" fill="none" xmlns="http://www.w3.org/2000/svg">
<path d="M1.42786 4.69601H17.5538L16.8789 5.32333C16.7133 5.47724 16.7157 5.72455 16.8842 5.87576C17.0506 6.02491 17.326 6.02264 17.4893 5.87084L18.8791 4.57913C19.0424 4.42737 19.0399 4.17561 18.8738 4.02682L17.4346 2.73511C17.2661 2.58385 16.9952 2.586 16.8295 2.73983C16.6639 2.89366 16.6662 3.14101 16.8347 3.29227L17.5283 3.91478H1.42786C1.19155 3.91478 1 4.08967 1 4.30542C1 4.52116 1.19155 4.69601 1.42786 4.69601Z" fill="#F4F4F4"/>
<rect x="0.3" y="7.3" width="10.4" height="10.4" rx="5.2" fill="white" fill-opacity="0.5" stroke="#8A9FBA" stroke-width="0.6"/>
<rect x="4.3" y="7.3" width="10.4" height="10.4" rx="5.2" fill="#DEE4EC" stroke="#8A9FBA" stroke-width="0.6"/>
<rect x="9.3" y="7.3" width="10.4" height="10.4" rx="5.2" fill="white" stroke="#8A9FBA" stroke-width="0.6"/>
</svg>
