<svg width="20" height="20" viewBox="0 0 20 20" fill="none" xmlns="http://www.w3.org/2000/svg">
<path d="M10.4638 3.19194C10.3407 3.06903 10.1739 3 10 3C9.82608 3 9.65927 3.06903 9.53621 3.19194L7.5673 5.16085C7.45137 5.28526 7.38826 5.44982 7.39126 5.61985C7.39426 5.78987 7.46314 5.9521 7.58338 6.07235C7.70363 6.19259 7.86585 6.26147 8.03588 6.26447C8.20591 6.26747 8.37046 6.20436 8.49488 6.08843L9.3437 5.23961V7.59355C9.3437 7.76761 9.41284 7.93455 9.53592 8.05763C9.659 8.18071 9.82594 8.24986 10 8.24986C10.1741 8.24986 10.341 8.18071 10.4641 8.05763C10.5872 7.93455 10.6563 7.76761 10.6563 7.59355V5.23961L11.5051 6.08843C11.5652 6.15291 11.6377 6.20463 11.7182 6.2405C11.7987 6.27637 11.8856 6.29566 11.9737 6.29721C12.0618 6.29877 12.1494 6.28256 12.2311 6.24955C12.3128 6.21654 12.387 6.16741 12.4494 6.10509C12.5117 6.04277 12.5608 5.96853 12.5938 5.88681C12.6268 5.80509 12.643 5.71755 12.6415 5.62943C12.6399 5.54131 12.6206 5.4544 12.5848 5.3739C12.5489 5.29339 12.4972 5.22093 12.4327 5.16085L10.4638 3.19194ZM3.19194 9.53621C3.06903 9.65927 3 9.82608 3 10C3 10.1739 3.06903 10.3407 3.19194 10.4638L5.16085 12.4327C5.28526 12.5486 5.44982 12.6117 5.61985 12.6087C5.78987 12.6057 5.9521 12.5369 6.07235 12.4166C6.19259 12.2964 6.26147 12.1341 6.26447 11.9641C6.26747 11.7941 6.20436 11.6295 6.08843 11.5051L5.23961 10.6563H7.59355C7.76761 10.6563 7.93455 10.5872 8.05763 10.4641C8.18071 10.341 8.24986 10.1741 8.24986 10C8.24986 9.82594 8.18071 9.659 8.05763 9.53592C7.93455 9.41284 7.76761 9.3437 7.59355 9.3437H5.23961L6.08843 8.49488C6.20436 8.37046 6.26747 8.20591 6.26447 8.03588C6.26147 7.86585 6.19259 7.70363 6.07235 7.58338C5.9521 7.46314 5.78987 7.39426 5.61985 7.39126C5.44982 7.38826 5.28526 7.45137 5.16085 7.5673L3.19194 9.53621ZM10.4638 16.8081L12.4327 14.8391C12.4972 14.7791 12.5489 14.7066 12.5848 14.6261C12.6206 14.5456 12.6399 14.4587 12.6415 14.3706C12.643 14.2824 12.6268 14.1949 12.5938 14.1132C12.5608 14.0315 12.5117 13.9572 12.4494 13.8949C12.387 13.8326 12.3128 13.7835 12.2311 13.7505C12.1494 13.7174 12.0618 13.7012 11.9737 13.7028C11.8856 13.7043 11.7987 13.7236 11.7182 13.7595C11.6377 13.7954 11.5652 13.8471 11.5051 13.9116L10.6563 14.7604V12.4064C10.6563 12.2324 10.5872 12.0655 10.4641 11.9424C10.341 11.8193 10.1741 11.7501 10 11.7501C9.82594 11.7501 9.659 11.8193 9.53592 11.9424C9.41284 12.0655 9.3437 12.2324 9.3437 12.4064V14.7604L8.49488 13.9116C8.37046 13.7956 8.20591 13.7325 8.03588 13.7355C7.86585 13.7385 7.70363 13.8074 7.58338 13.9277C7.46314 14.0479 7.39426 14.2101 7.39126 14.3802C7.38826 14.5502 7.45137 14.7147 7.5673 14.8391L9.53621 16.8081C9.65927 16.931 9.82608 17 10 17C10.1739 17 10.3407 16.931 10.4638 16.8081ZM14.8391 7.5673L16.8081 9.53621C16.931 9.65927 17 9.82608 17 10C17 10.1739 16.931 10.3407 16.8081 10.4638L14.8391 12.4327C14.7791 12.4972 14.7066 12.5489 14.6261 12.5848C14.5456 12.6206 14.4587 12.6399 14.3706 12.6415C14.2824 12.643 14.1949 12.6268 14.1132 12.5938C14.0315 12.5608 13.9572 12.5117 13.8949 12.4494C13.8326 12.387 13.7835 12.3128 13.7505 12.2311C13.7174 12.1494 13.7012 12.0618 13.7028 11.9737C13.7043 11.8856 13.7236 11.7987 13.7595 11.7182C13.7954 11.6377 13.8471 11.5652 13.9116 11.5051L14.7604 10.6563H12.4064C12.2324 10.6563 12.0655 10.5872 11.9424 10.4641C11.8193 10.341 11.7501 10.1741 11.7501 10C11.7501 9.82594 11.8193 9.659 11.9424 9.53592C12.0655 9.41284 12.2324 9.3437 12.4064 9.3437H14.7604L13.9116 8.49488C13.7956 8.37046 13.7325 8.20591 13.7355 8.03588C13.7385 7.86585 13.8074 7.70363 13.9277 7.58338C14.0479 7.46314 14.2101 7.39426 14.3802 7.39126C14.5502 7.38826 14.7147 7.45137 14.8391 7.5673Z" fill="white"/>
<rect x="0.5" y="0.5" width="19" height="19" rx="2.5" stroke="white"/>
</svg>
