<svg width="24" height="18" viewBox="0 0 24 18" fill="none" xmlns="http://www.w3.org/2000/svg">
<path d="M4 9C4 13.4183 7.58172 17 12 17C14.0289 17 15.8814 16.2447 17.2916 15C17.6375 14.6948 17.9567 14.3601 18.2454 14M19.8019 7.22297C18.9938 3.65995 15.8075 1 12 1C9.61061 1 7.46589 2.04751 6 3.70835C5.73281 4.01108 5.48817 4.33418 5.26871 4.67503M11.1155 8.59497L12.9476 11.271H9.28342L11.1155 8.59497ZM13.231 7.62183L15.6738 11.271H10.7882L13.231 7.62183ZM11.4681 6.64874C11.4681 7.00704 11.1524 7.29749 10.7629 7.29749C10.3735 7.29749 10.0577 7.00704 10.0577 6.64874C10.0577 6.29045 10.3735 6 10.7629 6C11.1524 6 11.4681 6.29045 11.4681 6.64874ZM1.31624 9.66234H6.29186C6.35198 9.66232 6.41084 9.64496 6.46156 9.61231C6.51227 9.57966 6.55275 9.53306 6.57824 9.47797C6.60374 9.42288 6.61319 9.36157 6.6055 9.30124C6.59781 9.24091 6.5733 9.18404 6.53482 9.1373L4.04701 6.11511C4.01732 6.07908 3.98017 6.05009 3.93818 6.0302C3.8962 6.01031 3.85041 6 3.80405 6C3.75769 6 3.7119 6.01031 3.66992 6.0302C3.62793 6.05009 3.59078 6.07908 3.56109 6.11511L1.07328 9.1373C1.0348 9.18404 1.01029 9.24091 1.0026 9.30124C0.99491 9.36157 1.00437 9.42288 1.02986 9.47797C1.05535 9.53306 1.09583 9.57966 1.14655 9.61231C1.19726 9.64496 1.25612 9.66232 1.31624 9.66234ZM17.3162 7H22.2919C22.352 7.00002 22.4108 7.01738 22.4616 7.05003C22.5123 7.08268 22.5527 7.12928 22.5782 7.18437C22.6037 7.23947 22.6132 7.30077 22.6055 7.3611C22.5978 7.42143 22.5733 7.4783 22.5348 7.52504L20.047 10.5472C20.0173 10.5833 19.9802 10.6122 19.9382 10.6321C19.8962 10.652 19.8504 10.6623 19.8041 10.6623C19.7577 10.6623 19.7119 10.652 19.6699 10.6321C19.6279 10.6122 19.5908 10.5833 19.5611 10.5472L17.0733 7.52504C17.0348 7.4783 17.0103 7.42143 17.0026 7.3611C16.9949 7.30077 17.0044 7.23947 17.0299 7.18437C17.0554 7.12928 17.0958 7.08268 17.1465 7.05003C17.1973 7.01738 17.2561 7.00002 17.3162 7Z" stroke="white"/>
</svg>
