<svg width="20" height="20" viewBox="0 0 20 20" fill="none" xmlns="http://www.w3.org/2000/svg">
<path d="M18 19C18 19.5523 17.5523 20 17 20L1 20C0.447716 20 3.91405e-08 19.5523 8.74228e-08 19L1.66103e-06 0.999998C1.70931e-06 0.447714 0.447718 -1.53447e-06 1 -1.48619e-06L17 -8.74228e-08C17.5523 -3.91406e-08 18 0.447716 18 1L18 19Z" fill="#F4F4F4"/>
<path d="M18 20L0 20L18 20ZM1.74846e-06 -1.57361e-06L18 0L1.74846e-06 -1.57361e-06ZM17 -8.74228e-08C17.718 -2.46558e-08 18.3 0.582029 18.3 1.3L18.3 18.7C18.3 19.418 17.718 20 17 20L17 20C17.3866 20 17.7 19.5523 17.7 19L17.7 1C17.7 0.447716 17.3866 -5.36252e-08 17 -8.74228e-08L17 -8.74228e-08ZM0 20L1.74846e-06 -1.57361e-06L0 20Z" fill="#8A9FBA"/>
<mask id="path-3-inside-1_1658_521" fill="white">
<path d="M20 19C20 19.5523 19.5523 20 19 20L1 20C0.447716 20 3.91405e-08 19.5523 8.74228e-08 19L1.66103e-06 0.999998C1.70931e-06 0.447714 0.447718 -1.70931e-06 1 -1.66103e-06L19 -8.74228e-08C19.5523 -3.91405e-08 20 0.447716 20 1L20 19Z"/>
</mask>
<path d="M20 20L0 20L20 20ZM1.74846e-06 -1.74846e-06L20 0L1.74846e-06 -1.74846e-06ZM19 -8.74228e-08C20.1046 9.14175e-09 21 0.89543 21 2L21 18C21 19.1046 20.1046 20 19 20C19 20 19 19.5523 19 19L19 1C19 0.447716 19 -8.74228e-08 19 -8.74228e-08ZM0 20L1.74846e-06 -1.74846e-06L0 20Z" fill="#F4F4F4" mask="url(#path-3-inside-1_1658_521)"/>
</svg>
