<svg width="20" height="20" viewBox="0 0 20 20" fill="none" xmlns="http://www.w3.org/2000/svg">
<path d="M1 18C0.447715 18 -1.95703e-08 17.5523 -4.37114e-08 17L-7.43094e-07 1C-7.67235e-07 0.447716 0.447714 -1.95703e-08 0.999999 -4.37114e-08L19 -8.30516e-07C19.5523 -8.54657e-07 20 0.447715 20 0.999999L20 17C20 17.5523 19.5523 18 19 18L1 18Z" fill="#F4F4F4"/>
<path d="M0 18L-7.86805e-07 0L0 18ZM20 -8.74228e-07L20 18L20 -8.74228e-07ZM20 17C20 17.718 19.418 18.3 18.7 18.3L1.3 18.3C0.58203 18.3 -1.23279e-08 17.718 -4.37114e-08 17L-4.37114e-08 17C-2.68126e-08 17.3866 0.447715 17.7 1 17.7L19 17.7C19.5523 17.7 20 17.3866 20 17L20 17ZM-7.86805e-07 0L20 -8.74228e-07L-7.86805e-07 0Z" fill="#8A9FBA"/>
<mask id="path-3-inside-1_1658_525" fill="white">
<path d="M1 20C0.447715 20 -1.95703e-08 19.5523 -4.37114e-08 19L-8.30516e-07 1C-8.54657e-07 0.447716 0.447714 -1.95703e-08 0.999999 -4.37114e-08L19 -8.30516e-07C19.5523 -8.54657e-07 20 0.447715 20 0.999999L20 19C20 19.5523 19.5523 20 19 20L1 20Z"/>
</mask>
<path d="M0 20L-8.74228e-07 0L0 20ZM20 -8.74228e-07L20 20L20 -8.74228e-07ZM20 19C20 20.1046 19.1046 21 18 21L2 21C0.895431 21 4.57088e-09 20.1046 -4.37114e-08 19C-4.37114e-08 19 0.447715 19 1 19L19 19C19.5523 19 20 19 20 19ZM-8.74228e-07 0L20 -8.74228e-07L-8.74228e-07 0Z" fill="#F4F4F4" mask="url(#path-3-inside-1_1658_525)"/>
</svg>
