<svg width="20" height="20" viewBox="0 0 20 20" fill="none" xmlns="http://www.w3.org/2000/svg">
<rect x="0.2" y="0.2" width="19.6" height="19.6" rx="0.8" fill="#FAFAFA" fill-opacity="0.4" stroke="#F4F4F4" stroke-width="0.4" stroke-dasharray="1 0.5"/>
<rect width="20" height="20" rx="6" fill="#F4F4F4"/>
<path d="M5.15867 4.40678C5.21205 4.40598 5.26298 4.38419 5.30045 4.34614C5.33792 4.30808 5.35892 4.2568 5.35891 4.20338C5.35891 4.14996 5.33791 4.09868 5.30044 4.06063C5.26296 4.02258 5.21204 4.0008 5.15865 4L4.20327 4C4.14942 4.00019 4.09782 4.02168 4.05974 4.05979C4.02166 4.09789 4.00018 4.14952 4 4.20341L4 5.15932C4.00106 5.21257 4.02294 5.26328 4.06095 5.30056C4.09895 5.33784 4.15006 5.35872 4.20328 5.35872C4.25651 5.35872 4.30761 5.33783 4.34562 5.30055C4.38362 5.26326 4.4055 5.21255 4.40655 5.15931L4.40655 4.69559L7.65079 7.93964C7.8357 8.12508 8.12934 7.84134 7.93739 7.65284L4.69519 4.40677L5.15867 4.40678Z" fill="#8A9FBA"/>
<path d="M15.5932 5.15867C15.594 5.21205 15.6158 5.26298 15.6539 5.30045C15.6919 5.33792 15.7432 5.35892 15.7966 5.35891C15.85 5.35891 15.9013 5.33791 15.9394 5.30044C15.9774 5.26297 15.9992 5.21204 16 5.15865L16 4.20327C15.9998 4.14942 15.9783 4.09782 15.9402 4.05974C15.9021 4.02166 15.8505 4.00018 15.7966 4L14.8407 4C14.7874 4.00106 14.7367 4.02294 14.6994 4.06095C14.6622 4.09895 14.6413 4.15006 14.6413 4.20328C14.6413 4.25651 14.6622 4.30761 14.6995 4.34562C14.7367 4.38362 14.7874 4.4055 14.8407 4.40655L15.3044 4.40655L12.0604 7.65079C11.8749 7.8357 12.1587 8.12934 12.3472 7.93739L15.5932 4.69519L15.5932 5.15867Z" fill="#8A9FBA"/>
<path d="M14.8413 15.5932C14.7879 15.594 14.737 15.6158 14.6996 15.6539C14.6621 15.6919 14.6411 15.7432 14.6411 15.7966C14.6411 15.85 14.6621 15.9013 14.6996 15.9394C14.737 15.9774 14.788 15.9992 14.8413 16L15.7967 16C15.8506 15.9998 15.9022 15.9783 15.9403 15.9402C15.9783 15.9021 15.9998 15.8505 16 15.7966L16 14.8407C15.9989 14.7874 15.9771 14.7367 15.9391 14.6994C15.901 14.6622 15.8499 14.6413 15.7967 14.6413C15.7435 14.6413 15.6924 14.6622 15.6544 14.6995C15.6164 14.7367 15.5945 14.7874 15.5935 14.8407L15.5935 15.3044L12.3492 12.0604C12.1643 11.8749 11.8707 12.1587 12.0626 12.3472L15.3048 15.5932L14.8413 15.5932Z" fill="#8A9FBA"/>
<path d="M4.40678 14.8413C4.40598 14.7879 4.38419 14.737 4.34614 14.6996C4.30808 14.6621 4.2568 14.6411 4.20338 14.6411C4.14996 14.6411 4.09868 14.6621 4.06063 14.6996C4.02258 14.737 4.0008 14.788 4 14.8413L4 15.7967C4.00019 15.8506 4.02168 15.9022 4.05979 15.9403C4.09789 15.9783 4.14952 15.9998 4.20341 16L5.15932 16C5.21257 15.9989 5.26328 15.9771 5.30056 15.9391C5.33784 15.901 5.35872 15.8499 5.35872 15.7967C5.35872 15.7435 5.33783 15.6924 5.30055 15.6544C5.26326 15.6164 5.21255 15.5945 5.15931 15.5935L4.69559 15.5935L7.93964 12.3492C8.12508 12.1643 7.84134 11.8707 7.65284 12.0626L4.40677 15.3048L4.40678 14.8413Z" fill="#8A9FBA"/>
</svg>
