<svg width="20" height="20" viewBox="0 0 20 20" fill="none" xmlns="http://www.w3.org/2000/svg">
<path d="M2 1C2 0.447715 2.44772 0 3 0H19C19.5523 0 20 0.447715 20 1V19C20 19.5523 19.5523 20 19 20H3C2.44772 20 2 19.5523 2 19V1Z" fill="#F4F4F4"/>
<path d="M2 0H20H2ZM20 20H2H20ZM3 20C2.28203 20 1.7 19.418 1.7 18.7V1.3C1.7 0.58203 2.28203 0 3 0H3C2.6134 0 2.3 0.447715 2.3 1V19C2.3 19.5523 2.6134 20 3 20H3ZM20 0V20V0Z" fill="#8A9FBA"/>
<mask id="path-3-inside-1_1658_515" fill="white">
<path d="M0 1C0 0.447715 0.447715 0 1 0H19C19.5523 0 20 0.447715 20 1V19C20 19.5523 19.5523 20 19 20H1C0.447715 20 0 19.5523 0 19V1Z"/>
</mask>
<path d="M0 0H20H0ZM20 20H0H20ZM1 20C-0.104569 20 -1 19.1046 -1 18V2C-1 0.895431 -0.104569 0 1 0C1 0 1 0.447715 1 1V19C1 19.5523 1 20 1 20ZM20 0V20V0Z" fill="#F4F4F4" mask="url(#path-3-inside-1_1658_515)"/>
</svg>
