<svg width="21" height="21" viewBox="0 0 21 21" fill="none" xmlns="http://www.w3.org/2000/svg">
<rect x="0.3" y="0.3" width="19.4" height="19.4" rx="0.7" stroke="#F4F4F4" stroke-width="0.6" stroke-dasharray="1.6 1"/>
<path d="M0 1C0 0.447715 0.447715 0 1 0H19C19.5523 0 20 0.447715 20 1V4C20 12.8366 12.8366 20 4 20H1C0.447715 20 0 19.5523 0 19V1Z" fill="#F4F4F4"/>
<rect x="17.8" y="17.8" width="2.4" height="2.4" rx="1.2" fill="#F4F4F4" stroke="#8A9FBA" stroke-width="0.4"/>
<path d="M9.68266 11.1864C9.57589 11.188 9.47404 11.2316 9.3991 11.3077C9.32417 11.3838 9.28217 11.4864 9.28217 11.5932C9.28217 11.7001 9.32419 11.8026 9.39913 11.8787C9.47407 11.9548 9.57593 11.9984 9.6827 12H11.5935C11.7012 11.9996 11.8044 11.9566 11.8805 11.8804C11.9567 11.8042 11.9996 11.701 12 11.5932V9.68135C11.9979 9.57486 11.9541 9.47345 11.8781 9.39889C11.8021 9.32432 11.6999 9.28256 11.5934 9.28256C11.487 9.28257 11.3848 9.32434 11.3088 9.39891C11.2328 9.47348 11.189 9.5749 11.1869 9.68139V10.6088L4.69842 4.12073C4.32859 3.74985 3.74133 4.31732 4.12523 4.69431L10.6096 11.1865L9.68266 11.1864Z" fill="#8A9FBA"/>
</svg>
