<svg width="21" height="21" viewBox="0 0 21 21" fill="none" xmlns="http://www.w3.org/2000/svg">
<rect x="20.7" y="0.3" width="19.4" height="19.4" rx="0.7" transform="rotate(90 20.7 0.3)" stroke="#F4F4F4" stroke-width="0.6" stroke-dasharray="1.6 1"/>
<path d="M20 -4.37114e-08C20.5523 -1.95703e-08 21 0.447715 21 1L21 19C21 19.5523 20.5523 20 20 20L17 20C8.16344 20 0.999999 12.8366 1 4L1 0.999999C1 0.447715 1.44772 -8.54657e-07 2 -8.30516e-07L20 -4.37114e-08Z" fill="#F4F4F4"/>
<rect x="3.2" y="17.8" width="2.4" height="2.4" rx="1.2" transform="rotate(90 3.2 17.8)" fill="#F4F4F4" stroke="#8A9FBA" stroke-width="0.4"/>
<path d="M9.81356 9.68266C9.81195 9.57589 9.76839 9.47404 9.69227 9.3991C9.61616 9.32417 9.5136 9.28217 9.40676 9.28217C9.29992 9.28217 9.19737 9.32419 9.12126 9.39913C9.04515 9.47407 9.00159 9.57593 9 9.6827L9 11.5935C9.00038 11.7012 9.04336 11.8044 9.11957 11.8805C9.19578 11.9567 9.29904 11.9996 9.40681 12L11.3186 12C11.4251 11.9979 11.5266 11.9541 11.6011 11.8781C11.6757 11.8021 11.7174 11.6999 11.7174 11.5934C11.7174 11.487 11.6757 11.3848 11.6011 11.3088C11.5265 11.2328 11.4251 11.189 11.3186 11.1869L10.3912 11.1869L16.8793 4.69842C17.2502 4.32859 16.6827 3.74133 16.3057 4.12523L9.81354 10.6096L9.81356 9.68266Z" fill="#8A9FBA"/>
</svg>
