<svg width="20" height="20" viewBox="0 0 20 20" fill="none" xmlns="http://www.w3.org/2000/svg">
<path d="M2.83333 3.33268H17.8333C18.0543 3.33268 18.2663 3.24489 18.4226 3.0886C18.5789 2.93232 18.6667 2.72036 18.6667 2.49935C18.6667 2.27834 18.5789 2.06637 18.4226 1.91009C18.2663 1.75381 18.0543 1.66602 17.8333 1.66602H2.83333C2.61232 1.66602 2.40036 1.75381 2.24408 1.91009C2.0878 2.06637 2 2.27834 2 2.49935C2 2.72036 2.0878 2.93232 2.24408 3.0886C2.40036 3.24489 2.61232 3.33268 2.83333 3.33268Z" fill="white"/>
<path d="M4.83333 8.33268H14.8333C15.0543 8.33268 15.2663 8.24488 15.4226 8.0886C15.5789 7.93232 15.6667 7.72036 15.6667 7.49935C15.6667 7.27834 15.5789 7.06637 15.4226 6.91009C15.2663 6.75381 15.0543 6.66602 14.8333 6.66602H4.83333C4.61232 6.66602 4.40036 6.75381 4.24408 6.91009C4.0878 7.06637 4 7.27834 4 7.49935C4 7.72036 4.0878 7.93232 4.24408 8.0886C4.40036 8.24488 4.61232 8.33268 4.83333 8.33268Z" fill="white"/>
<path d="M2.83333 13.3327H17.8333C18.0543 13.3327 18.2663 13.2449 18.4226 13.0886C18.5789 12.9323 18.6667 12.7204 18.6667 12.4993C18.6667 12.2783 18.5789 12.0664 18.4226 11.9101C18.2663 11.7538 18.0543 11.666 17.8333 11.666H2.83333C2.61232 11.666 2.40036 11.7538 2.24408 11.9101C2.0878 12.0664 2 12.2783 2 12.4993C2 12.7204 2.0878 12.9323 2.24408 13.0886C2.40036 13.2449 2.61232 13.3327 2.83333 13.3327Z" fill="white"/>
<path d="M4.83333 18.3327H14.8333C15.0543 18.3327 15.2663 18.2449 15.4226 18.0886C15.5789 17.9323 15.6667 17.7204 15.6667 17.4993C15.6667 17.2783 15.5789 17.0664 15.4226 16.9101C15.2663 16.7538 15.0543 16.666 14.8333 16.666H4.83333C4.61232 16.666 4.40036 16.7538 4.24408 16.9101C4.0878 17.0664 4 17.2783 4 17.4993C4 17.7204 4.0878 17.9323 4.24408 18.0886C4.40036 18.2449 4.61232 18.3327 4.83333 18.3327Z" fill="white"/>
</svg>
