<svg width="20" height="21" viewBox="0 0 20 21" fill="none" xmlns="http://www.w3.org/2000/svg">
<path d="M15.5399 1.27618C16.1399 0.117808 17.5654 -0.334849 18.7238 0.265149C19.8841 0.866096 20.336 2.29484 19.7324 3.4537L17.3063 8.11159C17.2093 8.29803 17.089 8.46817 16.9499 8.61905C17.6128 9.60065 17.8183 10.8628 17.3982 12.0577C17.3025 12.3299 17.2014 12.6137 17.0964 12.9039C17.0517 13.0274 16.9083 13.0829 16.7919 13.0221L8.96366 8.9314C8.83688 8.86516 8.80754 8.69667 8.90337 8.59049C9.09821 8.37468 9.2879 8.15802 9.47003 7.9449C10.3263 6.94284 11.5952 6.37601 12.8768 6.41802C12.8913 6.38816 12.9066 6.35844 12.9227 6.32882L15.5399 1.27618Z" fill="white"/>
<path d="M7.81621 9.92705C7.73393 9.88407 7.63354 9.8982 7.56553 9.96137C7.08367 10.4091 6.60293 10.7999 6.15441 11.0781C4.63992 12.0176 3.38787 12.3562 2.61033 12.4763C2.1556 12.5466 1.7865 12.8394 1.60671 13.219C1.4189 13.6156 1.43306 14.1353 1.79802 14.5374C2.20016 14.9805 2.79586 15.567 3.65504 16.2725C3.70542 16.3139 3.77182 16.3301 3.83573 16.3173C4.43673 16.1965 5.06246 16.0825 5.60852 15.797C5.76744 15.7139 6.00538 15.5659 6.30377 15.3101C6.60089 15.0552 7.05313 15.0826 7.31387 15.3711C7.57457 15.6597 7.54507 16.1001 7.24795 16.3549C6.87065 16.6785 6.54258 16.8888 6.28244 17.0248C6.06961 17.1361 5.84689 17.2285 5.61949 17.3073C5.44674 17.3671 5.40631 17.5999 5.55632 17.7045C5.9891 18.006 6.4611 18.3209 6.97547 18.6481C7.23855 18.8154 7.49795 18.9727 7.75225 19.1204C7.82482 19.1625 7.91533 19.1587 7.98361 19.1099C8.35069 18.8473 8.66683 18.5838 8.92455 18.342C9.50759 17.7951 10.0107 17.1924 10.4175 16.4994C10.6155 16.1621 11.0509 16.0434 11.3901 16.2343C11.7292 16.4252 11.8437 16.8533 11.6457 17.1906C11.1695 18.0019 10.5802 18.7122 9.89703 19.3531C9.77881 19.4641 9.65029 19.5787 9.51196 19.6955C9.38956 19.7989 9.4114 19.9957 9.55658 20.0635C10.4217 20.4674 11.1497 20.7401 11.6507 20.9093C12.3774 21.1547 13.154 20.874 13.571 20.2496C14.0981 19.4601 15.024 17.9712 15.8189 16.1596C16.0252 15.6895 16.235 15.177 16.4407 14.6518C16.481 14.5488 16.437 14.4319 16.339 14.3807L7.81621 9.92705Z" fill="white"/>
<path d="M3.80959 8.00189C4.37481 8.00189 4.83302 7.54369 4.83302 6.97847C4.83302 6.41328 4.37481 5.95508 3.80959 5.95508C3.24435 5.95508 2.78613 6.41328 2.78613 6.97847C2.78613 7.54369 3.24435 8.00189 3.80959 8.00189Z" fill="white"/>
<path d="M1.02345 11.1464C1.58867 11.1464 2.04689 10.6882 2.04689 10.123C2.04689 9.55781 1.58867 9.09961 1.02345 9.09961C0.45821 9.09961 2.71712e-06 9.55781 0 10.123C0 10.6882 0.45821 11.1464 1.02345 11.1464Z" fill="white"/>
</svg>
