<svg width="20" height="20" viewBox="0 0 20 20" fill="none" xmlns="http://www.w3.org/2000/svg">
<g clip-path="url(#clip0_1651_409)">
<path d="M19.4997 12.178C19.5043 12.3776 19.3827 12.5543 19.1969 12.6185L14.7185 14.1786L13.7618 18.8199C13.7251 19.0149 13.5668 19.1617 13.3717 19.1778C13.3534 19.1824 13.335 19.1824 13.3167 19.1824C13.1446 19.1824 12.9794 19.0792 12.9037 18.9163L8.58821 9.35609C8.51709 9.19777 8.54462 9.00736 8.66163 8.87201C8.77634 8.73892 8.96218 8.68616 9.13425 8.73433L19.1739 11.7536C19.3643 11.8087 19.4951 11.9807 19.4997 12.178Z" fill="#F4F4F4"/>
<path d="M14.6167 6.09725C14.6167 6.37368 14.5141 6.64713 14.3046 6.85521C14.0965 7.06476 13.8201 7.17028 13.5466 7.17028C13.2702 7.17028 12.9967 7.06476 12.7872 6.85521C12.4647 6.53567 12.3903 6.0586 12.5642 5.66476C10.8194 4.49066 8.50839 4.49363 6.76359 5.66773C6.82155 5.80298 6.85127 5.95011 6.85127 6.09725C6.85127 6.37368 6.74873 6.64713 6.53918 6.85521C6.3311 7.06476 6.05467 7.17028 5.78121 7.17028C5.63408 7.17028 5.48694 7.14056 5.34873 7.07962C4.1776 8.82293 4.1776 11.1355 5.3517 12.8802C5.74257 12.7064 6.21964 12.7792 6.53918 13.1032C6.95828 13.5208 6.95828 14.203 6.53918 14.6206C6.3311 14.8302 6.05467 14.9357 5.78121 14.9357C5.50478 14.9357 5.23132 14.8302 5.02176 14.6206C4.64872 14.2505 4.60712 13.6739 4.89544 13.2563C3.84618 11.7329 3.61285 9.80233 4.19246 8.09915L2.58885 9.70277L2.843 9.95542C2.95743 10.0699 2.95743 10.2556 2.843 10.3701L1.92155 11.2915C1.86656 11.3435 1.79225 11.3762 1.71348 11.3762C1.6362 11.3762 1.56041 11.3435 1.5069 11.2915L0.586946 10.3701C0.471018 10.2556 0.471018 10.0699 0.586946 9.95542L1.5069 9.03547C1.56041 8.98195 1.6362 8.94926 1.71348 8.94926C1.79225 8.94926 1.86656 8.98195 1.92155 9.03547L2.17421 9.28811L4.84193 6.62039C4.61306 6.21169 4.67547 5.68557 5.02176 5.33778C5.36954 4.99002 5.89565 4.92908 6.30435 5.15796L8.97208 2.49024L8.71943 2.23759C8.60499 2.12315 8.60499 1.93737 8.71943 1.82293L9.64087 0.904454C9.75531 0.787057 9.9396 0.787057 10.0555 0.904454L10.9725 1.82293C11.029 1.87792 11.0602 1.95223 11.0602 2.03099C11.0602 2.10827 11.029 2.18407 10.9725 2.23759L10.0555 3.15754C9.99904 3.21401 9.92473 3.24373 9.84597 3.24373C9.77017 3.24373 9.69289 3.21401 9.64087 3.15754L9.38673 2.90489L7.78758 4.50849C9.49077 3.92887 11.4169 4.16072 12.9402 5.21148C13.3579 4.9261 13.9345 4.96475 14.3046 5.33778C14.5141 5.54734 14.6167 5.8208 14.6167 6.09725Z" fill="#F4F4F4"/>
</g>
<defs>
<clipPath id="clip0_1651_409">
<rect width="20" height="20" fill="white"/>
</clipPath>
</defs>
</svg>
