<svg width="20" height="20" viewBox="0 0 20 20" fill="none" xmlns="http://www.w3.org/2000/svg">
<g clip-path="url(#clip0_1648_269)">
<path d="M12.5097 8.21143L11.7243 8.26727C11.686 8.26977 11.6477 8.27143 11.6093 8.27143C11.2919 8.27135 10.9817 8.17718 10.7177 8.00082C10.4538 7.82447 10.2481 7.57383 10.1266 7.2806C10.0051 6.98737 9.97324 6.66469 10.0351 6.35336C10.0969 6.04202 10.2496 5.756 10.4739 5.53143L11.5572 4.4481C11.711 4.2942 11.8322 4.11091 11.9136 3.90917C11.995 3.70743 12.035 3.49135 12.0311 3.27384C12.0272 3.05632 11.9795 2.84182 11.891 2.64311C11.8024 2.44441 11.6747 2.26557 11.5156 2.11727C11.2296 1.85216 10.8589 1.69687 10.4693 1.67893C10.3118 1.6706 10.1581 1.66602 10.0002 1.66602C4.77433 1.66602 0.833496 5.24935 0.833496 9.99935C0.833496 14.7493 4.77433 18.3327 10.0002 18.3327C10.9621 18.3346 11.9196 18.2027 12.8452 17.9406L12.5097 8.21143ZM3.12516 8.54102C3.12516 8.25258 3.21069 7.97063 3.37094 7.73081C3.53118 7.49099 3.75894 7.30407 4.02542 7.19369C4.29189 7.08331 4.58511 7.05443 4.868 7.1107C5.15089 7.16697 5.41074 7.30587 5.61469 7.50982C5.81865 7.71377 5.95754 7.97362 6.01381 8.25651C6.07008 8.5394 6.0412 8.83262 5.93082 9.0991C5.82044 9.36557 5.63352 9.59333 5.3937 9.75358C5.15388 9.91382 4.87193 9.99935 4.5835 9.99935C4.19672 9.99935 3.82579 9.8457 3.5523 9.57221C3.27881 9.29872 3.12516 8.92779 3.12516 8.54102ZM5.62516 14.166C5.33673 14.166 5.05478 14.0805 4.81496 13.9202C4.57513 13.76 4.38822 13.5322 4.27784 13.2658C4.16746 12.9993 4.13858 12.7061 4.19485 12.4232C4.25112 12.1403 4.39001 11.8804 4.59397 11.6765C4.79792 11.4725 5.05777 11.3336 5.34066 11.2774C5.62354 11.2211 5.91677 11.25 6.18324 11.3604C6.44972 11.4707 6.67748 11.6577 6.83772 11.8975C6.99797 12.1373 7.0835 12.4193 7.0835 12.7077C7.0835 13.0945 6.92985 13.4654 6.65636 13.7389C6.38287 14.0124 6.01194 14.166 5.62516 14.166ZM10.0002 16.2493C9.71173 16.2493 9.42978 16.1638 9.18996 16.0036C8.95013 15.8433 8.76322 15.6156 8.65284 15.3491C8.54246 15.0826 8.51358 14.7894 8.56985 14.5065C8.62612 14.2236 8.76501 13.9638 8.96896 13.7598C9.17292 13.5559 9.43277 13.417 9.71566 13.3607C9.99854 13.3044 10.2918 13.3333 10.5582 13.4437C10.8247 13.5541 11.0525 13.741 11.2127 13.9808C11.373 14.2206 11.4585 14.5026 11.4585 14.791C11.4585 15.1778 11.3049 15.5487 11.0314 15.8222C10.7579 16.0957 10.3869 16.2493 10.0002 16.2493Z" fill="#F4F4F4"/>
<path d="M17.4255 8.02023L16.8988 7.94523C16.8199 7.9348 16.7405 7.92896 16.6609 7.92773C16.6609 7.94773 16.6655 7.9694 16.6651 7.98732L16.3867 16.0561C17.2621 15.3062 17.9641 14.3751 18.4441 13.3272C18.9242 12.2793 19.1707 11.1395 19.1667 9.9869C19.1593 9.50513 18.9796 9.04195 18.6602 8.6812C18.3408 8.32045 17.9028 8.08598 17.4255 8.02023Z" fill="#F4F4F4"/>
<path d="M14.5832 19.166C14.3519 19.166 14.1296 19.0762 13.9632 18.9154C13.7968 18.7547 13.6994 18.5356 13.6915 18.3043L13.3332 7.95768C13.3276 7.79006 13.3558 7.62302 13.4161 7.46652C13.4764 7.31002 13.5676 7.16726 13.6843 7.04674C13.8009 6.92622 13.9406 6.8304 14.095 6.76499C14.2495 6.69958 14.4155 6.66592 14.5832 6.66602C14.7509 6.66592 14.917 6.69958 15.0714 6.76499C15.2258 6.8304 15.3655 6.92622 15.4822 7.04674C15.5988 7.16726 15.69 7.31002 15.7503 7.46652C15.8106 7.62302 15.8388 7.79006 15.8332 7.95768L15.4765 18.3035C15.4689 18.5352 15.3713 18.7547 15.2046 18.9157C15.0378 19.0767 14.815 19.1665 14.5832 19.166Z" fill="#F4F4F4"/>
<path d="M14.1665 0.833984C14.1665 2.08398 12.9165 2.91732 12.9165 4.58398C12.9165 5.02601 13.0921 5.44994 13.4047 5.7625C13.7172 6.07506 14.1411 6.25065 14.5832 6.25065C15.0252 6.25065 15.4491 6.07506 15.7617 5.7625C16.0742 5.44994 16.2498 5.02601 16.2498 4.58398C16.2498 2.50065 14.1665 0.833984 14.1665 0.833984Z" fill="#F4F4F4"/>
</g>
<defs>
<clipPath id="clip0_1648_269">
<rect width="20" height="20" fill="white"/>
</clipPath>
</defs>
</svg>
