<svg width="20" height="20" viewBox="0 0 20 20" fill="none" xmlns="http://www.w3.org/2000/svg">
<path d="M16.9782 2H3.02152C2.45734 2 2 2.45734 2 3.02152V16.9782C2 17.5412 2.45734 18.0009 3.02152 18.0009H16.977C17.5412 18.0009 17.9985 17.5412 17.9985 16.9782V3.02152C17.9985 2.45734 17.5424 2 16.9782 2ZM6.74866 11.2741C7.08597 11.2741 7.34885 11.2176 7.56252 11.1336L7.73177 12.1815C7.47969 12.2944 7.00194 12.388 6.45818 12.388C4.97932 12.388 4.03343 11.4901 4.03343 10.0473C4.03343 8.71007 4.95051 7.61413 6.65504 7.61413C7.02955 7.61413 7.44248 7.68015 7.74137 7.79179L7.5169 8.84931C7.34885 8.77369 7.09557 8.71007 6.72106 8.71007C5.97203 8.71007 5.48467 9.24303 5.49428 9.99206C5.49428 10.8323 6.05605 11.2741 6.74866 11.2741ZM9.73879 12.3868C9.1386 12.3868 8.60564 12.256 8.25873 12.0675L8.51201 11.0472C8.77369 11.2068 9.31746 11.3941 9.73879 11.3941C10.1685 11.3941 10.3462 11.2441 10.3462 11.01C10.3462 10.7759 10.2069 10.6643 9.67157 10.4854C8.72568 10.1673 8.36076 9.65356 8.37157 9.10979C8.37157 8.25753 9.10139 7.61173 10.2345 7.61173C10.7675 7.61173 11.2453 7.73417 11.5249 7.87461L11.2729 8.85771C11.0676 8.74368 10.6739 8.59483 10.2802 8.59483C9.93445 8.59483 9.73879 8.73408 9.73879 8.96935C9.73879 9.18542 9.91524 9.29705 10.477 9.49391C11.3485 9.794 11.7122 10.2333 11.7218 10.9079C11.7218 11.759 11.0472 12.3868 9.73879 12.3868ZM13.8032 12.3868C13.2031 12.3868 12.6701 12.256 12.3232 12.0675L12.5765 11.0472C12.8393 11.2068 13.3819 11.3941 13.8032 11.3941C14.233 11.3941 14.4106 11.2441 14.4106 11.01C14.4106 10.7759 14.2702 10.6643 13.736 10.4854C12.7901 10.1673 12.4252 9.65356 12.436 9.10979C12.436 8.25753 13.1646 7.61173 14.299 7.61173C14.832 7.61173 15.3097 7.73417 15.5894 7.87461L15.3373 8.85771C15.1321 8.74368 14.7383 8.59483 14.3446 8.59483C13.9989 8.59483 13.8032 8.73408 13.8032 8.96935C13.8032 9.18542 13.9797 9.29705 14.5415 9.49391C15.4129 9.794 15.7766 10.2333 15.7863 10.9079C15.7875 11.759 15.1128 12.3868 13.8032 12.3868Z" fill="#F4F4F4"/>
</svg>
