<svg width="20" height="20" viewBox="0 0 20 20" fill="none" xmlns="http://www.w3.org/2000/svg">
<path d="M19.8244 16.5698L17.772 15.099C17.6798 15.0349 17.5561 14.9993 17.4277 15C17.2992 15.0007 17.1762 15.0376 17.0854 15.1027C16.9945 15.1678 16.9431 15.2559 16.9421 15.3479C16.9411 15.44 16.9907 15.5287 17.0802 15.5948L18.376 16.5234H1.62399L2.9198 15.5948C3.00926 15.5287 3.05886 15.44 3.05788 15.3479C3.0569 15.2559 3.00543 15.1678 2.91457 15.1027C2.82372 15.0376 2.70078 15.0007 2.57231 15C2.44383 14.9993 2.32014 15.0349 2.22793 15.099L0.175554 16.5698C0.0631339 16.6506 0 16.76 0 16.8741C0 16.9881 0.0631339 17.0976 0.175554 17.1783L2.22789 18.6491C2.32004 18.7135 2.44383 18.7492 2.57248 18.7486C2.70112 18.748 2.82426 18.7111 2.91524 18.6459C3.00621 18.5808 3.0577 18.4925 3.05855 18.4003C3.05941 18.3081 3.00956 18.2194 2.9198 18.1534L1.62399 17.2247H18.376L17.0802 18.1534C16.9896 18.2193 16.939 18.3082 16.9395 18.4007C16.94 18.4932 16.9915 18.5819 17.0828 18.6473C17.1741 18.7127 17.2978 18.7496 17.4269 18.75C17.556 18.7504 17.68 18.7141 17.772 18.6492L19.8244 17.1784C19.9369 17.0976 20 16.9882 20 16.8741C20 16.76 19.9368 16.6506 19.8244 16.5698Z" fill="#F4F4F4"/>
<rect x="5" y="2.5" width="10" height="10" rx="1" fill="#F4F4F4"/>
</svg>
