<svg width="20" height="20" viewBox="0 0 20 20" fill="none" xmlns="http://www.w3.org/2000/svg">
<path d="M19 15.5689V8.72542V4.44825C18.999 3.54106 18.7428 2.11733 18.1 1.47586C17.4572 0.834378 16.4804 1.02754 15.5714 1.02652H4.42857C3.51957 1.02754 2.4999 1.24047 1.85714 1.88195C1.21438 2.52343 1.00102 3.54106 1 4.44825V15.5689C1.00102 16.4761 1.36257 17.3458 2.00533 17.9873C2.64809 18.6288 3.51957 18.9896 4.42857 18.9906H9.57143H15.5714C14.9287 18.3491 13.2168 18.9906 15.5714 18.9906C14.6624 18.9896 16.5192 18.9917 15.5714 18.9906H9.57143C9.57143 18.9906 11.0907 18.9906 12.25 18.9906H15.5714C15.6652 18.2688 17.9947 17.9873 17.9947 17.9873C17.9947 17.9873 18.9987 16.7082 19 15.5689ZM18.1429 14.1087L14.1083 18.1352H11.4426L18.1429 11.4483V14.1087ZM18.1429 15.3182V15.5689C18.1422 16.2493 17.871 16.9016 17.389 17.3828C16.9069 17.8639 16.2532 18.1345 15.5714 18.1352H15.3203L18.1429 15.3182ZM18.1429 10.2387L10.2306 18.1352H9.57143V15.5223L15.5247 9.58085H18.1429V10.2387ZM11.8784 8.73868L14.3123 9.58085L9.57143 14.3122L8.72671 11.8841C9.23661 11.4521 9.84324 10.8144 10.3253 10.3333C10.8074 9.85212 11.2455 9.44719 11.8784 8.73868ZM15.5247 9.58085L18.1429 6.96793V9.58085H15.5247ZM18.1429 5.75792L15.1694 8.72542L14.3123 9.58085C14.2231 9.58085 11.9659 8.73226 11.8784 8.73868L18.1 2.82368C18.4109 3.25626 18.1424 3.91592 18.1429 4.44825V5.75792ZM1.85714 5.90847L5.89171 1.88195H8.55743L1.85714 8.56887V5.90847ZM1.85714 9.77845L9.76943 1.88195H13.0467L1.85714 13.0492V9.77845ZM4.42857 1.88195H4.67971L1.85714 4.69889V4.44825C1.85782 3.76783 1.41791 2.40632 1.9 1.92519C2.38209 1.44407 3.7468 1.88263 4.42857 1.88195ZM1.85714 14.2592L14.2591 1.88195H15.5714C16.105 1.88198 16.7662 1.61489 17.2 1.925L2.335 17.0535C2.02427 16.6206 1.85717 16.1014 1.85714 15.5689V14.2592ZM2.941 17.6583L8.72671 11.8841C8.72028 11.9696 9.57143 14.2233 9.57143 14.3122L8.71343 15.1685L5.74086 18.1352H4.42857C3.89498 18.1352 3.37478 17.9684 2.941 17.6583ZM6.95329 18.1352L9.57143 15.5223V18.1352H6.95329ZM12.25 18.9906C11.0446 18.9906 9.57143 18.9906 9.57143 18.9906H15.5714C15.5174 18.9906 14.8897 18.9899 15.5714 18.9906C16.067 19.0708 15.0893 18.5095 15.5714 18.9906C16.2679 19.0708 17.3519 18.6288 17.9947 17.9873C18.6374 17.3458 18.999 16.4761 19 15.5689C18.9992 16.3083 17.9947 17.9873 17.9947 17.9873C17.9947 17.9873 15.5707 18.3102 15.5714 18.9906H12.25Z" fill="#F1F1F1"/>
<rect x="1.5" y="1.5" width="17" height="17" rx="1.5" fill="#F4F4F4" fill-opacity="0.4" stroke="#F4F4F4"/>
</svg>
