<svg width="31" height="20" viewBox="0 0 31 20" fill="none" xmlns="http://www.w3.org/2000/svg">
<path d="M30.2244 18.4475H29.7078C29.5652 18.4475 29.4494 18.3314 29.4494 18.1891V11.9892C29.4494 9.56795 27.4794 7.59766 25.0578 7.59766H22.9912C20.5696 7.59766 18.5996 9.56795 18.5996 11.9892C18.5996 12.4171 18.9465 12.7642 19.3746 12.7642H21.4412C21.8693 12.7642 22.2162 12.4171 22.2162 11.9892C22.2162 10.7869 22.8888 9.14764 24.0245 9.14764C25.1603 9.14764 25.8329 10.7869 25.8329 11.9892V12.4676C25.0536 12.716 24.2836 12.849 23.5351 12.9711C21.9774 13.2249 20.5058 13.4646 19.4412 14.7623C18.6155 15.7683 18.4142 17.053 18.9162 18.114C19.4823 19.3113 20.7793 19.9975 22.4746 19.9975H23.5079C24.4281 19.9975 25.2926 19.776 26.225 19.2998C26.5563 19.7213 27.0647 19.9975 27.6412 19.9975H30.2244C30.6525 19.9975 30.9994 19.6504 30.9994 19.2225C30.9994 18.7946 30.6525 18.4475 30.2244 18.4475ZM25.8328 17.7521C24.9964 18.2308 24.2664 18.4475 23.5078 18.4475C22.8095 18.4475 22.4993 17.9838 22.3762 17.7073C22.1423 17.1811 22.1509 16.3789 22.6976 15.7729C23.3844 15.0113 24.6457 14.5331 25.8329 14.1595V17.7522L25.8328 17.7521Z" fill="#FAFAFA"/>
<path d="M17.3081 18.4492H16.794L9.75827 1.36264C9.63869 1.07244 9.35558 0.882812 9.04152 0.882812C8.72747 0.882812 8.44442 1.07256 8.32478 1.36264L1.28915 18.4492H0.77499C0.346868 18.4492 0 18.7963 0 19.2242C0 19.6521 0.346868 19.9992 0.77499 19.9992H1.81045C1.81342 19.9992 1.81644 19.9993 1.81941 19.9992H2.84161C3.26973 19.9992 3.6166 19.6521 3.6166 19.2242C3.6166 18.8371 3.33179 18.5189 2.9607 18.4612L4.4548 14.8326H11.0449L12.539 18.4612C12.1679 18.5188 11.8831 18.8371 11.8831 19.2242C11.8831 19.6521 12.23 19.9992 12.6581 19.9992H17.3081C17.7362 19.9992 18.083 19.6521 18.083 19.2242C18.0831 18.7964 17.7362 18.4492 17.3081 18.4492ZM5.09301 13.2826L7.74984 6.83031L10.4067 13.2826H5.09301Z" fill="#FAFAFA"/>
</svg>
