<svg width="20" height="20" viewBox="0 0 20 20" fill="none" xmlns="http://www.w3.org/2000/svg">
<path d="M2.14967 15.8414L2.13301 15.8581C1.90801 15.3664 1.76634 14.8081 1.70801 14.1914C1.76634 14.7997 1.92467 15.3497 2.14967 15.8414Z" fill="#F4F4F4"/>
<path d="M7.49994 8.65026C8.59534 8.65026 9.48325 7.76229 9.48325 6.66693C9.48325 5.57156 8.59534 4.68359 7.49994 4.68359C6.40457 4.68359 5.5166 5.57156 5.5166 6.66693C5.5166 7.76229 6.40457 8.65026 7.49994 8.65026Z" fill="#F4F4F4"/>
<path d="M13.4915 1.66602H6.50817C3.47484 1.66602 1.6665 3.47435 1.6665 6.50768V13.491C1.6665 14.3994 1.82484 15.191 2.13317 15.8577C2.84984 17.441 4.38317 18.3327 6.50817 18.3327H13.4915C16.5248 18.3327 18.3332 16.5244 18.3332 13.491V11.5827V6.50768C18.3332 3.47435 16.5248 1.66602 13.4915 1.66602ZM16.9748 10.416C16.3248 9.85768 15.2748 9.85768 14.6248 10.416L11.1582 13.391C10.5082 13.9493 9.45817 13.9493 8.80817 13.391L8.52484 13.1577C7.93317 12.641 6.9915 12.591 6.32484 13.041L3.20817 15.1327C3.02484 14.666 2.9165 14.1243 2.9165 13.491V6.50768C2.9165 4.15768 4.15817 2.91602 6.50817 2.91602H13.4915C15.8415 2.91602 17.0832 4.15768 17.0832 6.50768V10.5077L16.9748 10.416Z" fill="#F4F4F4"/>
</svg>
