<svg width="20" height="20" viewBox="0 0 20 20" fill="none" xmlns="http://www.w3.org/2000/svg">
<g clip-path="url(#clip0_2846_83)">
<path d="M10.0996 8.53809L10.1836 8.55762H10.1846L18.5176 11.0576C18.6203 11.0889 18.7128 11.1457 18.7871 11.2217L18.8555 11.3047C18.9167 11.3933 18.954 11.4955 18.9648 11.6016L18.9668 11.708C18.9596 11.8154 18.9255 11.9191 18.8682 12.0088L18.8027 12.0938C18.7302 12.1735 18.639 12.233 18.5381 12.2676L18.4346 12.2939L14.0254 13.0273L13.8848 13.0508L13.8613 13.1914L13.1279 17.5996C13.1099 17.7064 13.0654 17.8065 12.999 17.8906L12.9248 17.9688C12.819 18.0642 12.685 18.1221 12.543 18.1328H12.501C12.3986 18.1325 12.298 18.1082 12.208 18.0615L12.1221 18.0078C12.0124 17.9267 11.9319 17.8119 11.8916 17.6816H11.8906L9.3916 9.35059V9.34961C9.36651 9.26715 9.35884 9.18079 9.36816 9.0957L9.38281 9.01074C9.40375 8.92702 9.44128 8.84849 9.49316 8.78027L9.5498 8.71582C9.61074 8.65488 9.68325 8.60701 9.7627 8.5752L9.84473 8.54883C9.92831 8.52794 10.0151 8.5245 10.0996 8.53809Z" fill="#FAFAFA" stroke="#8A9FBA" stroke-width="0.4"/>
<path d="M9.16699 1.76562H10.833L10.9883 1.77441C11.3464 1.81099 11.6827 1.96981 11.9395 2.22656C12.2331 2.52016 12.3992 2.9178 12.4004 3.33301V3.43262H15.2207L15.2441 3.36621C15.3895 2.95804 15.6422 2.59779 15.9736 2.32227L16.1201 2.20996C16.5236 1.92382 17.0053 1.76832 17.5 1.76562C17.8846 1.76518 18.2632 1.8574 18.6035 2.0332L18.7461 2.11328C19.0748 2.3127 19.3505 2.58817 19.5498 2.91504L19.6309 3.05859C19.8333 3.44849 19.9242 3.8869 19.8945 4.3252C19.8685 4.70876 19.7514 5.07994 19.5527 5.40723L19.4619 5.54395C19.2403 5.85825 18.9473 6.11461 18.6074 6.29102L18.459 6.36133C18.0562 6.5365 17.6129 6.5977 17.1777 6.53809C16.7969 6.48586 16.4349 6.34262 16.1221 6.12207L15.9902 6.02246C15.6495 5.74524 15.3912 5.37971 15.2441 4.96582L15.2207 4.89941H12.4004V4.99902C12.3993 5.3624 12.2724 5.71267 12.0439 5.99121L11.9395 6.10547C11.6459 6.39901 11.2482 6.56519 10.833 6.56641H9.16699L9.0127 6.55762C8.70564 6.52638 8.4145 6.40558 8.17578 6.20996L8.06055 6.10547C7.76701 5.81188 7.60181 5.41419 7.60059 4.99902L7.59961 4.89941H4.7793L4.75586 4.96582C4.59071 5.43292 4.28563 5.83578 3.88477 6.12109L3.70801 6.23633C3.28064 6.48703 2.7873 6.59788 2.29688 6.55762L2.08691 6.53125C1.59882 6.44742 1.15064 6.21486 0.801758 5.86816L0.658203 5.71289C0.293313 5.28004 0.0927734 4.73215 0.0927734 4.16602C0.0927745 3.67048 0.246353 3.1888 0.529297 2.78613L0.658203 2.61914C0.97753 2.24036 1.40512 1.97124 1.88086 1.8457L2.08691 1.80078C2.57514 1.71701 3.07591 1.78647 3.52051 1.99707L3.70801 2.0957C4.1962 2.38217 4.56718 2.83254 4.75586 3.36621L4.7793 3.43262H7.59961L7.60059 3.33301C7.60181 2.91784 7.76701 2.52015 8.06055 2.22656C8.3175 1.96961 8.65428 1.81087 9.0127 1.77441L9.16699 1.76562ZM2.31836 3.25098C2.18255 3.27799 2.05467 3.33424 1.94434 3.41602L1.83984 3.50586C1.70936 3.63637 1.62097 3.80337 1.58496 3.98438C1.54905 4.1653 1.5671 4.35302 1.6377 4.52344C1.69068 4.65129 1.77137 4.7652 1.87305 4.85742L1.98145 4.94238C2.09666 5.01936 2.22733 5.0687 2.36328 5.08887L2.5 5.09961C2.71617 5.09899 2.92504 5.02348 3.09082 4.8877L3.15918 4.8252C3.334 4.65037 3.43288 4.41325 3.43359 4.16602L3.42383 4.02832C3.41035 3.93792 3.38279 3.85022 3.34375 3.76758L3.27637 3.64746C3.17382 3.49399 3.02795 3.37436 2.85742 3.30371C2.72962 3.25077 2.59212 3.22677 2.45508 3.2334L2.31836 3.25098ZM17.3184 3.25098C17.1826 3.27799 17.0547 3.33424 16.9443 3.41602L16.8398 3.50586C16.7094 3.63637 16.621 3.80337 16.585 3.98438C16.558 4.12008 16.5614 4.25945 16.5947 4.39258L16.6377 4.52344C16.7083 4.69392 16.828 4.83985 16.9814 4.94238C17.0967 5.01936 17.2273 5.0687 17.3633 5.08887L17.5 5.09961C17.7162 5.09899 17.925 5.02349 18.0908 4.8877L18.1592 4.8252C18.334 4.65037 18.4329 4.41326 18.4336 4.16602L18.4238 4.02832C18.4104 3.93792 18.3828 3.85022 18.3438 3.76758L18.2764 3.64746C18.1738 3.49399 18.0279 3.37436 17.8574 3.30371C17.7296 3.25077 17.5921 3.22677 17.4551 3.2334L17.3184 3.25098Z" fill="#FAFAFA" stroke="#8A9FBA" stroke-width="0.2"/>
</g>
<defs>
<clipPath id="clip0_2846_83">
<rect width="20" height="20" fill="white"/>
</clipPath>
</defs>
</svg>
