<svg width="20" height="20" viewBox="0 0 20 20" fill="none" xmlns="http://www.w3.org/2000/svg">
<path d="M6 9.5H18C18.2652 9.5 18.5196 9.42098 18.7071 9.28033C18.8946 9.13968 19 8.94891 19 8.75C19 8.55109 18.8946 8.36032 18.7071 8.21967C18.5196 8.07902 18.2652 8 18 8H6C5.73478 8 5.48043 8.07902 5.29289 8.21967C5.10536 8.36032 5 8.55109 5 8.75C5 8.94891 5.10536 9.13968 5.29289 9.28033C5.48043 9.42098 5.73478 9.5 6 9.5Z" fill="white"/>
<path d="M6 15.5H18C18.2652 15.5 18.5196 15.421 18.7071 15.2803C18.8946 15.1397 19 14.9489 19 14.75C19 14.5511 18.8946 14.3603 18.7071 14.2197C18.5196 14.079 18.2652 14 18 14H6C5.73478 14 5.48043 14.079 5.29289 14.2197C5.10536 14.3603 5 14.5511 5 14.75C5 14.9489 5.10536 15.1397 5.29289 15.2803C5.48043 15.421 5.73478 15.5 6 15.5Z" fill="white"/>
<path d="M6 12.5H18C18.2652 12.5 18.5196 12.421 18.7071 12.2803C18.8946 12.1397 19 11.9489 19 11.75C19 11.5511 18.8946 11.3603 18.7071 11.2197C18.5196 11.079 18.2652 11 18 11H6C5.73478 11 5.48043 11.079 5.29289 11.2197C5.10536 11.3603 5 11.5511 5 11.75C5 11.9489 5.10536 12.1397 5.29289 12.2803C5.48043 12.421 5.73478 12.5 6 12.5Z" fill="white"/>
<path d="M6 6.5H18C18.2652 6.5 18.5196 6.42098 18.7071 6.28033C18.8946 6.13968 19 5.94891 19 5.75C19 5.55109 18.8946 5.36032 18.7071 5.21967C18.5196 5.07902 18.2652 5 18 5H6C5.73478 5 5.48043 5.07902 5.29289 5.21967C5.10536 5.36032 5 5.55109 5 5.75C5 5.94891 5.10536 6.13968 5.29289 6.28033C5.48043 6.42098 5.73478 6.5 6 6.5Z" fill="white"/>
<path d="M4.13029 4.84244C4.2275 4.93969 4.35497 4.9883 4.48244 4.9883C4.60991 4.9883 4.73737 4.93969 4.83459 4.8424C5.02909 4.6479 5.02909 4.33257 4.83459 4.13807L2.8424 2.14588C2.64793 1.95137 2.33257 1.95137 2.13807 2.14588L0.145878 4.13807C-0.048626 4.33257 -0.048626 4.6479 0.145878 4.8424C0.340349 5.03691 0.655712 5.03691 0.850216 4.8424L1.9922 3.70048V16.9455L0.850216 15.8035C0.655745 15.609 0.340382 15.609 0.145878 15.8035C-0.048626 15.998 -0.048626 16.3133 0.145878 16.5078L2.13807 18.5C2.23532 18.5973 2.36278 18.6459 2.49025 18.6459C2.61772 18.6459 2.74518 18.5973 2.8424 18.5L4.83459 16.5078C5.02909 16.3133 5.02909 15.998 4.83459 15.8035C4.64012 15.609 4.32476 15.609 4.13025 15.8035L2.9883 16.9455V3.70048L4.13029 4.84244Z" fill="white"/>
</svg>
