<svg width="20" height="20" viewBox="0 0 20 20" fill="none" xmlns="http://www.w3.org/2000/svg">
<g clip-path="url(#clip0_1721_20)">
<path fill-rule="evenodd" clip-rule="evenodd" d="M1.03449 0H18.9655C19.5368 0 20 0.463164 20 1.03449V4.48277C20 5.0541 19.5368 5.51727 18.9655 5.51727H1.03449C0.463164 5.51723 0 5.0541 0 4.48277V1.03449C0 0.463164 0.463164 0 1.03449 0Z" fill="#F4F4F4"/>
<path fill-rule="evenodd" clip-rule="evenodd" d="M1.03449 14.4824H18.9655C19.5368 14.4824 20 14.9456 20 15.5169V18.9652C20 19.5365 19.5368 19.9996 18.9655 19.9996H1.03449C0.463164 19.9996 0 19.5365 0 18.9652V15.5169C0 14.9455 0.463164 14.4824 1.03449 14.4824Z" fill="#F4F4F4"/>
<path fill-rule="evenodd" clip-rule="evenodd" d="M10.4456 7.83096C10.581 7.96162 10.796 7.95979 10.929 7.82674C11.0621 7.69369 11.0639 7.47865 10.9333 7.34334L10.2436 6.65369C10.109 6.51908 9.89068 6.51908 9.75603 6.65369L9.06639 7.34334C8.93572 7.47865 8.93756 7.69373 9.07061 7.82674C9.20365 7.95975 9.41869 7.96162 9.554 7.83096L9.65502 7.7299V9.65611H9.31018C9.11975 9.65611 8.96533 9.81049 8.96533 10.001C8.96533 10.1914 9.11971 10.3458 9.31018 10.3458H9.65502V12.272L9.554 12.171C9.41869 12.0403 9.20361 12.0422 9.07061 12.1752C8.9376 12.3082 8.93572 12.5233 9.06639 12.6586L9.75603 13.3483C9.89068 13.4829 10.109 13.4829 10.2436 13.3483L10.9333 12.6586C11.0639 12.5233 11.0621 12.3082 10.929 12.1752C10.796 12.0422 10.581 12.0403 10.4456 12.171L10.3446 12.272V10.3458H10.6895C10.8799 10.3458 11.0343 10.1914 11.0343 10.001C11.0343 9.81049 10.8799 9.65611 10.6895 9.65611H10.3446V7.7299L10.4456 7.83096Z" fill="#F4F4F4"/>
<path fill-rule="evenodd" clip-rule="evenodd" d="M7.93117 9.6543H6.55188C6.36145 9.6543 6.20703 9.80867 6.20703 9.99914C6.20703 10.1896 6.36141 10.344 6.55188 10.344H7.93117C8.1216 10.344 8.27602 10.1896 8.27602 9.99914C8.27602 9.80867 8.12164 9.6543 7.93117 9.6543Z" fill="#F4F4F4"/>
<path fill-rule="evenodd" clip-rule="evenodd" d="M5.17238 9.6543H3.79309C3.60266 9.6543 3.44824 9.80867 3.44824 9.99914C3.44824 10.1896 3.60262 10.344 3.79309 10.344H5.17238C5.36281 10.344 5.51723 10.1896 5.51723 9.99914C5.51723 9.80867 5.36281 9.6543 5.17238 9.6543Z" fill="#F4F4F4"/>
<path fill-rule="evenodd" clip-rule="evenodd" d="M2.41359 9.6543H1.0343C0.843867 9.6543 0.689453 9.80867 0.689453 9.99914C0.689453 10.1896 0.843828 10.344 1.0343 10.344H2.41359C2.60402 10.344 2.75844 10.1896 2.75844 9.99914C2.75844 9.80867 2.60402 9.6543 2.41359 9.6543Z" fill="#F4F4F4"/>
<path fill-rule="evenodd" clip-rule="evenodd" d="M18.9654 9.6543H17.5861C17.3956 9.6543 17.2412 9.80867 17.2412 9.99914C17.2412 10.1896 17.3956 10.344 17.5861 10.344H18.9654C19.1558 10.344 19.3102 10.1896 19.3102 9.99914C19.3102 9.80867 19.1558 9.6543 18.9654 9.6543Z" fill="#F4F4F4"/>
<path fill-rule="evenodd" clip-rule="evenodd" d="M16.2071 9.6543H14.8278C14.6373 9.6543 14.4829 9.80867 14.4829 9.99914C14.4829 10.1896 14.6373 10.344 14.8278 10.344H16.2071C16.3975 10.344 16.5519 10.1896 16.5519 9.99914C16.5519 9.80867 16.3975 9.6543 16.2071 9.6543Z" fill="#F4F4F4"/>
<path fill-rule="evenodd" clip-rule="evenodd" d="M13.4483 9.6543H12.069C11.8785 9.6543 11.7241 9.80867 11.7241 9.99914C11.7241 10.1896 11.8785 10.344 12.069 10.344H13.4483C13.6387 10.344 13.7931 10.1896 13.7931 9.99914C13.7931 9.80867 13.6387 9.6543 13.4483 9.6543Z" fill="#F4F4F4"/>
</g>
<defs>
<clipPath id="clip0_1721_20">
<rect width="20" height="20" fill="white"/>
</clipPath>
</defs>
</svg>
