<svg width="22" height="16" viewBox="0 0 22 16" fill="none" xmlns="http://www.w3.org/2000/svg">
<rect x="7" y="16" width="16" height="15" rx="1.2" transform="rotate(-90 7 16)" fill="#F4F4F4"/>
<rect y="16" width="16" height="2" rx="0.4" transform="rotate(-90 0 16)" fill="#F4F4F4"/>
<path d="M4.5 15.5L4.5 0.400195" stroke="white" stroke-width="0.6" stroke-linecap="round" stroke-dasharray="1 1"/>
<path fill-rule="evenodd" clip-rule="evenodd" d="M3.49988 7.78452C3.55672 7.71912 3.55592 7.61517 3.49804 7.55088C3.44017 7.4866 3.34663 7.48569 3.28776 7.54884L2.98776 7.88217C2.92921 7.94725 2.92921 8.05275 2.98776 8.11783L3.28776 8.45116C3.34663 8.51431 3.44019 8.51342 3.49804 8.44912C3.5559 8.38481 3.55672 8.28088 3.49988 8.21548L3.45592 8.16665L4.40608 8.16665L4.40608 8.33333C4.40608 8.42537 4.47324 8.5 4.55609 8.5C4.63895 8.5 4.59907 8.42539 4.59907 8.33333L4.59907 8.16665L5.6004 8.16665L5.55645 8.21548C5.49961 8.28088 5.50041 8.38483 5.55829 8.44912C5.61615 8.5134 5.70971 8.51431 5.76857 8.45116L6.06857 8.11783C6.12712 8.05275 6.12712 7.94725 6.06857 7.88217L5.76857 7.54884C5.70971 7.48569 5.61615 7.48658 5.55829 7.55088C5.50043 7.61517 5.49961 7.71912 5.55645 7.78452L5.6004 7.83335L4.59907 7.83335L4.59907 7.66667C4.59907 7.57463 4.63895 7.5 4.55609 7.5C4.47324 7.5 4.40608 7.57461 4.40608 7.66667L4.40608 7.83335L3.45592 7.83335L3.49988 7.78452Z" fill="#F4F4F4"/>
</svg>
