<svg width="15" height="20" viewBox="0 0 15 20" fill="none" xmlns="http://www.w3.org/2000/svg">
<rect x="1" y="7" width="14" height="13" rx="1.2" fill="#F4F4F4"/>
<rect x="1" width="14" height="2" rx="0.4" fill="#F4F4F4"/>
<path d="M0.999805 4.5H14.5998" stroke="white" stroke-width="0.4" stroke-linecap="round" stroke-dasharray="1 0.8"/>
<path fill-rule="evenodd" clip-rule="evenodd" d="M8.01528 3.49939C8.08068 3.55623 8.18464 3.55543 8.24892 3.49756C8.31321 3.43968 8.31412 3.34614 8.25096 3.28728L7.91763 2.98728C7.85256 2.92872 7.74705 2.92872 7.68197 2.98728L7.34865 3.28728C7.28549 3.34614 7.28638 3.4397 7.35069 3.49756C7.41499 3.55541 7.51893 3.55623 7.58433 3.49939L7.63315 3.45543V4.40559H7.46648C7.37444 4.40559 7.2998 4.47275 7.2998 4.5556C7.2998 4.63846 7.37442 4.59858 7.46648 4.59858H7.63315V5.59991L7.58433 5.55597C7.51893 5.49913 7.41497 5.49993 7.35069 5.5578C7.2864 5.61566 7.28549 5.70922 7.34865 5.76808L7.68197 6.06808C7.74705 6.12664 7.85256 6.12664 7.91763 6.06808L8.25096 5.76808C8.31412 5.70922 8.31323 5.61566 8.24892 5.5578C8.18464 5.49994 8.08068 5.49913 8.01528 5.55597L7.96646 5.59991V4.59858H8.13313C8.22517 4.59858 8.2998 4.63846 8.2998 4.5556C8.2998 4.47275 8.22519 4.40559 8.13313 4.40559H7.96646V3.45543L8.01528 3.49939Z" fill="#F4F4F4"/>
</svg>
