<svg width="15" height="20" viewBox="0 0 15 20" fill="none" xmlns="http://www.w3.org/2000/svg">
<rect x="14" y="13" width="14" height="13" rx="1.2" transform="rotate(-180 14 13)" fill="#F4F4F4"/>
<rect x="14" y="20" width="14" height="2" rx="0.4" transform="rotate(-180 14 20)" fill="#F4F4F4"/>
<path d="M14.0002 15.5L0.400195 15.5" stroke="white" stroke-width="0.4" stroke-linecap="round" stroke-dasharray="1 0.8"/>
<path fill-rule="evenodd" clip-rule="evenodd" d="M6.98472 16.5006C6.91932 16.4438 6.81536 16.4446 6.75108 16.5024C6.68679 16.5603 6.68588 16.6539 6.74904 16.7127L7.08237 17.0127C7.14744 17.0713 7.25295 17.0713 7.31803 17.0127L7.65135 16.7127C7.71451 16.6539 7.71362 16.5603 7.64931 16.5024C7.58501 16.4446 7.48107 16.4438 7.41567 16.5006L7.36685 16.5446L7.36685 15.5944L7.53352 15.5944C7.62556 15.5944 7.7002 15.5273 7.7002 15.4444C7.7002 15.3615 7.62558 15.4014 7.53352 15.4014L7.36685 15.4014L7.36685 14.4001L7.41567 14.444C7.48107 14.5009 7.58503 14.5001 7.64931 14.4422C7.7136 14.3843 7.71451 14.2908 7.65135 14.2319L7.31803 13.9319C7.25295 13.8734 7.14744 13.8734 7.08237 13.9319L6.74904 14.2319C6.68588 14.2908 6.68677 14.3843 6.75108 14.4422C6.81536 14.5001 6.91932 14.5009 6.98472 14.444L7.03354 14.4001L7.03354 15.4014L6.86687 15.4014C6.77483 15.4014 6.7002 15.3615 6.7002 15.4444C6.7002 15.5273 6.77481 15.5944 6.86687 15.5944L7.03354 15.5944L7.03354 16.5446L6.98472 16.5006Z" fill="#F4F4F4"/>
</svg>
