<svg width="19" height="19" viewBox="0 0 19 19" fill="none" xmlns="http://www.w3.org/2000/svg">
<path d="M15.2 7.6V5.7H17.1V7.6H15.2ZM15.2 9.5V7.6H13.3V9.5H15.2ZM15.2 5.7V3.8H13.3V5.7H15.2ZM13.3 0.798V1.9H15.2C14.6015 1.463 13.9745 1.0925 13.3 0.798ZM15.2 1.9V3.8H17.1C16.549 3.0875 15.9125 2.451 15.2 1.9ZM17.1 3.8V5.7H18.202C17.9075 5.0255 17.537 4.3985 17.1 3.8ZM19 9.5C19 8.854 18.9335 8.2175 18.81 7.6H17.1V9.5H19ZM13.3 3.8V1.9H11.4V3.8H13.3ZM13.3 13.3H15.2V11.4H13.3V13.3ZM15.2 15.2H17.1V13.3H15.2V15.2ZM13.3 17.1H15.2V15.2H13.3V17.1ZM11.4 18.81C12.065 18.677 12.692 18.468 13.3 18.202V17.1H11.4V18.81ZM15.2 11.4H17.1V9.5H15.2V11.4ZM13.3 5.7H11.4V7.6H13.3V5.7ZM17.1 13.3H18.202C18.468 12.692 18.677 12.065 18.81 11.4H17.1V13.3ZM13.3 9.5H11.4V11.4H13.3V9.5ZM9.5 15.2V13.3H11.4V11.4H9.5V9.5H11.4V7.6H9.5V5.7H11.4V3.8H9.5V1.9H11.4V0.19C10.7825 0.0665 10.1555 0 9.5 0C4.275 0 0 4.275 0 9.5C0 14.725 4.275 19 9.5 19V17.1H11.4V15.2H9.5ZM11.4 15.2H13.3V13.3H11.4V15.2Z" fill="white"/>
</svg>
