<svg width="22" height="21" viewBox="0 0 22 21" fill="none" xmlns="http://www.w3.org/2000/svg">
<path d="M17.1969 0.986327L9.58181 0.986328L4.82239 0.986328C3.81292 0.987463 2.22867 1.27215 1.51486 1.98633C0.801054 2.70051 1.01599 3.78585 1.01486 4.79585L1.01486 17.1768C1.01599 18.1868 1.25294 19.3198 1.96674 20.0339C2.68055 20.7481 3.81292 20.9852 4.82239 20.9863L17.1969 20.9863C18.2064 20.9852 19.1742 20.5835 19.888 19.8693C20.6018 19.1551 21.0033 18.1868 21.0044 17.1768L21.0044 11.4625L21.0044 4.79585C21.0044 7.4121 20.2906 5.51003 21.0044 4.79585C21.0033 5.80585 21.0056 3.74272 21.0044 4.79585L21.0044 11.4625C21.0044 11.4625 21.0044 9.77444 21.0044 8.48633L21.0044 4.79585C20.2013 4.69169 19.888 2.10336 19.888 2.10336C19.888 2.10336 18.4647 0.987752 17.1969 0.986327ZM15.572 1.93871L20.0525 6.42157L20.0525 9.38347L12.6117 1.93871L15.572 1.93871ZM16.918 1.93871L17.1969 1.93871C17.954 1.93947 18.6799 2.24073 19.2153 2.77638C19.7507 3.31204 20.0518 4.03832 20.0525 4.79585L20.0525 5.0749L16.918 1.93871ZM11.2657 1.93871L20.0525 10.7301L20.0525 11.4625L17.145 11.4625L10.5337 4.84776L10.5337 1.93871L11.2657 1.93871ZM9.59657 8.89919L10.5337 6.1949L15.7986 11.4625L13.0966 12.4011C12.6159 11.8345 11.9063 11.1605 11.3709 10.6248C10.8356 10.0892 10.385 9.6024 9.59657 8.89919ZM10.5337 4.84776L7.62617 1.93871L10.5337 1.93871L10.5337 4.84776ZM6.27973 1.93871L9.58181 5.24252L10.5337 6.1949C10.5337 6.29395 9.58943 8.80204 9.59657 8.89919L3.01465 1.98633C3.496 1.64092 4.23004 1.93921 4.82239 1.93871L6.27973 1.93871ZM6.44726 20.0339L1.96674 15.5511L1.96674 12.5892L9.40762 20.0339L6.44726 20.0339ZM10.7536 20.0339L1.96674 11.2425L1.96674 7.60109L14.3931 20.0339L10.7536 20.0339ZM1.96674 17.1768L1.96674 16.8978L5.1013 20.0339L4.82239 20.0339C4.06526 20.0332 2.55024 20.522 2.01486 19.9863C1.47949 19.4507 1.9675 17.9343 1.96674 17.1768ZM15.7395 20.0339L1.96674 6.25395L1.96674 4.79585C1.96677 4.20297 1.66957 3.46831 2.01465 2.98633L18.8489 19.503C18.3671 19.8482 17.7895 20.0339 17.1969 20.0339L15.7395 20.0339ZM19.5219 18.8297L13.0966 12.4011C13.1918 12.4082 15.6996 11.4625 15.7986 11.4625L16.7514 12.4159L20.0525 15.7187L20.0525 17.1768C20.0525 17.7697 19.8669 18.3477 19.5219 18.8297ZM20.0525 14.3716L17.145 11.4625L20.0525 11.4625L20.0525 14.3716ZM21.0044 8.48633C21.0044 9.82562 21.0044 11.4625 21.0044 11.4625L21.0044 4.79585C21.0037 5.55338 21.0044 4.85592 21.0044 4.79585C20.469 5.3315 21.0937 4.24526 21.0044 4.79585C21.0937 4.02204 20.6018 2.81754 19.888 2.10336C19.1742 1.38919 18.2064 0.987462 17.1969 0.986327C18.0196 0.987252 19.888 2.10336 19.888 2.10336C19.888 2.10336 20.2473 4.79661 21.0044 4.79585L21.0044 8.48633Z" fill="#F1F1F1"/>
<rect x="1.51465" y="20.4863" width="19" height="19" rx="1.5" transform="rotate(-90 1.51465 20.4863)" fill="#F4F4F4" fill-opacity="0.4" stroke="#F4F4F4"/>
<rect x="7.11465" y="19.8863" width="17.8" height="12.8" rx="1.1" transform="rotate(-90 7.11465 19.8863)" fill="#FAFAFA" stroke="#B4C1D1" stroke-width="0.2"/>
</svg>
