<svg width="14" height="20" viewBox="0 0 14 20" fill="none" xmlns="http://www.w3.org/2000/svg">
<path d="M14 10.0281V13.775C14 17.2125 11.3034 20 7.97796 20C7.00453 20 6.06132 19.7562 5.21787 19.3094C4.37745 18.8625 3.63679 18.2063 3.07147 17.3875L0.253932 13.3C0.0846378 13.0562 0 12.7687 0 12.4781C0 12.0938 0.151155 11.7094 0.441361 11.425C0.976457 10.9125 1.8199 10.925 2.34291 11.4531L3.59748 12.725V3.73438C3.59748 3.35937 3.74259 3.02813 3.97537 2.78437C4.23235 2.52498 4.58302 2.37186 4.97905 2.39687C5.67738 2.44062 6.19737 3.0875 6.19737 3.80937L6.19434 10.2812C6.19434 10.4375 6.3213 10.5625 6.46943 10.5625C6.62059 10.5625 6.74152 10.4375 6.74152 10.2812V7.48749C6.98942 7.29999 7.29776 7.19687 7.63334 7.23436C8.31354 7.30625 8.80025 7.95313 8.80025 8.66249V10.9687C8.80025 11.125 8.92117 11.25 9.07232 11.25C9.22047 11.25 9.34441 11.125 9.34441 10.9687V8.16875C9.58928 7.9875 9.89764 7.89062 10.2271 7.92187C10.9073 7.98437 11.4001 8.63125 11.4001 9.3375V11.6625C11.4001 11.8187 11.521 11.9437 11.6722 11.9437C11.8203 11.9437 11.9443 11.8187 11.9443 11.6625V8.85624C12.1891 8.675 12.4975 8.57813 12.827 8.60937C13.5072 8.67188 14 9.31875 14 10.0281ZM2.80543 3.74374C2.80543 3.89999 2.6845 4.025 2.53335 4.025H1.62944C1.47829 4.025 1.35737 3.89999 1.35737 3.74374C1.35737 3.58749 1.47829 3.46249 1.62944 3.46249H2.53335C2.6845 3.46249 2.80543 3.58749 2.80543 3.74374ZM8.60072 3.74374C8.60072 3.89999 8.47678 4.025 8.32563 4.025H7.42475C7.27359 4.025 7.14963 3.89999 7.14963 3.74374C7.14963 3.58749 7.27359 3.46249 7.42475 3.46249H8.32563C8.47678 3.46249 8.60072 3.58749 8.60072 3.74374ZM7.53962 1.49374L6.89871 2.15624C6.84732 2.20938 6.7778 2.23749 6.70827 2.23749C6.63873 2.23749 6.5692 2.20938 6.51479 2.15624C6.40897 2.04374 6.40897 1.86562 6.51479 1.75625L7.15266 1.09688C7.26149 0.987491 7.43381 0.987491 7.53963 1.09688C7.64543 1.20625 7.64543 1.38437 7.53962 1.49374ZM5.25113 0.281237V1.21563C5.25113 1.37188 5.1302 1.49687 4.97905 1.49687C4.82789 1.49687 4.70696 1.37188 4.70696 1.21563V0.281237C4.70696 0.124987 4.82789 0 4.97905 0C5.1302 0 5.25113 0.124987 5.25113 0.281237ZM3.4433 2.15624C3.38889 2.20937 3.31936 2.23749 3.24984 2.23749C3.18029 2.23749 3.11077 2.20937 3.05636 2.15624L2.41848 1.49374C2.31266 1.38437 2.31266 1.20624 2.41848 1.09687C2.52429 0.987487 2.6966 0.987487 2.80241 1.09687L3.4433 1.75625C3.54912 1.86562 3.54912 2.04374 3.4433 2.15624Z" fill="white"/>
</svg>
