<svg width="15" height="21" viewBox="0 0 15 21" fill="none" xmlns="http://www.w3.org/2000/svg">
<path d="M5.81046 2.34013C5.68366 2.57523 5.7627 2.87222 5.9878 3.00452C6.21384 3.13731 6.50097 3.05498 6.62916 2.82082C7.22965 1.72285 7.9684 1.08591 8.70947 1.08591C9.99728 1.08591 11.2143 2.91979 11.7385 5.60122C11.7904 5.86536 12.0385 6.03574 12.2931 5.98242C12.5501 5.9282 12.7127 5.66769 12.6611 5.40796C12.0358 2.2102 10.4847 0.111196 8.70947 0.111196C7.61465 0.111196 6.58506 0.923746 5.81046 2.34013Z" fill="white"/>
<path d="M12.7591 10.8673H14.355C14.5287 10.8673 14.6881 10.7683 14.7699 10.6098C14.8508 10.4535 14.8437 10.2607 14.7465 10.1096L12.8646 7.18546C12.7773 7.04981 12.6303 6.96842 12.4732 6.96842C12.3161 6.96842 12.1691 7.04981 12.0818 7.18546L10.1999 10.1096C10.1044 10.2595 10.0943 10.4523 10.1765 10.6098C10.2582 10.7683 10.4177 10.8673 10.5913 10.8673H11.7963C11.3251 13.7168 10.0734 15.7733 8.70948 15.7733C7.96841 15.7733 7.22963 15.1364 6.62917 14.0385C6.50098 13.8043 6.21384 13.722 5.9878 13.8548C5.76267 13.9871 5.68366 14.2836 5.81047 14.5191C6.58507 15.9355 7.61466 16.748 8.70948 16.748C10.6261 16.748 12.2243 14.3816 12.7591 10.8673Z" fill="white"/>
<path d="M8.28719 5.64437L4.60583 3.86796C4.46873 3.80182 4.30691 3.80182 4.16981 3.86796L0.488281 5.64446L4.38782 7.52595L8.28719 5.64437Z" fill="white"/>
<path d="M8.77486 10.8682V6.45508L4.87549 8.33666C4.87549 8.43325 4.87549 13.1372 4.87549 13.0406L8.50545 11.2891C8.67062 11.2091 8.77486 11.0465 8.77486 10.8682Z" fill="white"/>
<path d="M0 10.8681C0 11.0463 0.104243 11.2089 0.269414 11.2889L3.89937 13.0405C3.89937 12.7103 3.89937 8.23986 3.89937 8.33651L0 6.45508L0 10.8681Z" fill="white"/>
<path d="M7.36193 19.3085V20.1093H7.08984V19.3085L6.35352 18.0996H6.59195C6.61626 18.0996 6.63542 18.1057 6.64945 18.1178C6.66347 18.1291 6.67563 18.144 6.68591 18.1627L7.14594 18.9439C7.16277 18.9766 7.1782 19.0075 7.19223 19.0365C7.20625 19.0645 7.21841 19.093 7.22869 19.122C7.23898 19.093 7.25067 19.0645 7.26376 19.0365C7.27685 19.0075 7.29134 18.9766 7.30723 18.9439L7.76586 18.1627C7.77428 18.1468 7.78596 18.1323 7.80092 18.1192C7.81588 18.1062 7.83505 18.0996 7.85843 18.0996H8.09826L7.36193 19.3085Z" fill="white" stroke="white" stroke-width="0.1"/>
</svg>
