<svg width="20" height="20" viewBox="0 0 20 20" fill="none" xmlns="http://www.w3.org/2000/svg">
<path d="M19.3919 0H3.60809C3.27223 0 3 0.272233 3 0.608091V11.1865H7.95342C12.8788 6.26093 11.8268 7.31292 13.2374 5.90279H10.4667C10.1391 5.90279 9.85729 5.65078 9.84219 5.32358C9.82621 4.97438 10.104 4.68661 10.4497 4.68661H14.7053C15.0642 4.68661 15.3134 4.98303 15.3134 5.2947V9.53315C15.3134 9.86051 15.0621 10.1421 14.7352 10.1578C14.386 10.1744 14.0974 9.89628 14.0974 9.55045V6.76259C12.6871 8.17316 13.7394 7.12087 8.81366 12.0466V17H19.3919C19.7278 17 20 16.7278 20 16.3919V0.608091C20 0.272233 19.7278 0 19.3919 0Z" fill="white"/>
<path d="M3.25612 16.7439C2.97758 16.465 2.97758 16.0126 3.25612 15.7337L6.9898 12C6.85018 12 0.810846 12 0.714095 12C0.31969 12 0 12.3199 0 12.7141V19.2859C0 19.6803 0.31969 20 0.714095 20H7.2859C7.68031 20 8 19.6803 8 19.2859C8 19.1384 8 13.209 8 13.0102L4.26632 16.7439C3.98778 17.0224 3.53501 17.0228 3.25612 16.7439Z" fill="white"/>
</svg>
