<svg width="20" height="20" viewBox="0 0 20 20" fill="none" xmlns="http://www.w3.org/2000/svg">
<path d="M20.0001 4.48717V3.83203H17.1831V4.48717H18.264V15.5117H17.1831V16.1668H20.0001V15.5117H18.9192V4.48717H20.0001Z" fill="#E5E5E5"/>
<path d="M0.121549 13.5003L3.41859 6.05479C3.64846 5.54137 4.0672 5.23047 4.6349 5.23047H4.75651C5.32385 5.23047 5.72936 5.54131 5.959 6.05479L9.25616 13.5003C9.32372 13.649 9.36435 13.784 9.36435 13.9192C9.36435 14.4732 8.93191 14.9191 8.37785 14.9191C7.89142 14.9191 7.56706 14.6354 7.37794 14.2029L6.74292 12.7166H2.58098L1.91884 14.2706C1.74314 14.6759 1.3919 14.9191 0.959451 14.9191C0.418746 14.9191 0 14.4867 0 13.9462C0 13.7976 0.0539824 13.649 0.121549 13.5003ZM5.97264 10.8789L4.66183 7.75741L3.35114 10.8789H5.97264Z" fill="#F1F1F1"/>
<path d="M10.3501 12.7566V12.7296C10.3501 11.1486 11.5528 10.4189 13.2689 10.4189C13.9986 10.4189 14.5257 10.5405 15.0392 10.7162V10.5946C15.0392 9.74324 14.5121 9.27039 13.4851 9.27039C12.9176 9.27039 12.4582 9.35143 12.0663 9.47309C11.9448 9.51361 11.8636 9.52707 11.7689 9.52707C11.2961 9.52707 10.9177 9.16225 10.9177 8.68935C10.9177 8.32447 11.1474 8.01369 11.4716 7.89202C12.1202 7.6488 12.823 7.51367 13.7824 7.51367C14.9038 7.51367 15.7147 7.81093 16.2282 8.32441C16.7687 8.86488 17.0119 9.66221 17.0119 10.6351V13.9322C17.0119 14.4863 16.566 14.9186 16.012 14.9186C15.4174 14.9186 15.0256 14.4997 15.0256 14.0673V14.0538C14.5256 14.6078 13.8363 14.9726 12.8365 14.9726C11.4716 14.9727 10.3501 14.1891 10.3501 12.7566ZM15.066 12.2836V11.9188C14.7147 11.7567 14.2553 11.6486 13.7553 11.6486C12.8769 11.6486 12.3365 11.9999 12.3365 12.6485V12.6755C12.3365 13.2296 12.7959 13.5538 13.458 13.5538C14.4174 13.5539 15.066 13.0269 15.066 12.2836Z" fill="#F1F1F1"/>
</svg>
