<svg width="20" height="20" viewBox="0 0 20 20" fill="none" xmlns="http://www.w3.org/2000/svg">
<path fill-rule="evenodd" clip-rule="evenodd" d="M9.9996 2.25C10.3594 2.24999 10.6855 2.44107 10.8311 2.73732L15.9221 13.1008C16.1252 13.5141 15.9175 13.9971 15.4583 14.1799C14.9991 14.3626 14.4623 14.1757 14.2593 13.7625L12.623 10.4317H7.37672L5.74072 13.7624C5.53772 14.1757 5.00092 14.3626 4.54172 14.18C4.08254 13.9973 3.87485 13.5141 4.07785 13.1009L9.16819 2.73736C9.31371 2.4411 9.63971 2.25001 9.9996 2.25ZM9.99969 5.09157L11.8191 8.79534H8.18046L9.99969 5.09157Z" fill="white"/>
<path d="M4.20397 16.25C3.81518 16.25 3.5 16.5858 3.5 17C3.5 17.4142 3.81518 17.75 4.20397 17.75H15.796C16.1848 17.75 16.5 17.4142 16.5 17C16.5 16.5858 16.1848 16.25 15.796 16.25H4.20397Z" fill="white"/>
</svg>
