<svg width="20" height="20" viewBox="0 0 20 20" fill="none" xmlns="http://www.w3.org/2000/svg">
<path d="M7.40474 19.3316C7.38264 19.3143 7.36264 19.2932 7.34473 19.2695C7.36264 19.2932 7.38264 19.3137 7.40474 19.3316Z" fill="white"/>
<path d="M16.1516 1.7433C16.1511 1.5117 16.0673 1.35063 15.9326 1.27799C15.9363 1.27957 15.9395 1.28115 15.9426 1.28325L14.8293 0.636347C14.6988 0.56055 14.5183 0.571078 14.3188 0.686352L4.55466 6.32374C4.15883 6.55219 3.83828 7.10698 3.83985 7.56228L3.84669 10.1167C3.84774 10.3431 3.92721 10.502 4.05618 10.5768L5.16893 11.2237C5.16628 11.2221 5.16417 11.2205 5.16155 11.219C5.29263 11.3 5.47632 11.2911 5.67949 11.1737L6.38325 10.7673C6.77962 10.5389 7.09965 9.9841 7.09857 9.5288C7.097 9.07296 7.41704 8.51922 7.81392 8.29025L8.23764 8.04549L8.2545 13.9845C8.25607 14.4398 7.93603 14.9941 7.53969 15.223L6.8396 15.6268C6.44326 15.8557 6.12322 16.4105 6.12428 16.8658L6.12849 18.256C6.12901 18.4823 6.20902 18.6413 6.33745 18.716L7.43757 19.355C7.56917 19.4392 7.75496 19.4319 7.96129 19.3129L12.8818 16.4721C13.2781 16.2431 13.5982 15.6889 13.5971 15.2336L13.5929 13.8434C13.5924 13.6113 13.5087 13.4502 13.3739 13.3776C13.3776 13.3792 13.3808 13.3807 13.3839 13.3829L12.2707 12.7365C12.1401 12.6607 11.9596 12.6712 11.7601 12.786L11.4485 12.966L11.4316 7.02697C11.4306 6.57114 11.7506 6.01687 12.147 5.78843L13.0044 5.29312C13.0292 5.32102 13.0571 5.34418 13.0886 5.36207L14.2014 6.00898C14.1987 6.0074 14.1966 6.00582 14.194 6.00424C14.3251 6.08477 14.5088 6.07635 14.712 5.95897L15.4436 5.5363C15.84 5.30786 16.16 4.75306 16.1589 4.29776L16.1516 1.7433ZM7.34492 19.2687C7.36283 19.2924 7.38283 19.3129 7.40493 19.3308C7.38283 19.3134 7.36283 19.2924 7.34492 19.2687Z" fill="white"/>
<path d="M7.40474 19.3316C7.38264 19.3143 7.36264 19.2932 7.34473 19.2695C7.36264 19.2932 7.38264 19.3137 7.40474 19.3316Z" fill="white"/>
<path d="M11.5 12.5281L10.7966 12.9342C10.5973 13.0493 10.4166 13.06 10.2861 12.9842L11.6595 13.8904C11.79 13.9663 11.9706 13.9556 12.17 13.8405L12.8734 13.4344C13.0728 13.3193 13.2535 13.3086 13.3839 13.3844L12.0106 12.4781C11.8801 12.4023 11.6994 12.413 11.5 12.5281Z" fill="#CFCACA"/>
<path d="M13.9921 5.55041C13.9915 5.32409 13.9116 5.16496 13.7829 5.09013L12.6699 4.44336C12.7987 4.51818 12.8785 4.67731 12.8792 4.90364C12.8798 5.12982 12.9597 5.28898 13.0885 5.36383L14.2014 6.0106C14.0726 5.93575 13.9928 5.77659 13.9921 5.55041Z" fill="#CFCACA"/>
<path d="M14.5105 0.448823C14.38 0.373 14.1994 0.383676 14 0.498796L3.71517 6.32452C3.31896 6.55328 2.99872 7.10795 3 7.56324L3.00725 10.1178C3.00789 10.344 3.08777 10.5031 3.21656 10.578L5.16937 11.2247C5.04058 11.1499 4.9607 10.9907 4.96006 10.7645L4.95281 8.21002C4.95153 7.75473 5.27177 7.20005 5.66798 6.9713L15.4321 1.334C15.6315 1.21888 15.8121 1.2082 15.9426 1.28403L14.5105 0.448823Z" fill="#CFCACA"/>
<path d="M9.14017 7.77065L7.40294 7.12305C7.53171 7.19787 7.61153 7.357 7.6122 7.58333L7.63035 13.9852C7.63163 14.4405 7.31139 14.9952 6.91518 15.2239L6.21548 15.6279C5.81893 15.8568 5.49869 16.4115 5.5 16.8668L5.50393 18.257C5.50457 18.4831 5.5844 18.6423 5.71319 18.7171L7.45042 19.3647C7.32163 19.2899 7.24178 19.1307 7.24116 18.9046L7.2372 17.5144C7.23592 17.0591 7.55616 16.5044 7.95271 16.2755L8.65241 15.8715C9.04862 15.6428 9.36884 15.0881 9.36755 14.6328L9.34941 8.23093C9.34876 8.0046 9.26893 7.84547 9.14017 7.77065Z" fill="#CFCACA"/>
<path d="M15.4324 1.33473C15.8286 1.10597 16.151 1.28965 16.1522 1.74494L16.1595 4.29944C16.1608 4.75473 15.8405 5.3094 15.4443 5.53816L14.7127 5.96056C14.3165 6.18931 13.9942 6.00563 13.9929 5.55034C13.9916 5.09466 13.6692 4.91136 13.273 5.14013L12.1475 5.78994C11.7513 6.01869 11.4311 6.57297 11.4323 7.02865L11.4505 13.4305C11.4518 13.8858 11.7741 14.0695 12.1703 13.8407L12.8737 13.4346C13.27 13.2059 13.5923 13.3896 13.5936 13.8449L13.5975 15.2351C13.5988 15.6904 13.2786 16.245 12.8824 16.4738L7.96199 19.3146C7.56543 19.5435 7.2431 19.3598 7.24181 18.9045L7.23787 17.5143C7.23658 17.059 7.55681 16.5044 7.95337 16.2754L8.65306 15.8714C9.04928 15.6427 9.36951 15.088 9.36822 14.6327L9.35007 8.23085C9.34878 7.77518 9.02645 7.59188 8.63023 7.82064L7.81426 8.29174C7.4177 8.5207 7.09781 9.07478 7.0991 9.53045C7.10039 9.98574 6.78016 10.5404 6.38394 10.7692L5.68021 11.1755C5.28399 11.4042 4.96166 11.2205 4.96037 10.7652L4.95313 8.21075C4.95184 7.75546 5.27207 7.20079 5.66829 6.97204L15.4324 1.33473Z" fill="white"/>
</svg>
