<svg width="20" height="20" viewBox="0 0 20 20" fill="none" xmlns="http://www.w3.org/2000/svg">
<path d="M15.4844 19H4.51562C2.57711 19 1 17.4229 1 15.4844V4.51562C1 2.57711 2.57711 1 4.51562 1H15.4844C17.4229 1 19 2.57711 19 4.51562V15.4844C19 17.4229 17.4229 19 15.4844 19ZM4.51562 2.40625C3.35252 2.40625 2.40625 3.35252 2.40625 4.51562V15.4844C2.40625 16.6475 3.35252 17.5938 4.51562 17.5938H15.4844C16.6475 17.5938 17.5938 16.6475 17.5938 15.4844V4.51562C17.5938 3.35252 16.6475 2.40625 15.4844 2.40625H4.51562Z" fill="white"/>
<path d="M15.4375 7.75H12.625C12.2367 7.75 11.9219 7.43521 11.9219 7.04688C11.9219 6.65854 12.2367 6.34375 12.625 6.34375H15.4375C15.8258 6.34375 16.1406 6.65854 16.1406 7.04688C16.1406 7.43521 15.8258 7.75 15.4375 7.75Z" fill="white"/>
<path d="M15.4375 10.5625H12.625C12.2367 10.5625 11.9219 10.2477 11.9219 9.85938C11.9219 9.47104 12.2367 9.15625 12.625 9.15625H15.4375C15.8258 9.15625 16.1406 9.47104 16.1406 9.85938C16.1406 10.2477 15.8258 10.5625 15.4375 10.5625Z" fill="white"/>
<path d="M15.4844 13.375H4.51562C4.12729 13.375 3.8125 13.0602 3.8125 12.6719C3.8125 12.2835 4.12729 11.9688 4.51562 11.9688H15.4844C15.8727 11.9688 16.1875 12.2835 16.1875 12.6719C16.1875 13.0602 15.8727 13.375 15.4844 13.375Z" fill="white"/>
<path d="M15.4844 16.1875H4.51562C4.12729 16.1875 3.8125 15.8727 3.8125 15.4844C3.8125 15.096 4.12729 14.7812 4.51562 14.7812H15.4844C15.8727 14.7812 16.1875 15.096 16.1875 15.4844C16.1875 15.8727 15.8727 16.1875 15.4844 16.1875Z" fill="white"/>
<path d="M10 5.18125V4.50625C10 4.37198 9.94814 4.24322 9.85584 4.14828C9.76354 4.05334 9.63835 4 9.50781 4H5.24219C5.11165 4 4.98646 4.05334 4.89416 4.14828C4.80186 4.24322 4.75 4.37198 4.75 4.50625V5.18125C4.75 5.31552 4.80186 5.44428 4.89416 5.53922C4.98646 5.63416 5.11165 5.6875 5.24219 5.6875C5.37272 5.6875 5.49791 5.63416 5.59022 5.53922C5.68252 5.44428 5.73438 5.31552 5.73438 5.18125V5.0125H6.88281V9.7375H6.71875C6.58821 9.7375 6.46302 9.79084 6.37072 9.88578C6.27842 9.98072 6.22656 10.1095 6.22656 10.2438C6.22656 10.378 6.27842 10.5068 6.37072 10.6017C6.46302 10.6967 6.58821 10.75 6.71875 10.75H8.03125C8.16179 10.75 8.28698 10.6967 8.37928 10.6017C8.47158 10.5068 8.52344 10.378 8.52344 10.2438C8.52344 10.1095 8.47158 9.98072 8.37928 9.88578C8.28698 9.79084 8.16179 9.7375 8.03125 9.7375H7.86719V5.0125H9.01562V5.18125C9.01562 5.31552 9.06748 5.44428 9.15978 5.53922C9.25209 5.63416 9.37728 5.6875 9.50781 5.6875C9.63835 5.6875 9.76354 5.63416 9.85584 5.53922C9.94814 5.44428 10 5.31552 10 5.18125Z" fill="white"/>
</svg>
