<svg width="21" height="21" viewBox="0 0 21 21" fill="none" xmlns="http://www.w3.org/2000/svg">
<rect x="0.3" y="20.7" width="19.4" height="19.4" rx="0.7" transform="rotate(-90 0.3 20.7)" stroke="#F4F4F4" stroke-width="0.6" stroke-dasharray="1.6 1"/>
<path d="M1 21C0.447715 21 5.33895e-09 20.5523 1.19249e-08 20L2.26573e-07 2C2.33159e-07 1.44772 0.447716 1 1 1L4 1C12.8366 1 20 8.16344 20 17L20 20C20 20.5523 19.5523 21 19 21L1 21Z" fill="#F4F4F4"/>
<rect x="17.8" y="3.2" width="2.4" height="2.4" rx="1.2" transform="rotate(-90 17.8 3.2)" fill="#F4F4F4" stroke="#8A9FBA" stroke-width="0.4"/>
<path d="M11.1864 11.3173C11.188 11.4241 11.2316 11.526 11.3077 11.6009C11.3838 11.6758 11.4864 11.7178 11.5932 11.7178C11.7001 11.7178 11.8026 11.6758 11.8787 11.6009C11.9548 11.5259 11.9984 11.4241 12 11.3173L12 9.40655C11.9996 9.29884 11.9566 9.19564 11.8804 9.11948C11.8042 9.04332 11.701 9.00037 11.5932 9L9.68135 9C9.57486 9.00211 9.47345 9.04587 9.39889 9.12189C9.32432 9.19791 9.28256 9.30012 9.28256 9.40657C9.28257 9.51302 9.32434 9.61522 9.39891 9.69123C9.47348 9.76724 9.5749 9.811 9.68139 9.8131L10.6088 9.8131L4.12073 16.3016C3.74985 16.6714 4.31732 17.2587 4.69431 16.8748L11.1865 10.3904L11.1864 11.3173Z" fill="#8A9FBA"/>
</svg>
