<svg width="16" height="20" viewBox="0 0 16 20" fill="none" xmlns="http://www.w3.org/2000/svg">
<path fill-rule="evenodd" clip-rule="evenodd" d="M16 3.54329V19.7917C16 19.8469 15.9778 19.8999 15.9382 19.939C15.8986 19.978 15.8449 20 15.789 20H0.211035C0.0944593 20 0 19.9067 0 19.7917V0.208333C0 0.153083 0.0222008 0.100083 0.0617909 0.061C0.101381 0.0219584 0.155069 0 0.211035 0H12.4096V3.25163C12.4096 3.41271 12.5419 3.54329 12.705 3.54329H16ZM6.12002 13.1271C6.13031 13.1185 6.14015 13.109 6.14939 13.0988L6.15222 13.0956C6.15707 13.0903 6.16184 13.085 6.16653 13.0797L8.00802 11.0388L9.79008 12.9983C10.0028 13.2322 10.3061 13.3658 10.6245 13.3658H11.115C11.2781 13.3658 11.4105 13.2351 11.4105 13.0742C11.4105 12.9132 11.2781 12.7825 11.115 12.7825H10.6245C10.4739 12.7825 10.3304 12.7193 10.2298 12.6087L8.4035 10.6005L10.0563 8.76871C10.2065 8.84163 10.399 8.88542 10.6087 8.88542C11.0884 8.88542 11.4779 8.65617 11.4779 8.37379C11.4779 8.09142 11.0884 7.86217 10.6087 7.86217C10.3004 7.86217 10.0294 7.95683 9.87509 8.09942C9.86141 8.11 9.8485 8.12192 9.83655 8.13517L8.00625 10.1637L6.24334 8.22525C6.03066 7.99138 5.72728 7.85779 5.40891 7.85779H4.91842C4.75534 7.85779 4.62298 7.98846 4.62298 8.14946C4.62298 8.31042 4.75534 8.44113 4.91842 8.44113H5.40891C5.55951 8.44113 5.70301 8.50433 5.80363 8.61496L7.61077 10.602L5.9414 12.4522C5.79152 12.38 5.59994 12.3366 5.39131 12.3366C4.91163 12.3366 4.52214 12.5659 4.52214 12.8483C4.52214 13.1306 4.91163 13.3599 5.39131 13.3599C5.69634 13.3599 5.96486 13.2672 6.12002 13.1271ZM3.82965 6.41125H3.43721C2.91203 6.41125 2.48629 6.83154 2.48629 7.35V9.76742C2.48629 9.90462 2.42386 10.0346 2.31628 10.1215L1.92244 10.4396C1.85424 10.4947 1.81452 10.5769 1.8141 10.6639C1.81364 10.7509 1.85255 10.8335 1.92021 10.8893L2.31982 11.2185C2.4253 11.3055 2.48629 11.4341 2.48629 11.5698V13.872C2.48629 14.3905 2.91203 14.8108 3.43721 14.8108H3.82965C3.9927 14.8108 4.1251 14.6801 4.1251 14.5191C4.1251 14.3582 3.9927 14.2275 3.82965 14.2275H3.43721C3.23837 14.2275 3.07719 14.0683 3.07719 13.872V11.5698C3.07719 11.2612 2.93845 10.9685 2.69851 10.7708L2.57332 10.6676L2.6904 10.573C2.9352 10.3753 3.07719 10.0796 3.07719 9.76742V7.35C3.07719 7.15371 3.23837 6.99458 3.43721 6.99458H3.82965C3.9927 6.99458 4.1251 6.86392 4.1251 6.70292C4.1251 6.54196 3.9927 6.41125 3.82965 6.41125ZM12.1703 6.99458H12.5628C12.7616 6.99458 12.9228 7.15371 12.9228 7.35V9.76742C12.9228 10.0796 13.0648 10.3753 13.3096 10.573L13.4267 10.6676L13.3015 10.7708C13.0615 10.9685 12.9228 11.2612 12.9228 11.5698V13.872C12.9228 14.0683 12.7616 14.2275 12.5628 14.2275H12.1703C12.0073 14.2275 11.8749 14.3582 11.8749 14.5191C11.8749 14.6801 12.0073 14.8108 12.1703 14.8108H12.5628C13.088 14.8108 13.5137 14.3905 13.5137 13.872V11.5698C13.5137 11.4341 13.5747 11.3055 13.6802 11.2185L14.0798 10.8893C14.1475 10.8335 14.1864 10.7509 14.1859 10.6639C14.1855 10.5769 14.1458 10.4947 14.0776 10.4396L13.6837 10.1215C13.5761 10.0346 13.5137 9.90462 13.5137 9.76742V7.35C13.5137 6.83154 13.088 6.41125 12.5628 6.41125H12.1703C12.0073 6.41125 11.8749 6.54196 11.8749 6.70292C11.8749 6.86392 12.0073 6.99458 12.1703 6.99458ZM13.0005 0.291542L15.7045 2.95996H13.0005C13.0005 2.95996 13.0005 1.35371 13.0005 0.291542Z" fill="white"/>
</svg>
