<svg width="20" height="20" viewBox="0 0 20 20" fill="none" xmlns="http://www.w3.org/2000/svg">
<path d="M10 17.7143H19V19H10V17.7143ZM10 14.5H19V15.7857H10V14.5ZM6.68671 19H8.07143L5.26857 12.5714H3.80286L1 19H2.38471L2.899 17.7143H6.17243L6.68671 19ZM3.41329 16.4286L4.53571 13.6225L5.65814 16.4286H3.41329ZM1 9.35714H19V10.6429H1V9.35714ZM10 4.21429H19V5.5H10V4.21429ZM10 1H19V2.28571H10V1ZM6.68671 7.42857H8.07143L5.26857 1H3.80286L1 7.42857H2.38471L2.899 6.14286H6.17243L6.68671 7.42857ZM3.41329 4.85714L4.53571 2.05107L5.65814 4.85714H3.41329Z" fill="white"/>
</svg>
