<svg width="20" height="20" viewBox="0 0 20 20" fill="none" xmlns="http://www.w3.org/2000/svg">
<path fill-rule="evenodd" clip-rule="evenodd" d="M7.00919 1.76783C6.72021 1.57906 6.33291 1.6603 6.14413 1.94928C5.95536 2.23827 6.03659 2.62557 6.32557 2.81434L6.54628 2.95852C6.73894 3.08437 6.7931 3.34257 6.66725 3.53523L2.78789 9.47389C2.09571 10.5335 2.39358 11.9536 3.45319 12.6458L7.73563 15.4432C8.79521 16.1354 10.2154 15.8376 10.9075 14.7779L14.9008 8.66481C15.3413 7.99054 15.1517 7.08684 14.4775 6.64637L7.00919 1.76783ZM6.19187 7.71002C5.86595 7.70134 5.67581 7.33858 5.85412 7.06563L7.71375 4.21883C7.8396 4.02618 8.0978 3.97203 8.29046 4.09788L13.7938 7.69288C13.9179 7.7739 13.7765 7.91183 13.6284 7.90789L6.19187 7.71002Z" fill="#F4F4F4"/>
<path d="M3.97412 17.082C3.62895 17.082 3.34912 17.3619 3.34912 17.707C3.34912 18.0522 3.62895 18.332 3.97412 18.332H16.0267C16.3719 18.332 16.6517 18.0522 16.6517 17.707C16.6517 17.3619 16.3719 17.082 16.0267 17.082H3.97412Z" fill="#F4F4F4"/>
<path d="M16.9655 14.1499C16.9655 14.9883 16.2858 15.668 15.4474 15.668C14.6089 15.668 13.9292 14.9883 13.9292 14.1499C13.9292 13.5592 14.6828 12.4042 15.1281 11.7732C15.2859 11.5496 15.6088 11.5496 15.7666 11.7732C16.2119 12.4042 16.9655 13.5592 16.9655 14.1499Z" fill="#F4F4F4"/>
</svg>
