<svg width="20" height="20" viewBox="0 0 20 20" fill="none" xmlns="http://www.w3.org/2000/svg">
<path d="M19 2C19.5523 2 20 2.44772 20 3L20 19C20 19.5523 19.5523 20 19 20L0.999999 20C0.447715 20 -7.67235e-07 19.5523 -7.43094e-07 19L-4.37114e-08 3C-1.95703e-08 2.44771 0.447716 2 1 2L19 2Z" fill="#F4F4F4"/>
<path d="M20 2L20 20L20 2ZM-7.86805e-07 20L0 2L-7.86805e-07 20ZM-4.37114e-08 3C-1.23279e-08 2.28203 0.582029 1.7 1.3 1.7L18.7 1.7C19.418 1.7 20 2.28203 20 3L20 3C20 2.6134 19.5523 2.3 19 2.3L1 2.3C0.447716 2.3 -2.68126e-08 2.6134 -4.37114e-08 3L-4.37114e-08 3ZM20 20L-7.86805e-07 20L20 20Z" fill="#8A9FBA"/>
<mask id="path-3-inside-1_1658_517" fill="white">
<path d="M19 -4.37114e-08C19.5523 -1.95703e-08 20 0.447715 20 1L20 19C20 19.5523 19.5523 20 19 20L0.999999 20C0.447715 20 -8.54657e-07 19.5523 -8.30516e-07 19L-4.37114e-08 0.999999C-1.95703e-08 0.447715 0.447716 -8.54657e-07 1 -8.30516e-07L19 -4.37114e-08Z"/>
</mask>
<path d="M20 0L20 20L20 0ZM-8.74228e-07 20L0 -8.74228e-07L-8.74228e-07 20ZM-4.37114e-08 0.999999C4.57088e-09 -0.10457 0.89543 -1 2 -1L18 -1C19.1046 -1 20 -0.104569 20 1C20 1 19.5523 1 19 1L1 0.999999C0.447716 0.999999 -4.37114e-08 0.999999 -4.37114e-08 0.999999ZM20 20L-8.74228e-07 20L20 20Z" fill="#F4F4F4" mask="url(#path-3-inside-1_1658_517)"/>
</svg>
