<svg width="16" height="20" viewBox="0 0 16 20" fill="none" xmlns="http://www.w3.org/2000/svg">
<path d="M1.2 16C0.537258 16 -2.34843e-08 15.4627 -5.24537e-08 14.8L-6.46929e-07 1.2C-6.75898e-07 0.537259 0.537258 9.3019e-07 1.2 9.01221e-07L14.8 3.06746e-07C15.4627 2.77776e-07 16 0.537258 16 1.2L16 14.8C16 15.4627 15.4627 16 14.8 16L1.2 16Z" fill="#F4F4F4"/>
<g clip-path="url(#clip0_1679_669)">
<path d="M7.44484 9.1775L4.54234 12.3688C4.44404 12.4762 4.37914 12.61 4.35558 12.7537C4.33202 12.8974 4.35082 13.0449 4.40967 13.1781C4.46852 13.3113 4.56489 13.4245 4.68701 13.5039C4.80912 13.5832 4.9517 13.6253 5.09734 13.625L6.12484 13.625L6.12484 18.5C6.12484 18.6989 6.20386 18.8897 6.34451 19.0303C6.48516 19.171 6.67593 19.25 6.87484 19.25L9.12484 19.25C9.32375 19.25 9.51452 19.171 9.65517 19.0303C9.79582 18.8897 9.87484 18.6989 9.87484 18.5L9.87484 13.625L10.9023 13.625C11.1013 13.625 11.292 13.546 11.4327 13.4053C11.5733 13.2647 11.6523 13.0739 11.6523 12.875C11.6519 12.6891 11.5824 12.51 11.4573 12.3725L8.55484 9.18125C8.48446 9.10145 8.3979 9.03753 8.30092 8.99375C8.20394 8.94997 8.09875 8.92733 7.99234 8.92733C7.88593 8.92733 7.78075 8.94997 7.68376 8.99375C7.58678 9.03753 7.50022 9.10145 7.42984 9.18125L7.44484 9.1775Z" fill="#F4F4F4" stroke="#8A9FBA" stroke-width="0.6"/>
</g>
<defs>
<clipPath id="clip0_1679_669">
<rect width="12" height="12" fill="white" transform="translate(2 20) rotate(-90)"/>
</clipPath>
</defs>
</svg>
