<svg width="22" height="22" viewBox="0 0 22 22" fill="none" xmlns="http://www.w3.org/2000/svg">
<path d="M20.5697 6.19837C20.2925 5.90904 19.9253 5.74965 19.5353 5.74965H15.6097V2.5285C15.6097 1.68564 14.9528 1 14.1454 1H2.46428C1.65683 1 1 1.68564 1 2.5285V14.7218C1 15.5647 1.65683 16.2503 2.46428 16.2503H6.39034V19.4715C6.39034 20.3144 7.04718 21 7.85463 21H19.5357C20.3432 21 21 20.3144 21 19.4715V7.27815C20.9996 6.87102 20.8469 6.4877 20.5697 6.19837ZM20.3714 19.9765L15.5877 14.983C15.6018 14.8981 15.6097 14.8111 15.6097 14.7218V11.8017L20.5017 16.9083V19.4715C20.5017 19.6556 20.454 19.828 20.3714 19.9765ZM15.6097 11.0667V7.86244L20.5017 12.969V16.1733L15.6097 11.0667ZM19.5353 6.2694C19.7921 6.2694 20.0345 6.37465 20.2174 6.56566C20.4004 6.7571 20.5017 7.00962 20.5017 7.27772V8.29427L18.5615 6.26897H19.5353V6.2694ZM17.8573 6.2694L20.5017 9.02971V12.234L15.6097 7.12699V6.2694H17.8573ZM1.49791 14.7218V2.5285C1.49791 1.97237 1.93152 1.51975 2.46428 1.51975H14.1454C14.6781 1.51975 15.1117 1.97237 15.1117 2.5285V14.7218C15.1117 15.278 14.6781 15.7306 14.1454 15.7306H2.46428C1.93152 15.7306 1.49791 15.278 1.49791 14.7218ZM12.3234 16.2503L16.3756 20.4802H13.306L9.25377 16.2503H12.3234ZM8.54964 16.2503L12.6018 20.4802H9.53219L6.88826 17.7204V16.2503H8.54964ZM6.88784 19.4715V18.455L8.82764 20.4798H7.8538C7.32144 20.4802 6.88784 20.0276 6.88784 19.4715ZM17.0797 20.4802L13.0276 16.2503H14.1454C14.674 16.2503 15.1375 15.9567 15.3951 15.5175L20.0191 20.3442C19.8768 20.4304 19.7116 20.4802 19.5353 20.4802H17.0797Z" fill="white" stroke="white" stroke-width="0.4"/>
</svg>
