<svg width="21" height="21" viewBox="0 0 21 21" fill="none" xmlns="http://www.w3.org/2000/svg">
<path d="M12.8498 10.6348L15.8283 7.65613C16.0572 7.42727 16.0572 7.05645 15.8283 6.82758L14.1712 5.17047C13.9424 4.9416 13.5716 4.94156 13.3427 5.17047L10.3641 8.1491L12.8498 10.6348Z" fill="white"/>
<path d="M0.616386 18.7259L2.2735 20.383C2.50236 20.6119 2.87318 20.6119 3.10205 20.383L12.021 11.4641L9.53533 8.97839L0.616386 17.8973C0.38748 18.1262 0.38748 18.497 0.616386 18.7259Z" fill="white"/>
<path d="M18.0703 5.85938C17.7464 5.85938 17.4844 5.5973 17.4844 5.27344C17.4844 4.30414 16.6959 3.51562 15.7266 3.51562C15.4027 3.51562 15.1406 3.25355 15.1406 2.92969C15.1406 2.60582 15.4027 2.34375 15.7266 2.34375C16.6959 2.34375 17.4844 1.55523 17.4844 0.585938C17.4844 0.26207 17.7464 0 18.0703 0C18.3942 0 18.6562 0.26207 18.6562 0.585938C18.6562 1.55523 19.4448 2.34375 20.4141 2.34375C20.7379 2.34375 21 2.60582 21 2.92969C21 3.25355 20.7379 3.51562 20.4141 3.51562C19.4448 3.51562 18.6562 4.30414 18.6562 5.27344C18.6562 5.5973 18.3942 5.85938 18.0703 5.85938Z" fill="white"/>
<path d="M16.8984 15.2344C16.5746 15.2344 16.3125 14.9723 16.3125 14.6484C16.3125 13.6791 15.524 12.8906 14.5547 12.8906C14.2308 12.8906 13.9688 12.6286 13.9688 12.3047C13.9688 11.9808 14.2308 11.7188 14.5547 11.7188C15.524 11.7188 16.3125 10.9302 16.3125 9.96094C16.3125 9.63707 16.5746 9.375 16.8984 9.375C17.2223 9.375 17.4844 9.63707 17.4844 9.96094C17.4844 10.9302 18.2729 11.7188 19.2422 11.7188C19.5661 11.7188 19.8281 11.9808 19.8281 12.3047C19.8281 12.6286 19.5661 12.8906 19.2422 12.8906C18.2729 12.8906 17.4844 13.6791 17.4844 14.6484C17.4844 14.9723 17.2223 15.2344 16.8984 15.2344Z" fill="white"/>
<path d="M7.52344 8.20312C7.19957 8.20312 6.9375 7.94105 6.9375 7.61719C6.9375 6.00184 5.62316 4.6875 4.00781 4.6875C3.68395 4.6875 3.42188 4.42543 3.42188 4.10156C3.42188 3.7777 3.68395 3.51562 4.00781 3.51562C5.62316 3.51562 6.9375 2.20129 6.9375 0.585938C6.9375 0.26207 7.19957 0 7.52344 0C7.8473 0 8.10938 0.26207 8.10938 0.585938C8.10938 2.20129 9.42371 3.51562 11.0391 3.51562C11.3629 3.51562 11.625 3.7777 11.625 4.10156C11.625 4.42543 11.3629 4.6875 11.0391 4.6875C9.42371 4.6875 8.10938 6.00184 8.10938 7.61719C8.10938 7.94105 7.8473 8.20312 7.52344 8.20312Z" fill="white"/>
</svg>
