<svg width="33" height="20" viewBox="0 0 33 20" fill="none" xmlns="http://www.w3.org/2000/svg">
<rect x="7.50537" y="1" width="18" height="18" rx="1.2" fill="#F4F4F4" stroke="#8A9FBA"/>
<path d="M31.555 10.6646C31.5085 10.7125 31.4827 10.7767 31.4833 10.8435C31.4838 10.9103 31.5106 10.9741 31.5578 11.0214C31.605 11.0686 31.6689 11.0953 31.7356 11.0958C31.8024 11.0964 31.8667 11.0706 31.9145 11.0241L32.759 10.1797C32.8064 10.1319 32.833 10.0673 32.833 9.99996C32.833 9.93262 32.8063 9.868 32.7589 9.82021L31.914 8.97529C31.866 8.92916 31.8018 8.90368 31.7352 8.90433C31.6687 8.90497 31.6051 8.93168 31.558 8.97873C31.511 9.02578 31.4843 9.08941 31.4836 9.15595C31.483 9.2225 31.5085 9.28666 31.5546 9.33465L31.9645 9.74452L27.8677 9.74469C27.5403 9.74423 27.5316 10.2546 27.8678 10.2515L31.9647 10.2549L31.555 10.6646Z" fill="#F4F4F4"/>
<path d="M1.27349 9.38836C1.31627 9.34428 1.33998 9.28513 1.3395 9.2237C1.33902 9.16226 1.3144 9.10347 1.27094 9.06002C1.22748 9.01657 1.16869 8.99194 1.10725 8.99147C1.04582 8.991 0.986673 9.01471 0.942597 9.05749L0.165427 9.83466C0.121769 9.87863 0.097279 9.93808 0.0972973 10.0001C0.0973157 10.062 0.121841 10.1215 0.165525 10.1655L0.943087 10.943C0.987257 10.9855 1.0463 11.0089 1.10755 11.0083C1.16879 11.0077 1.22735 10.9832 1.27064 10.9399C1.31394 10.8966 1.33852 10.838 1.33911 10.7768C1.3397 10.7155 1.31624 10.6565 1.27379 10.6123L0.896593 10.2351L5.00537 10.235C5.30663 10.2354 5.31469 9.76572 5.00521 9.76853L0.89646 9.76538L1.27349 9.38836Z" fill="#F4F4F4"/>
<line x1="0.25" y1="-0.25" x2="15.75" y2="-0.25" transform="matrix(4.37114e-08 1 1 -4.37114e-08 26.5054 2)" stroke="white" stroke-width="0.5" stroke-linecap="round" stroke-dasharray="2 1"/>
<line x1="6.75537" y1="2.25" x2="6.75537" y2="17.75" stroke="white" stroke-width="0.5" stroke-linecap="round" stroke-dasharray="2 1"/>
</svg>
