<svg width="20" height="16" viewBox="0 0 20 16" fill="none" xmlns="http://www.w3.org/2000/svg">
<path d="M18.3336 0H7.60757C6.68863 0 5.94092 0.724404 5.94092 1.6147V4.60756C5.94092 4.7859 6.09017 4.9305 6.27425 4.9305H8.72964C8.91372 4.9305 9.06297 4.7859 9.06297 4.60756V3.02488H11.4095V12.9751H10.007C9.45554 12.9751 9.00698 13.4097 9.00698 13.9439V15.6771C9.00698 15.8554 9.15623 16 9.34031 16H16.6008C16.7851 16 16.9342 15.8554 16.9342 15.6771V13.9439C16.9342 13.4097 16.4856 12.9751 15.9342 12.9751H14.5315V3.02488H16.8782V4.60756C16.8782 4.7859 17.0273 4.9305 17.2115 4.9305H19.6669C19.8512 4.9305 20.0002 4.7859 20.0002 4.60756V1.6147C20.0002 0.724404 19.2525 0 18.3336 0Z" fill="white"/>
<path d="M7.59077 6.26758H0.999994C0.448564 6.26758 0 6.70216 0 7.2364V9.12547C0 9.30381 0.149249 9.4484 0.333331 9.4484H1.78612C1.9702 9.4484 2.11945 9.30381 2.11945 9.12547V8.32096H3.23566V13.9446H2.87515C2.32372 13.9446 1.87515 14.3792 1.87515 14.9135V15.6751C1.87515 15.8534 2.0244 15.998 2.20848 15.998H6.38228C6.56637 15.998 6.71562 15.8534 6.71562 15.6751V14.9135C6.71562 14.3792 6.26705 13.9446 5.71562 13.9446H5.35511V8.32096H6.47131V9.12547C6.47131 9.30381 6.62056 9.4484 6.80465 9.4484H8.25744C8.44152 9.4484 8.59077 9.30381 8.59077 9.12547V7.2364C8.59077 6.70216 8.1422 6.26758 7.59077 6.26758Z" fill="white"/>
</svg>
