<svg width="20" height="20" viewBox="0 0 20 20" fill="none" xmlns="http://www.w3.org/2000/svg">
<g clip-path="url(#clip0_1648_159)">
<path d="M16.5698 0.175631L15.099 2.22797C15.0349 2.32017 14.9993 2.44387 15 2.57235C15.0007 2.70082 15.0376 2.82376 15.1027 2.91461C15.1678 3.00546 15.2559 3.05694 15.3479 3.05792C15.44 3.0589 15.5287 3.0093 15.5948 2.91984L16.5234 1.62403L16.5234 18.376L15.5948 17.0802C15.5287 16.9907 15.44 16.9411 15.3479 16.9421C15.2559 16.9431 15.1678 16.9946 15.1027 17.0854C15.0376 17.1763 15.0007 17.2992 15 17.4277C14.9993 17.5562 15.0349 17.6799 15.099 17.7721L16.5698 19.8244C16.6506 19.9369 16.76 20 16.8741 20C16.9881 20 17.0976 19.9369 17.1783 19.8244L18.6491 17.7721C18.7135 17.68 18.7492 17.5562 18.7486 17.4275C18.748 17.2989 18.7111 17.1757 18.6459 17.0848C18.5808 16.9938 18.4925 16.9423 18.4003 16.9414C18.3081 16.9406 18.2194 16.9904 18.1534 17.0802L17.2247 18.376L17.2247 1.62403L18.1534 2.91984C18.2193 3.01043 18.3082 3.06099 18.4007 3.06049C18.4932 3.06 18.5819 3.0085 18.6473 2.91721C18.7127 2.82592 18.7496 2.70224 18.75 2.57314C18.7504 2.44403 18.7141 2.31996 18.6492 2.22797L17.1784 0.17559C17.0976 0.0631408 16.9882 -7.7163e-06 16.8741 -8.19187e-08C16.76 5.64511e-06 16.6506 0.0631694 16.5698 0.175631Z" fill="#F4F4F4"/>
<rect x="2.5" y="15" width="10" height="10" rx="1" transform="rotate(-90 2.5 15)" fill="#F4F4F4"/>
</g>
<defs>
<clipPath id="clip0_1648_159">
<rect width="20" height="20" fill="white" transform="translate(0 20) rotate(-90)"/>
</clipPath>
</defs>
</svg>
