<svg width="20" height="20" viewBox="0 0 20 20" fill="none" xmlns="http://www.w3.org/2000/svg">
<rect x="0.5" y="0.5" width="19" height="19" rx="2.5" stroke="white"/>
<path d="M5 3C3.89688 3 3 3.89688 3 5V15C3 16.1031 3.89688 17 5 17H15C16.1031 17 17 16.1031 17 15V5C17 3.89688 16.1031 3 15 3H5ZM7 5.5C7.39782 5.5 7.77936 5.65804 8.06066 5.93934C8.34196 6.22064 8.5 6.60218 8.5 7C8.5 7.39782 8.34196 7.77936 8.06066 8.06066C7.77936 8.34196 7.39782 8.5 7 8.5C6.60218 8.5 6.22064 8.34196 5.93934 8.06066C5.65804 7.77936 5.5 7.39782 5.5 7C5.5 6.60218 5.65804 6.22064 5.93934 5.93934C6.22064 5.65804 6.60218 5.5 7 5.5ZM11.5 8.5C12 9 12.0031 9.1375 12.1406 9.35938L14.8906 13.8594C15.0312 14.0906 15.0375 14.3812 14.9062 14.6187C14.775 14.8562 14.5219 15 14.25 15H5.75C5.47188 15 5.2125 14.8438 5.08437 14.5969C4.95625 14.35 4.975 14.05 5.13438 13.8219L6.88438 11.3219C7.025 11.1219 7.5 10.5 7.5 10.5C7.5 10.4969 7.975 11.1219 8.11562 11.3219L8.94063 12.5031L10.8594 9.3625C10.9969 9.14063 11 9 11.5 8.5Z" fill="white"/>
</svg>
