<svg width="20" height="16" viewBox="0 0 20 16" fill="none" xmlns="http://www.w3.org/2000/svg">
<path d="M4 1.2C4 0.537258 4.53726 0 5.2 0H18.8C19.4627 0 20 0.537258 20 1.2V14.8C20 15.4627 19.4627 16 18.8 16H5.2C4.53726 16 4 15.4627 4 14.8V1.2Z" fill="#F4F4F4"/>
<g clip-path="url(#clip0_1679_668)">
<path d="M10.8225 7.44484L7.63125 4.54234C7.5238 4.44404 7.39004 4.37914 7.24632 4.35558C7.1026 4.33202 6.95513 4.35082 6.82191 4.40967C6.6887 4.46853 6.5755 4.56489 6.49614 4.68701C6.41677 4.80912 6.37468 4.9517 6.375 5.09734V6.12484H1.5C1.30109 6.12484 1.11032 6.20386 0.96967 6.34451C0.829018 6.48516 0.75 6.67593 0.75 6.87484V9.12484C0.75 9.32375 0.829018 9.51452 0.96967 9.65517C1.11032 9.79582 1.30109 9.87484 1.5 9.87484H6.375V10.9023C6.375 11.1013 6.45402 11.292 6.59467 11.4327C6.73532 11.5733 6.92609 11.6523 7.125 11.6523C7.31088 11.6519 7.48995 11.5824 7.6275 11.4573L10.8187 8.55484C10.8986 8.48446 10.9625 8.3979 11.0062 8.30092C11.05 8.20394 11.0727 8.09875 11.0727 7.99234C11.0727 7.88594 11.05 7.78075 11.0062 7.68376C10.9625 7.58678 10.8986 7.50022 10.8187 7.42984L10.8225 7.44484Z" fill="#F4F4F4" stroke="#8A9FBA" stroke-width="0.6"/>
</g>
<defs>
<clipPath id="clip0_1679_668">
<rect width="12" height="12" fill="white" transform="translate(0 2)"/>
</clipPath>
</defs>
</svg>
