<svg width="22" height="16" viewBox="0 0 22 16" fill="none" xmlns="http://www.w3.org/2000/svg">
<rect x="15" width="16" height="15" rx="1.2" transform="rotate(90 15 0)" fill="#F4F4F4"/>
<rect x="22" width="16" height="2" rx="0.4" transform="rotate(90 22 0)" fill="#F4F4F4"/>
<path d="M17.5 0.5L17.5 15.5998" stroke="white" stroke-width="0.6" stroke-linecap="round" stroke-dasharray="1 1"/>
<path fill-rule="evenodd" clip-rule="evenodd" d="M18.5001 8.21548C18.4433 8.28088 18.4441 8.38483 18.502 8.44912C18.5598 8.5134 18.6534 8.51431 18.7122 8.45116L19.0122 8.11783C19.0708 8.05275 19.0708 7.94725 19.0122 7.88217L18.7122 7.54884C18.6534 7.48569 18.5598 7.48658 18.502 7.55088C18.4441 7.61519 18.4433 7.71912 18.5001 7.78452L18.5441 7.83335L17.5939 7.83335L17.5939 7.66667C17.5939 7.57463 17.5268 7.5 17.4439 7.5C17.3611 7.5 17.4009 7.57461 17.4009 7.66667L17.4009 7.83335L16.3996 7.83335L16.4435 7.78452C16.5004 7.71912 16.4996 7.61517 16.4417 7.55088C16.3839 7.48659 16.2903 7.48569 16.2314 7.54884L15.9314 7.88217C15.8729 7.94725 15.8729 8.05275 15.9314 8.11783L16.2314 8.45116C16.2903 8.51431 16.3839 8.51342 16.4417 8.44912C16.4996 8.38483 16.5004 8.28088 16.4435 8.21548L16.3996 8.16665L17.4009 8.16665L17.4009 8.33333C17.4009 8.42537 17.3611 8.5 17.4439 8.5C17.5268 8.5 17.5939 8.42539 17.5939 8.33333L17.5939 8.16665L18.5441 8.16665L18.5001 8.21548Z" fill="#F4F4F4"/>
</svg>
