<svg width="21" height="21" viewBox="0 0 21 21" fill="none" xmlns="http://www.w3.org/2000/svg">
<rect x="0.682491" y="0.668331" width="18.9876" height="18.9876" rx="1.51867" fill="#F4F4F4" fill-opacity="0.32" stroke="#F4F4F4" stroke-width="1.01244"/>
<rect x="4.17627" y="4.16211" width="12" height="12" rx="1.21493" fill="#FAFAFA"/>
<path d="M2.79639 8.96094L2.79639 9.72071" stroke="#FAFAFA" stroke-width="1.01244" stroke-linecap="round"/>
<path d="M17.6123 8.96094L17.6123 9.72071" stroke="#FAFAFA" stroke-width="1.01244" stroke-linecap="round"/>
<path d="M8.46533 2.75977H9.22511" stroke="#FAFAFA" stroke-width="1.01244" stroke-linecap="round"/>
<path d="M8.46533 17.5762H9.22511" stroke="#FAFAFA" stroke-width="1.01244" stroke-linecap="round"/>
<path d="M2.79639 11.2402L2.79639 12" stroke="#FAFAFA" stroke-width="1.01244" stroke-linecap="round"/>
<path d="M17.6123 11.2402L17.6123 12" stroke="#FAFAFA" stroke-width="1.01244" stroke-linecap="round"/>
<path d="M10.7427 2.75977H11.5025" stroke="#FAFAFA" stroke-width="1.01244" stroke-linecap="round"/>
<path d="M10.7427 17.5762H11.5025" stroke="#FAFAFA" stroke-width="1.01244" stroke-linecap="round"/>
<path d="M2.79639 13.5195L2.79639 14.2793" stroke="#FAFAFA" stroke-width="1.01244" stroke-linecap="round"/>
<path d="M17.6123 13.5195L17.6123 14.2793" stroke="#FAFAFA" stroke-width="1.01244" stroke-linecap="round"/>
<path d="M13.0205 2.75977H13.7803" stroke="#FAFAFA" stroke-width="1.01244" stroke-linecap="round"/>
<path d="M13.0205 17.5762H13.7803" stroke="#FAFAFA" stroke-width="1.01244" stroke-linecap="round"/>
<path d="M2.79639 6.68164L2.79639 7.44142" stroke="#FAFAFA" stroke-width="1.01244" stroke-linecap="round"/>
<path d="M17.6123 6.68164L17.6123 7.44142" stroke="#FAFAFA" stroke-width="1.01244" stroke-linecap="round"/>
<path d="M6.1875 2.75977H6.94728" stroke="#FAFAFA" stroke-width="1.01244" stroke-linecap="round"/>
<path d="M6.1875 17.5762H6.94728" stroke="#FAFAFA" stroke-width="1.01244" stroke-linecap="round"/>
</svg>
