<svg width="20" height="21" viewBox="0 0 20 21" fill="none" xmlns="http://www.w3.org/2000/svg">
<path d="M1.41726e-06 4.78847L7.51527e-07 12.4035L3.35445e-07 17.163C0.00113512 18.1724 0.285822 19.7567 1 20.4705C1.71418 21.1843 2.79952 20.9694 3.80952 20.9705L16.1905 20.9705C17.2005 20.9694 18.3334 20.7324 19.0476 20.0186C19.7618 19.3048 19.9989 18.1724 20 17.163L20 4.78847C19.9989 3.779 19.5971 2.8112 18.883 2.09739C18.1688 1.38358 17.2005 0.982071 16.1905 0.980938L10.4762 0.980937L3.80952 0.980937C6.42577 0.980937 4.5237 1.69474 3.80952 0.980937C4.81952 0.98207 2.7564 0.979754 3.80952 0.980937L10.4762 0.980937C10.4762 0.980937 8.78811 0.980937 7.5 0.980937L3.80952 0.980937C3.70536 1.78409 1.11704 2.09739 1.11704 2.09739C1.11704 2.09739 0.00142632 3.52069 1.41726e-06 4.78847ZM0.952382 6.41333L5.43524 1.93282L8.39715 1.93282L0.952382 9.37369L0.952382 6.41333ZM0.952383 5.06737L0.952383 4.78847C0.95314 4.03134 1.2544 3.30543 1.79006 2.77006C2.32571 2.23468 3.052 1.93358 3.80952 1.93282L4.08857 1.93282L0.952383 5.06737ZM0.952382 10.7197L9.74381 1.93282L10.4762 1.93282L10.4762 4.84035L3.86143 11.4517L0.952382 11.4517L0.952382 10.7197ZM7.91286 12.3888L5.20857 11.4517L10.4762 6.18679L11.4148 8.88871C10.8482 9.36941 10.1742 10.079 9.63852 10.6144C9.10287 11.1498 8.61607 11.6004 7.91286 12.3888ZM3.86143 11.4517L0.952382 14.3592L0.952382 11.4517L3.86143 11.4517ZM0.952382 15.7056L4.25619 12.4035L5.20857 11.4517C5.30762 11.4517 7.81572 12.3959 7.91286 12.3888L1 18.9707C0.654597 18.4893 0.952887 17.7553 0.952381 17.163L0.952382 15.7056ZM19.0476 15.5381L14.5648 20.0186L11.6029 20.0186L19.0476 12.5777L19.0476 15.5381ZM19.0476 11.2318L10.2562 20.0186L6.61476 20.0186L19.0476 7.59224L19.0476 11.2318ZM16.1905 20.0186L15.9114 20.0186L19.0476 16.8841L19.0476 17.163C19.0469 17.9201 19.5357 19.4351 19 19.9705C18.4643 20.5059 16.948 20.0179 16.1905 20.0186ZM19.0476 6.2458L5.26762 20.0186L3.80952 20.0186C3.21664 20.0186 2.48198 20.3158 2 19.9707L18.5167 3.13648C18.8619 3.61821 19.0476 4.1959 19.0476 4.78847L19.0476 6.2458ZM17.8433 2.4635L11.4148 8.88871C11.4219 8.79352 10.4762 6.28578 10.4762 6.18679L11.4295 5.23395L14.7324 1.93282L16.1905 1.93282C16.7834 1.93285 17.3614 2.11842 17.8433 2.4635ZM13.3852 1.93282L10.4762 4.84035L10.4762 1.93282L13.3852 1.93282ZM7.5 0.980937C8.83929 0.980937 10.4762 0.980937 10.4762 0.980937L3.80952 0.980937C4.56705 0.981692 3.86959 0.980937 3.80952 0.980937C4.34518 1.51631 3.25893 0.891699 3.80952 0.980937C3.03572 0.891699 1.83122 1.38358 1.11704 2.09739C0.40286 2.8112 0.00113638 3.779 1.41726e-06 4.78847C0.000926553 3.9657 1.11704 2.09739 1.11704 2.09739C1.11704 2.09739 3.81028 1.73807 3.80952 0.980937L7.5 0.980937Z" fill="#F1F1F1"/>
<rect x="19.5" y="20.4707" width="19" height="19" rx="1.5" transform="rotate(-180 19.5 20.4707)" fill="#F4F4F4" fill-opacity="0.4" stroke="#F4F4F4"/>
<rect x="18.9" y="14.8707" width="17.8" height="12.8" rx="1.1" transform="rotate(-180 18.9 14.8707)" fill="#FAFAFA" stroke="#B4C1D1" stroke-width="0.2"/>
</svg>
