<svg width="20" height="21" viewBox="0 0 20 21" fill="none" xmlns="http://www.w3.org/2000/svg">
<path d="M20 17.1822V9.56716V4.80775C19.9989 3.79827 19.7142 2.21402 19 1.50021C18.2858 0.786407 17.2005 1.00135 16.1905 1.00021H3.80952C2.79952 1.00135 1.66656 1.23829 0.952381 1.9521C0.238202 2.6659 0.00113434 3.79827 0 4.80775V17.1822C0.00113434 18.1917 0.402858 19.1595 1.11704 19.8733C1.83122 20.5871 2.79952 20.9886 3.80952 20.9898H9.52381H16.1905C13.5742 20.9898 15.4763 20.276 16.1905 20.9898C15.1805 20.9886 17.2436 20.9909 16.1905 20.9898H9.52381C9.52381 20.9898 11.2119 20.9898 12.5 20.9898H16.1905C16.2946 20.1866 18.883 19.8733 18.883 19.8733C18.883 19.8733 19.9986 18.45 20 17.1822ZM19.0476 15.5574L14.5648 20.0379H11.6029L19.0476 12.597V15.5574ZM19.0476 16.9033V17.1822C19.0469 17.9394 18.7456 18.6653 18.2099 19.2006C17.6743 19.736 16.948 20.0371 16.1905 20.0379H15.9114L19.0476 16.9033ZM19.0476 11.251L10.2562 20.0379H9.52381V17.1304L16.1386 10.519H19.0476V11.251ZM12.0871 9.58192L14.7914 10.519L9.52381 15.7839L8.58524 13.082C9.15178 12.6013 9.82583 11.8917 10.3615 11.3563C10.8971 10.8209 11.3839 10.3703 12.0871 9.58192ZM16.1386 10.519L19.0476 7.61152V10.519H16.1386ZM19.0476 6.26508L15.7438 9.56716L14.7914 10.519C14.6924 10.519 12.1843 9.57478 12.0871 9.58192L19 3C19.3454 3.48135 19.0471 4.21539 19.0476 4.80775V6.26508ZM0.952381 6.43261L5.43524 1.9521H8.39714L0.952381 9.39297V6.43261ZM0.952381 10.7389L9.74381 1.9521H13.3852L0.952381 14.3785V10.7389ZM3.80952 1.9521H4.08857L0.952381 5.08665V4.80775C0.953137 4.05061 0.464346 2.53559 1 2.00021C1.53565 1.46484 3.05199 1.95285 3.80952 1.9521ZM0.952381 15.7249L14.7324 1.9521H16.1905C16.7834 1.95212 17.518 1.65493 18 2L1.48333 18.8342C1.13808 18.3525 0.952409 17.7748 0.952381 17.1822V15.7249ZM2.15667 19.5072L8.58524 13.082C8.57809 13.1772 9.52381 15.6849 9.52381 15.7839L8.57047 16.7368L5.26762 20.0379H3.80952C3.21664 20.0379 2.63865 19.8523 2.15667 19.5072ZM6.61476 20.0379L9.52381 17.1304V20.0379H6.61476ZM12.5 20.9898C11.1607 20.9898 9.52381 20.9898 9.52381 20.9898H16.1905C15.4329 20.989 16.1304 20.9898 16.1905 20.9898C15.6548 20.4544 16.7411 21.079 16.1905 20.9898C16.9643 21.079 18.1688 20.5871 18.883 19.8733C19.5971 19.1595 19.9989 18.1917 20 17.1822C19.9991 18.005 18.883 19.8733 18.883 19.8733C18.883 19.8733 16.1897 20.2326 16.1905 20.9898H12.5Z" fill="#F1F1F1"/>
<rect x="0.5" y="1.5" width="19" height="19" rx="1.5" fill="#F4F4F4" fill-opacity="0.4" stroke="#F4F4F4"/>
<rect x="1.1" y="7.1" width="17.8" height="12.8" rx="1.1" fill="#FAFAFA" stroke="#B4C1D1" stroke-width="0.2"/>
</svg>
