<svg width="22" height="21" viewBox="0 0 22 21" fill="none" xmlns="http://www.w3.org/2000/svg">
<path d="M4.80312 20.9863L12.4182 20.9863L17.1776 20.9863C18.1871 20.9852 19.7713 20.7005 20.4851 19.9863C21.1989 19.2722 20.984 18.1868 20.9851 17.1768L20.9851 4.79585C20.984 3.78585 20.7471 2.65289 20.0333 1.93871C19.3195 1.22453 18.1871 0.987462 17.1776 0.986328L4.80312 0.986327C3.79365 0.987462 2.82585 1.38919 2.11204 2.10336C1.39823 2.81754 0.996719 3.78585 0.995586 4.79585L0.995586 10.5101L0.995586 17.1768C0.995586 14.5606 1.70939 16.4626 0.995586 17.1768C0.996719 16.1668 0.994403 18.2299 0.995586 17.1768L0.995586 10.5101C0.995586 10.5101 0.995586 12.1982 0.995586 13.4863L0.995586 17.1768C1.79874 17.281 2.11204 19.8693 2.11204 19.8693C2.11204 19.8693 3.53533 20.9849 4.80312 20.9863ZM6.42798 20.0339L1.94747 15.5511L1.94747 12.5892L9.38834 20.0339L6.42798 20.0339ZM5.08202 20.0339L4.80312 20.0339C4.04599 20.0332 3.32008 19.7319 2.78471 19.1963C2.24933 18.6606 1.94822 17.9343 1.94747 17.1768L1.94747 16.8978L5.08202 20.0339ZM10.7343 20.0339L1.94747 11.2425L1.94747 10.5101L4.855 10.5101L11.4663 17.1249L11.4663 20.0339L10.7343 20.0339ZM12.4034 13.0735L11.4663 15.7778L6.20144 10.5101L8.90336 9.57156C9.38406 10.1381 10.0937 10.8122 10.6291 11.3478C11.1644 11.8835 11.615 12.3703 12.4034 13.0735ZM11.4663 17.1249L14.3738 20.0339L11.4663 20.0339L11.4663 17.1249ZM15.7203 20.0339L12.4182 16.7301L11.4663 15.7778C11.4663 15.6787 12.4106 13.1706 12.4034 13.0735L18.9854 19.9863C18.504 20.3317 17.77 20.0334 17.1776 20.0339L15.7203 20.0339ZM15.5527 1.93871L20.0333 6.42157L20.0333 9.38347L12.5924 1.93871L15.5527 1.93871ZM11.2464 1.93871L20.0333 10.7301L20.0333 14.3716L7.60689 1.93871L11.2464 1.93871ZM20.0333 4.79585L20.0333 5.0749L16.8987 1.93871L17.1776 1.93871C17.9347 1.93947 19.4498 1.45067 19.9851 1.98633C20.5205 2.52198 20.0325 4.03832 20.0333 4.79585ZM6.26045 1.93871L20.0333 15.7187L20.0333 17.1768C20.0332 17.7697 20.3304 18.5043 19.9854 18.9863L3.15113 2.46966C3.63286 2.12441 4.21055 1.93874 4.80312 1.93871L6.26045 1.93871ZM2.47815 3.14299L8.90336 9.57156C8.80817 9.56442 6.30043 10.5101 6.20144 10.5101L5.2486 9.5568L1.94747 6.25395L1.94747 4.79585C1.9475 4.20297 2.13307 3.62498 2.47815 3.14299ZM1.94747 7.60109L4.855 10.5101L1.94747 10.5101L1.94747 7.60109ZM0.995586 13.4863C0.995586 12.147 0.995586 10.5101 0.995586 10.5101L0.995586 17.1768C0.996341 16.4193 0.995586 17.1167 0.995586 17.1768C1.53096 16.6412 0.906348 17.7274 0.995586 17.1768C0.906348 17.9506 1.39823 19.1551 2.11204 19.8693C2.82584 20.5835 3.79365 20.9852 4.80312 20.9863C3.98035 20.9854 2.11204 19.8693 2.11204 19.8693C2.11204 19.8693 1.75272 17.176 0.995586 17.1768L0.995586 13.4863Z" fill="#F1F1F1"/>
<rect x="20.4854" y="1.48633" width="19" height="19" rx="1.5" transform="rotate(90 20.4854 1.48633)" fill="#F4F4F4" fill-opacity="0.4" stroke="#F4F4F4"/>
<rect x="14.8854" y="2.08633" width="17.8" height="12.8" rx="1.1" transform="rotate(90 14.8854 2.08633)" fill="#FAFAFA" stroke="#B4C1D1" stroke-width="0.2"/>
</svg>
