<svg width="20" height="20" viewBox="0 0 20 20" fill="none" xmlns="http://www.w3.org/2000/svg">
<path d="M20 16.182V8.56695V3.80753C19.9989 2.79806 19.5971 1.83026 18.883 1.11645C18.1688 0.402648 17.2005 0.00113374 16.1905 0H3.80952C2.79952 0.00113374 1.83122 0.402648 1.11704 1.11645C0.402858 1.83026 0.00113434 2.79806 0 3.80753V16.182C0.00113434 17.1915 0.402858 18.1593 1.11704 18.8731C1.83122 19.5869 2.79952 19.9884 3.80952 19.9896H9.52381H16.1905C13.5742 19.9896 15.4763 19.2757 16.1905 19.9896C15.1805 19.9884 17.2436 19.9907 16.1905 19.9896H9.52381C9.52381 19.9896 11.2119 19.9896 12.5 19.9896H16.1905C16.2946 19.1864 18.883 18.8731 18.883 18.8731C18.883 18.8731 19.9986 17.4498 20 16.182ZM19.0476 14.5572L14.5648 19.0377H11.6029L19.0476 11.5968V14.5572ZM19.0476 15.9031V16.182C19.0469 16.9392 18.7456 17.6651 18.2099 18.2004C17.6743 18.7358 16.948 19.0369 16.1905 19.0377H15.9114L19.0476 15.9031ZM19.0476 10.2508L10.2562 19.0377H9.52381V16.1301L16.1386 9.51884H19.0476V10.2508ZM12.0871 8.58171L14.7914 9.51884L9.52381 14.7837L8.58524 12.0818C9.15178 11.6011 9.82583 10.8914 10.3615 10.3561C10.8971 9.8207 11.3839 9.3701 12.0871 8.58171ZM16.1386 9.51884L19.0476 6.61131V9.51884H16.1386ZM19.0476 5.26487L15.7438 8.56695L14.7914 9.51884C14.6924 9.51884 12.1843 8.57457 12.0871 8.58171L18.5157 2.15649C18.8611 2.63785 19.0471 3.21518 19.0476 3.80753V5.26487ZM0.952381 5.4324L5.43524 0.951883H8.39714L0.952381 8.39276V5.4324ZM0.952381 9.73872L9.74381 0.951883H13.3852L0.952381 13.3782V9.73872ZM3.80952 0.951883H4.08857L0.952381 4.08644V3.80753C0.953137 3.0504 1.2544 2.32449 1.79005 1.78912C2.32571 1.25374 3.05199 0.95264 3.80952 0.951883ZM0.952381 14.7247L14.7324 0.951883H16.1905C16.7834 0.951912 17.3614 1.13748 17.8433 1.48256L1.48333 17.834C1.13808 17.3523 0.952409 16.7746 0.952381 16.182V14.7247ZM2.15667 18.507L8.58524 12.0818C8.57809 12.177 9.52381 14.6847 9.52381 14.7837L8.57048 15.7365L5.26762 19.0377H3.80952C3.21664 19.0376 2.63865 18.8521 2.15667 18.507ZM6.61476 19.0377L9.52381 16.1301V19.0377H6.61476ZM12.5 19.9896C11.1607 19.9896 9.52381 19.9896 9.52381 19.9896H16.1905C15.4329 19.9888 16.1304 19.9896 16.1905 19.9896C15.6548 19.4542 16.7411 20.0788 16.1905 19.9896C16.9643 20.0788 18.1688 19.5869 18.883 18.8731C19.5971 18.1593 19.9989 17.1915 20 16.182C19.9991 17.0048 18.883 18.8731 18.883 18.8731C18.883 18.8731 16.1897 19.2324 16.1905 19.9896H12.5Z" fill="#F1F1F1"/>
<rect x="0.5" y="0.5" width="19" height="19" rx="1.5" fill="#F4F4F4" fill-opacity="0.32" stroke="#F4F4F4"/>
<rect x="4" y="4" width="12" height="12" rx="1.2" fill="#FAFAFA"/>
</svg>
