<svg width="20" height="20" viewBox="0 0 20 20" fill="none" xmlns="http://www.w3.org/2000/svg">
<rect x="1" y="1" width="14" height="14" rx="1.2" fill="#F4F4F4" stroke="#8A9FBA" stroke-width="0.6"/>
<path d="M10.866 12.8089L10.866 12.8089L9.89456 13.7803L9.89456 13.7803C9.63515 14.0397 9.63515 14.4603 9.89456 14.7197L9.89456 14.7197L10.866 15.6911C10.866 15.6911 10.866 15.6911 10.866 15.6911C11.1254 15.9506 11.546 15.9506 11.8054 15.6911L11.5933 15.479L11.8054 15.6911C12.0157 15.4809 12.0555 15.1647 11.9249 14.9143H13.5857V16.5751C13.3353 16.4445 13.0191 16.4843 12.8089 16.6946C12.5494 16.954 12.5494 17.3746 12.8089 17.634L12.8089 17.634L13.7803 18.6054C14.0397 18.8649 14.4603 18.8649 14.7197 18.6054L15.6911 17.634C15.9506 17.3746 15.9506 16.954 15.6911 16.6946C15.4809 16.4843 15.1647 16.4445 14.9143 16.5751V14.9143H16.5751C16.4445 15.1647 16.4843 15.4809 16.6946 15.6911C16.954 15.9506 17.3746 15.9506 17.634 15.6911L18.6054 14.7197C18.8649 14.4603 18.8649 14.0397 18.6054 13.7803L17.634 12.8089L17.634 12.8089C17.3746 12.5494 16.954 12.5494 16.6946 12.8089C16.4843 13.0191 16.4445 13.3353 16.5751 13.5857H14.9143V11.9249C15.1647 12.0555 15.4809 12.0157 15.6911 11.8054L15.479 11.5933L15.6911 11.8054C15.9506 11.546 15.9506 11.1254 15.6911 10.866C15.6911 10.866 15.6911 10.866 15.6911 10.866L14.7197 9.89456L14.7197 9.89456C14.4603 9.63515 14.0397 9.63515 13.7803 9.89456L13.7803 9.89456L12.8089 10.866L12.8089 10.866C12.5494 11.1254 12.5494 11.546 12.8089 11.8054C13.0191 12.0157 13.3353 12.0555 13.5857 11.9249V13.5857H11.9249C12.0555 13.3353 12.0157 13.0191 11.8054 12.8089C11.546 12.5494 11.1254 12.5494 10.866 12.8089Z" fill="#F4F4F4" stroke="#8A9FBA" stroke-width="0.6"/>
</svg>
