<svg width="20" height="16" viewBox="0 0 20 16" fill="none" xmlns="http://www.w3.org/2000/svg">
<path d="M16 14.8C16 15.4627 15.4627 16 14.8 16L1.2 16C0.537259 16 9.06706e-07 15.4627 8.48767e-07 14.8L-3.40183e-07 1.2C-3.98122e-07 0.53726 0.537258 1.3518e-06 1.2 1.29386e-06L14.8 1.04907e-07C15.4627 4.69686e-08 16 0.537258 16 1.2L16 14.8Z" fill="#F4F4F4"/>
<g clip-path="url(#clip0_1679_675)">
<path d="M9.1775 8.55516L12.3688 11.4577C12.4762 11.556 12.61 11.6209 12.7537 11.6444C12.8974 11.668 13.0449 11.6492 13.1781 11.5903C13.3113 11.5315 13.4245 11.4351 13.5039 11.313C13.5832 11.1909 13.6253 11.0483 13.625 10.9027L13.625 9.87516L18.5 9.87516C18.6989 9.87516 18.8897 9.79614 19.0303 9.65549C19.171 9.51484 19.25 9.32407 19.25 9.12516L19.25 6.87516C19.25 6.67625 19.171 6.48548 19.0303 6.34483C18.8897 6.20418 18.6989 6.12516 18.5 6.12516L13.625 6.12516L13.625 5.09766C13.625 4.89875 13.546 4.70798 13.4053 4.56733C13.2647 4.42668 13.0739 4.34766 12.875 4.34766C12.6891 4.34814 12.51 4.41764 12.3725 4.54266L9.18125 7.44516C9.10145 7.51554 9.03753 7.6021 8.99375 7.69908C8.94997 7.79606 8.92733 7.90125 8.92733 8.00766C8.92733 8.11407 8.94997 8.21925 8.99375 8.31624C9.03753 8.41322 9.10145 8.49978 9.18125 8.57016L9.1775 8.55516Z" fill="#F4F4F4" stroke="#8A9FBA" stroke-width="0.6"/>
</g>
<defs>
<clipPath id="clip0_1679_675">
<rect width="12" height="12" fill="white" transform="translate(20 14) rotate(180)"/>
</clipPath>
</defs>
</svg>
