<svg width="22" height="20" viewBox="0 0 22 20" fill="none" xmlns="http://www.w3.org/2000/svg">
<path d="M18.475 8.02368C18.1735 7.85522 17.7926 7.96022 17.623 8.25927C17.4527 8.55956 17.5583 8.94102 17.8586 9.11131C19.2666 9.90906 20.0835 10.8905 20.0835 11.875C20.0835 13.5858 17.7316 15.2026 14.2929 15.899C13.9541 15.968 13.7356 16.2976 13.804 16.6357C13.8736 16.9772 14.2076 17.1932 14.5407 17.1246C18.6416 16.2939 21.3335 14.2334 21.3335 11.875C21.3335 10.4205 20.2914 9.05272 18.475 8.02368Z" fill="white"/>
<path d="M7.54166 17.2548V19.375C7.54166 19.6057 7.66862 19.8175 7.87187 19.9262C8.07228 20.0337 8.31958 20.0242 8.51337 19.895L12.2634 17.395C12.4373 17.2791 12.5417 17.0837 12.5417 16.875C12.5417 16.6663 12.4373 16.471 12.2634 16.355L8.51337 13.855C8.32112 13.7281 8.07391 13.7147 7.87187 13.8239C7.66862 13.9325 7.54166 14.1443 7.54166 14.375V15.9758C3.88741 15.3497 1.25 13.687 1.25 11.875C1.25 10.8905 2.06683 9.90903 3.47487 9.11132C3.77516 8.94103 3.88075 8.55957 3.71046 8.25928C3.54079 7.96019 3.16054 7.85523 2.85841 8.02369C1.04204 9.05273 0 10.4205 0 11.875C0 14.4212 3.03475 16.5444 7.54166 17.2548Z" fill="white"/>
<path d="M15.6667 2.42616L10.9462 0.0659063C10.7705 -0.0219688 10.563 -0.0219688 10.3872 0.0659063L5.6665 2.42628L10.6667 4.92616L15.6667 2.42616Z" fill="white"/>
<path d="M16.2915 9.37535V3.51172L11.2915 6.01172C11.2915 6.14005 11.2915 12.3901 11.2915 12.2617L15.946 9.93447C16.1578 9.82822 16.2915 9.61218 16.2915 9.37535Z" fill="white"/>
<path d="M5.0415 9.37514C5.0415 9.61197 5.17517 9.82801 5.38696 9.93422L10.0415 12.2615C10.0415 11.8228 10.0415 5.88309 10.0415 6.01151L5.0415 3.51172V9.37514Z" fill="white"/>
</svg>
