<svg width="18" height="20" viewBox="0 0 18 20" fill="none" xmlns="http://www.w3.org/2000/svg">
<path d="M15.5883 6.5283C15.3339 6.39112 15.0126 6.47662 14.8694 6.72013C14.7258 6.96465 14.8148 7.27527 15.0682 7.41394C16.2562 8.06354 16.9454 8.8627 16.9454 9.66436C16.9454 11.0575 14.9611 12.374 12.0598 12.9411C11.7739 12.9973 11.5896 13.2656 11.6473 13.541C11.706 13.819 11.9878 13.9949 12.2689 13.9391C15.7289 13.2627 18.0001 11.5848 18.0001 9.66436C18.0001 8.48001 17.1209 7.36624 15.5883 6.5283Z" fill="white"/>
<path d="M6.3631 14.0451V15.7715C6.3631 15.9594 6.47022 16.1319 6.64171 16.2204C6.8108 16.3079 7.01945 16.3002 7.18296 16.195L10.3469 14.1593C10.4937 14.0649 10.5818 13.9058 10.5818 13.7359C10.5818 13.5659 10.4937 13.4068 10.3469 13.3124L7.18296 11.2767C7.02075 11.1733 6.81217 11.1624 6.64171 11.2514C6.47022 11.3398 6.3631 11.5122 6.3631 11.7001V13.0036C3.27991 12.4938 1.05466 11.1399 1.05466 9.66437C1.05466 8.8627 1.74384 8.06351 2.93184 7.41395C3.18521 7.27528 3.27429 6.96466 3.13061 6.72014C2.98746 6.4766 2.66663 6.39113 2.41172 6.5283C0.879198 7.36624 0 8.48002 0 9.66437C0 11.7377 2.5605 13.4666 6.3631 14.0451Z" fill="white"/>
<path d="M13.2182 1.97559L9.23542 0.0536668C9.0871 -0.0178889 8.91203 -0.0178889 8.76371 0.0536668L4.78076 1.9757L8.99957 4.01132L13.2182 1.97559Z" fill="white"/>
<path d="M13.747 7.6282V2.85352L9.52832 4.88924C9.52832 4.99374 9.52832 10.083 9.52832 9.97855L13.4555 8.08349C13.6342 7.99698 13.747 7.82105 13.747 7.6282Z" fill="white"/>
<path d="M4.25391 7.62804C4.25391 7.82089 4.36668 7.99681 4.54538 8.08329L8.47254 9.97838C8.47254 9.62111 8.47254 4.7845 8.47254 4.88907L4.25391 2.85352V7.62804Z" fill="white"/>
<path d="M10.469 19.6564H10.1133C10.0862 19.6564 10.0646 19.6504 10.0485 19.6385C10.0337 19.6255 10.0213 19.6115 10.0115 19.5963L9.30022 18.619C9.29034 18.645 9.27923 18.6672 9.26688 18.6856L8.57415 19.5963C8.5618 19.6115 8.54822 19.6255 8.5334 19.6385C8.51981 19.6504 8.50067 19.6564 8.47598 19.6564H8.14258L9.05572 18.4616L8.17962 17.3301H8.5371C8.56303 17.3301 8.58217 17.3339 8.59452 17.3414C8.60687 17.349 8.61798 17.3598 8.62786 17.3739L9.32059 18.3057C9.32924 18.283 9.3422 18.2581 9.35949 18.2311L10.0133 17.3804C10.0232 17.3653 10.0349 17.3533 10.0485 17.3447C10.0621 17.3349 10.0782 17.3301 10.0967 17.3301H10.4393L9.55953 18.447L10.469 19.6564Z" fill="white" stroke="white" stroke-width="0.1"/>
</svg>
