<svg width="17" height="21" viewBox="0 0 17 21" fill="none" xmlns="http://www.w3.org/2000/svg">
<path d="M14.4509 4.63672H7.2764C7.12374 4.63672 7 4.76046 7 4.91312V9.72149H9.25155C11.4904 7.48259 11.0122 7.96077 11.6534 7.3198H10.394C10.245 7.3198 10.117 7.20526 10.1101 7.05653C10.1028 6.8978 10.2291 6.76699 10.3862 6.76699H12.3206C12.4837 6.76699 12.597 6.90173 12.597 7.0434V8.96997C12.597 9.11877 12.4828 9.24677 12.3342 9.2539C12.1755 9.26143 12.0443 9.13503 12.0443 8.97783V7.71062C11.4032 8.35179 11.8815 7.87348 9.64257 10.1124V12.364H14.4509C14.6035 12.364 14.7273 12.2402 14.7273 12.0876V4.91312C14.7273 4.76046 14.6035 4.63672 14.4509 4.63672Z" fill="white"/>
<path d="M7.11629 12.2481C6.98967 12.1213 6.98967 11.9157 7.11629 11.7889L8.81341 10.0918C8.74995 10.0918 6.0048 10.0918 5.96082 10.0918C5.78154 10.0918 5.63623 10.2372 5.63623 10.4164V13.4036C5.63623 13.5828 5.78154 13.7282 5.96082 13.7282H8.94801C9.12728 13.7282 9.27259 13.5828 9.27259 13.4036C9.27259 13.3365 9.27259 10.6414 9.27259 10.551L7.57547 12.2481C7.44886 12.3747 7.24305 12.3749 7.11629 12.2481Z" fill="white"/>
<path d="M2 16.4551H16.5455" stroke="white" stroke-width="0.5" stroke-linecap="round" stroke-dasharray="1 1"/>
<path d="M2.17678 0.823756C2.07915 0.726125 1.92085 0.726125 1.82322 0.823756L0.232233 2.41475C0.134602 2.51238 0.134602 2.67067 0.232233 2.7683C0.329864 2.86593 0.488155 2.86593 0.585786 2.7683L2 1.35409L3.41421 2.7683C3.51184 2.86593 3.67014 2.86593 3.76777 2.7683C3.8654 2.67067 3.8654 2.51238 3.76777 2.41475L2.17678 0.823756ZM2.25 16.4551L2.25 1.00053H1.75L1.75 16.4551H2.25Z" fill="white"/>
<path d="M9.72963 21.0007C9.98077 21.0007 10.1843 20.8265 10.1843 20.6116V19.951L11.0169 18.8815C11.1534 18.7026 11.096 18.4632 10.8886 18.3447C10.6811 18.2262 10.4009 18.2731 10.2606 18.4497L9.72963 19.1316L9.19884 18.4497C9.10937 18.3326 8.95353 18.2656 8.7904 18.2742C8.62728 18.2827 8.48225 18.3656 8.41026 18.4912C8.33827 18.6168 8.35054 18.7659 8.44251 18.8815L9.2752 19.951V20.6116C9.2752 20.8265 9.4787 21.0007 9.72963 21.0007Z" fill="white"/>
</svg>
