<svg width="17" height="21" viewBox="0 0 17 21" fill="none" xmlns="http://www.w3.org/2000/svg">
<path d="M13.4509 3.72656H6.2764C6.12374 3.72656 6 3.8503 6 4.00297V8.81133H8.25155C10.4904 6.57244 10.0122 7.05062 10.6534 6.40965H9.39395C9.24502 6.40965 9.11695 6.2951 9.11009 6.14637C9.10282 5.98764 9.2291 5.85684 9.38622 5.85684H11.3206C11.4837 5.85684 11.597 5.99158 11.597 6.13324V8.05981C11.597 8.20861 11.4828 8.33662 11.3342 8.34375C11.1755 8.35128 11.0443 8.22487 11.0443 8.06768V6.80047C10.4032 7.44163 10.8815 6.96332 8.64257 9.20228V11.4538H13.4509C13.6035 11.4538 13.7273 11.3301 13.7273 11.1774V4.00297C13.7273 3.8503 13.6035 3.72656 13.4509 3.72656Z" fill="white"/>
<path d="M6.11629 11.3379C5.98967 11.2112 5.98967 11.0055 6.11629 10.8788L7.81341 9.18164C7.74995 9.18164 5.0048 9.18164 4.96082 9.18164C4.78154 9.18164 4.63623 9.32703 4.63623 9.50623V12.4934C4.63623 12.6727 4.78154 12.818 4.96082 12.818H7.94801C8.12728 12.818 8.27259 12.6727 8.27259 12.4934C8.27259 12.4264 8.27259 9.7312 8.27259 9.64082L6.57547 11.3379C6.44886 11.4646 6.24305 11.4647 6.11629 11.3379Z" fill="white"/>
<path d="M1 1V15.5455" stroke="white" stroke-width="0.5" stroke-linecap="round" stroke-dasharray="1 1"/>
<path d="M16.6313 15.7217C16.729 15.6241 16.729 15.4658 16.6313 15.3681L15.0403 13.7772C14.9427 13.6795 14.7844 13.6795 14.6868 13.7772C14.5891 13.8748 14.5891 14.0331 14.6868 14.1307L16.101 15.5449L14.6868 16.9591C14.5891 17.0568 14.5891 17.2151 14.6868 17.3127C14.7844 17.4103 14.9427 17.4103 15.0403 17.3127L16.6313 15.7217ZM1 15.7949L16.4545 15.7949V15.2949L1 15.2949L1 15.7949Z" fill="white"/>
<path d="M9.46585 18.359C9.26965 18.2247 8.98378 18.252 8.82669 18.4198L8.27284 19.0133L7.71877 18.4198C7.5621 18.2518 7.27602 18.2243 7.07982 18.3588C6.88382 18.4931 6.85199 18.7383 7.00866 18.9065L7.69047 19.6371L7.00866 20.3678C6.85199 20.5358 6.88382 20.781 7.07982 20.9155C7.27602 21.0497 7.5621 21.0225 7.71877 20.8543L8.27284 20.2608L8.82669 20.8543C8.98357 21.0225 9.26965 21.0497 9.46565 20.9155C9.66185 20.781 9.69368 20.5358 9.5368 20.3678L8.8552 19.6371L9.5368 18.9065C9.69368 18.7385 9.66185 18.4933 9.46585 18.359Z" fill="white"/>
</svg>
