<svg width="20" height="20" viewBox="0 0 20 20" fill="none" xmlns="http://www.w3.org/2000/svg">
<path d="M0.987767 18.3227H16.5001C16.7694 18.3227 16.9878 18.1044 16.9878 17.835V14.6772C16.9878 14.4078 16.7694 14.1895 16.5001 14.1895H5.40007C4.62687 14.1895 4.00007 13.5626 4.00007 12.7894L4.00008 10.4C4.00009 9.62681 3.37328 9 2.60008 9H1.9C1.1268 9 0.500006 9.62582 0.500014 10.399C0.500031 12.0711 0.500066 14.4802 0.500066 14.6772V17.835C0.500066 18.1044 0.718417 18.3227 0.987767 18.3227Z" fill="#F4F4F4"/>
<path d="M7.57999 18.3227H12.4198C12.6891 18.3227 12.9075 18.1044 12.9075 17.835V14.6772C12.9075 14.4078 12.6891 14.1895 12.4198 14.1895H7.57999C7.31064 14.1895 7.09229 14.4078 7.09229 14.6772V17.835C7.09229 18.1044 7.31064 18.3227 7.57999 18.3227Z" fill="#F4F4F4"/>
<path d="M12.4195 6.13398H7.58096C7.31161 6.13398 7.09326 5.91563 7.09326 5.64628V2.48965C7.09326 2.2203 7.31161 2.00195 7.58096 2.00195H12.4195C12.6889 2.00195 12.9073 2.2203 12.9073 2.48965V5.64628C12.9073 5.91563 12.6889 6.13398 12.4195 6.13398Z" fill="#F4F4F4"/>
<path d="M18.4967 12.5H13.5033C13.2253 12.5 13 12.2359 13 11.9101V8.08987C13 7.76409 13.2253 7.5 13.5033 7.5H18.4967C18.7747 7.5 19 7.76409 19 8.08987V11.9101C19 12.2359 18.7747 12.5 18.4967 12.5Z" fill="#F4F4F4"/>
<path d="M14.814 14.6772V17.8358C14.814 18.1051 14.5956 18.3235 14.3263 18.3235H9.4877C9.21835 18.3235 9 18.1051 9 17.8358V14.6772C9 14.4078 9.21835 14.1895 9.4877 14.1895H14.3263C14.5956 14.1895 14.814 14.4078 14.814 14.6772Z" fill="#F4F4F4"/>
<path d="M17.0123 2H0.987701C0.718351 2 0.5 2.21835 0.5 2.4877V5.6456C0.5 5.83548 0.5 8.41857 0.500021 10.1015C0.500031 10.8746 1.12676 11.5 1.89989 11.5H2.60005C3.37325 11.5 4.00005 10.8732 4.00004 10.1L4.00002 7.53332C4.00001 6.76011 4.62681 6.1333 5.40002 6.1333H17.0123C17.2817 6.1333 17.5 5.91495 17.5 5.6456V2.4877C17.5 2.21835 17.2817 2 17.0123 2Z" fill="#F4F4F4"/>
<path d="M9 2.4877V5.6456C9 5.91495 9.21835 6.1333 9.4877 6.1333H14.3275C14.5969 6.1333 14.8152 5.91495 14.8152 5.6456V2.4877C14.8152 2.21835 14.5969 2 14.3275 2H9.4877C9.21835 2 9 2.21835 9 2.4877Z" fill="#F4F4F4"/>
<path d="M6.52249 12.5H17.4775C17.7661 12.5 18 12.2359 18 11.91V8.08997C18 7.76414 17.7661 7.5 17.4775 7.5H6.52249C6.23392 7.5 6 7.76414 6 8.08997V11.91C6 12.2359 6.23392 12.5 6.52249 12.5Z" fill="#F4F4F4"/>
</svg>
