<svg width="20" height="18" viewBox="0 0 20 18" fill="none" xmlns="http://www.w3.org/2000/svg">
<path d="M1.18047 15.9158L2.41997 16.4842V7.95789L0.131658 13.4526C-0.249727 14.4947 0.227005 15.5368 1.18047 15.9158ZM13.2894 1.89474L18.0568 13.2632L11.0965 16.1053L6.32917 4.83158V4.73684L13.2894 1.89474ZM13.3848 0C13.0988 0 12.9081 1.3411e-07 12.622 0.094737L5.5664 3.03158C4.89897 3.31579 4.42224 3.97895 4.42224 4.73684C4.42224 4.92632 4.42224 5.21053 4.51759 5.49474L9.2849 16.7684C9.57094 17.5263 10.2384 17.9053 11.0011 17.9053C11.2872 17.9053 11.4779 17.9053 11.7639 17.8105L18.8195 14.8737C19.773 14.4947 20.2497 13.3579 19.8683 12.4105L15.101 1.13684C14.815 0.378947 14.0522 0 13.3848 0ZM8.80817 6.72632C8.23609 6.72632 7.85471 6.34737 7.85471 5.77895C7.85471 5.21053 8.23609 4.83158 8.80817 4.83158C9.38025 4.83158 9.76163 5.30526 9.76163 5.77895C9.76163 6.25263 9.38025 6.72632 8.80817 6.72632ZM4.42224 16.1053C4.42224 17.1474 5.28036 18 6.32917 18H7.66402L4.42224 10.1368V16.1053Z" fill="white"/>
</svg>
