<svg width="21" height="21" viewBox="0 0 21 21" fill="none" xmlns="http://www.w3.org/2000/svg">
<rect x="20.7" y="20.7" width="19.4" height="19.4" rx="0.7" transform="rotate(180 20.7 20.7)" stroke="#F4F4F4" stroke-width="0.6" stroke-dasharray="1.6 1"/>
<path d="M21 20C21 20.5523 20.5523 21 20 21L2 21C1.44772 21 1 20.5523 1 20L1 17C0.999999 8.16345 8.16344 1 17 1L20 1C20.5523 1 21 1.44772 21 2L21 20Z" fill="#F4F4F4"/>
<rect x="3.2" y="3.2" width="2.4" height="2.4" rx="1.2" transform="rotate(180 3.2 3.2)" fill="#F4F4F4" stroke="#8A9FBA" stroke-width="0.4"/>
<path d="M11.3173 9.81356C11.4241 9.81196 11.526 9.76839 11.6009 9.69227C11.6758 9.61616 11.7178 9.5136 11.7178 9.40676C11.7178 9.29992 11.6758 9.19737 11.6009 9.12126C11.5259 9.04515 11.4241 9.0016 11.3173 9L9.40655 9C9.29884 9.00038 9.19564 9.04336 9.11948 9.11957C9.04332 9.19578 9.00037 9.29904 9 9.40681L9 11.3186C9.00211 11.4251 9.04587 11.5266 9.12189 11.6011C9.19791 11.6757 9.30012 11.7174 9.40657 11.7174C9.51302 11.7174 9.61522 11.6757 9.69123 11.6011C9.76724 11.5265 9.811 11.4251 9.8131 11.3186L9.8131 10.3912L16.3016 16.8793C16.6714 17.2502 17.2587 16.6827 16.8748 16.3057L10.3904 9.81354L11.3173 9.81356Z" fill="#8A9FBA"/>
</svg>
