<svg width="16" height="20" viewBox="0 0 16 20" fill="none" xmlns="http://www.w3.org/2000/svg">
<path d="M14.8 4C15.4627 4 16 4.53726 16 5.2L16 18.8C16 19.4627 15.4627 20 14.8 20L1.2 20C0.537257 20 -6.75898e-07 19.4627 -6.46929e-07 18.8L-5.24537e-08 5.2C-2.34843e-08 4.53726 0.537258 4 1.2 4L14.8 4Z" fill="#F4F4F4"/>
<path d="M8.55516 10.8225L11.4577 7.63125C11.556 7.5238 11.6209 7.39004 11.6444 7.24632C11.668 7.1026 11.6492 6.95513 11.5903 6.82191C11.5315 6.6887 11.4351 6.5755 11.313 6.49614C11.1909 6.41677 11.0483 6.37468 10.9027 6.375L9.87516 6.375L9.87516 1.5C9.87516 1.30109 9.79614 1.11032 9.65549 0.96967C9.51484 0.829018 9.32407 0.75 9.12516 0.75L6.87516 0.75C6.67625 0.75 6.48548 0.829017 6.34483 0.96967C6.20418 1.11032 6.12516 1.30109 6.12516 1.5L6.12516 6.375L5.09766 6.375C4.89875 6.375 4.70798 6.45402 4.56733 6.59467C4.42668 6.73532 4.34766 6.92609 4.34766 7.125C4.34814 7.31088 4.41764 7.48995 4.54266 7.6275L7.44516 10.8187C7.51554 10.8986 7.6021 10.9625 7.69908 11.0062C7.79606 11.05 7.90125 11.0727 8.00766 11.0727C8.11406 11.0727 8.21925 11.05 8.31624 11.0062C8.41322 10.9625 8.49978 10.8986 8.57016 10.8187L8.55516 10.8225Z" fill="#F4F4F4" stroke="#8A9FBA" stroke-width="0.6"/>
</svg>
