<svg width="18" height="18" viewBox="0 0 18 18" fill="none" xmlns="http://www.w3.org/2000/svg">
<path d="M17.9986 5.17444C17.9983 5.17067 17.9978 5.1669 17.9974 5.16316C17.9968 5.15569 17.9961 5.14828 17.9951 5.14088C17.9945 5.13639 17.9937 5.13198 17.9929 5.12753C17.9919 5.12094 17.9908 5.11438 17.9895 5.10786C17.9885 5.10314 17.9874 5.09852 17.9863 5.09387C17.9848 5.08768 17.9833 5.08154 17.9817 5.07539C17.9804 5.07067 17.9789 5.06601 17.9775 5.06136C17.9757 5.05541 17.9738 5.04944 17.9717 5.04356C17.9701 5.03894 17.9685 5.03439 17.9667 5.02984C17.9645 5.02403 17.9622 5.01822 17.9597 5.01248C17.9578 5.00806 17.9559 5.00365 17.9539 4.99927C17.9513 4.99353 17.9485 4.98782 17.9456 4.98221C17.9435 4.97804 17.9414 4.97386 17.9392 4.96971C17.9361 4.96401 17.9328 4.9584 17.9295 4.95283C17.9272 4.94896 17.925 4.94505 17.9226 4.94118C17.9189 4.93544 17.9151 4.9298 17.9112 4.92423C17.9089 4.92077 17.9066 4.91723 17.9041 4.91384C17.8997 4.90783 17.8951 4.90198 17.8905 4.89617C17.8882 4.89336 17.8861 4.89047 17.8838 4.88768C17.8778 4.88041 17.8715 4.87338 17.865 4.86645C17.8639 4.8653 17.8629 4.86404 17.8618 4.86289C17.8541 4.85484 17.8462 4.84699 17.838 4.83942C17.8358 4.83744 17.8336 4.83564 17.8314 4.83371C17.8253 4.82827 17.8191 4.82284 17.8127 4.81768C17.8094 4.81506 17.806 4.81261 17.8027 4.81007C17.7971 4.80579 17.7915 4.80154 17.7858 4.7975C17.7821 4.79488 17.7782 4.79244 17.7744 4.78992C17.7702 4.78714 17.7661 4.78425 17.7619 4.7816C17.7604 4.78065 17.7588 4.77987 17.7573 4.77895C17.7533 4.77658 17.7493 4.77433 17.7453 4.77206C17.7394 4.76869 17.7334 4.76537 17.7273 4.76231C17.7257 4.76143 17.7241 4.76047 17.7224 4.75963L9.52775 0.66233C9.52483 0.66087 9.52178 0.659885 9.51882 0.658526C9.50673 0.652751 9.49436 0.647419 9.48173 0.642595C9.47663 0.640659 9.47157 0.638757 9.46644 0.637025C9.45394 0.632711 9.44121 0.629008 9.42826 0.625679C9.42317 0.624389 9.41817 0.622894 9.41305 0.621773C9.3996 0.61875 9.38591 0.616508 9.37208 0.614606C9.36753 0.613961 9.36301 0.613043 9.35846 0.612534C9.34063 0.610598 9.32259 0.609443 9.30425 0.609409C9.30387 0.609409 9.30347 0.609375 9.30309 0.609375C9.28458 0.609375 9.26637 0.61053 9.24837 0.612534C9.24385 0.613043 9.2394 0.613961 9.23489 0.614606C9.22099 0.616508 9.20727 0.61875 9.19379 0.621773C9.18869 0.622894 9.18373 0.624355 9.17867 0.625645C9.16569 0.628974 9.15289 0.632711 9.14035 0.637025C9.13526 0.638757 9.13023 0.640659 9.12517 0.642561C9.11254 0.647385 9.10017 0.652684 9.08805 0.658492C9.08509 0.659885 9.08207 0.66087 9.07915 0.662296L0.885743 4.75752C0.724975 4.83789 0.620321 4.9977 0.609451 5.17559C0.609282 5.17814 0.609316 5.18072 0.60918 5.18327C0.608874 5.19088 0.608398 5.19852 0.608398 5.2062C0.608398 5.20657 0.608432 5.20691 0.608432 5.20725C0.608432 5.20762 0.608398 5.20803 0.608398 5.2084V13.4024C0.608398 13.4094 0.60884 13.4163 0.609146 13.4232C0.60935 13.428 0.609316 13.4327 0.609655 13.4374C0.610606 13.4508 0.612169 13.4641 0.614173 13.4772C0.614988 13.4826 0.616007 13.4879 0.617026 13.4932C0.618826 13.503 0.620898 13.5127 0.623276 13.5223C0.624397 13.527 0.625484 13.5316 0.626741 13.5363C0.630545 13.55 0.634893 13.5636 0.639852 13.5769C0.641007 13.58 0.642332 13.583 0.643521 13.586C0.648174 13.5978 0.653236 13.6094 0.658738 13.6208C0.659723 13.6228 0.660369 13.6248 0.661388 13.6268C0.662169 13.6283 0.663052 13.6298 0.663867 13.6313C0.666823 13.6371 0.669982 13.6427 0.67314 13.6483C0.675892 13.6532 0.678575 13.658 0.681395 13.6628C0.684214 13.6674 0.687203 13.6719 0.690158 13.6764C0.693725 13.6819 0.697325 13.6875 0.701096 13.6928C0.703338 13.696 0.705749 13.699 0.708093 13.7021C0.712882 13.7086 0.717638 13.715 0.722665 13.7211C0.724092 13.7228 0.725654 13.7244 0.727081 13.7262C0.733195 13.7335 0.739377 13.7406 0.745865 13.7474C0.746544 13.7481 0.747224 13.7487 0.747869 13.7494C0.75524 13.7571 0.762781 13.7646 0.770593 13.7718C0.771001 13.7721 0.771408 13.7725 0.771782 13.7728C0.7799 13.7803 0.788188 13.7874 0.796748 13.7942C0.797597 13.7949 0.798447 13.7955 0.799296 13.7961C0.807482 13.8026 0.81577 13.8088 0.82433 13.8147C0.826198 13.816 0.828134 13.8171 0.830002 13.8184C0.837645 13.8235 0.845356 13.8285 0.853236 13.8332C0.856191 13.835 0.859248 13.8366 0.862238 13.8383C0.869235 13.8423 0.876266 13.8462 0.883433 13.8498C0.884248 13.8502 0.884962 13.8507 0.885777 13.8511L9.06284 17.939C9.12018 17.9704 9.18217 17.9898 9.24548 17.9971C9.24705 17.9973 9.24861 17.9974 9.25017 17.9976C9.2679 17.9995 9.2857 18.0007 9.3035 18.0007C9.3037 18.0007 9.30391 18.0007 9.30415 18.0007C9.30438 18.0007 9.30455 18.0007 9.30479 18.0007C9.32262 18.0007 9.34042 17.9995 9.35812 17.9976C9.35968 17.9974 9.36125 17.9973 9.36281 17.9971C9.42619 17.9897 9.48828 17.9703 9.54569 17.9389L17.7225 13.8511C17.7234 13.8507 17.7241 13.8502 17.7249 13.8498C17.7319 13.8463 17.7388 13.8425 17.7455 13.8386C17.7487 13.8368 17.752 13.8351 17.7552 13.8332C17.7628 13.8287 17.7701 13.8238 17.7775 13.8189C17.7797 13.8175 17.782 13.8161 17.7841 13.8146C17.7922 13.809 17.8001 13.803 17.8078 13.7969C17.8091 13.7959 17.8104 13.795 17.8116 13.794C17.8197 13.7875 17.8276 13.7807 17.8353 13.7738C17.8362 13.773 17.837 13.7723 17.8378 13.7716C17.8452 13.7648 17.8523 13.7577 17.8593 13.7505C17.8603 13.7494 17.8615 13.7483 17.8625 13.7472C17.8686 13.7407 17.8745 13.7339 17.8803 13.7271C17.8821 13.725 17.884 13.723 17.8857 13.7208C17.8905 13.7151 17.895 13.709 17.8995 13.703C17.9021 13.6995 17.9048 13.6961 17.9073 13.6925C17.9108 13.6875 17.9142 13.6824 17.9175 13.6772C17.9207 13.6723 17.9239 13.6675 17.927 13.6624C17.9296 13.6581 17.9321 13.6535 17.9346 13.649C17.938 13.643 17.9414 13.6371 17.9445 13.6309C17.9452 13.6295 17.9461 13.6281 17.9468 13.6267C17.9478 13.6249 17.9484 13.623 17.9492 13.6211C17.9549 13.6094 17.9602 13.5976 17.9649 13.5854C17.966 13.5826 17.9672 13.5799 17.9683 13.5771C17.9733 13.5636 17.9777 13.5499 17.9815 13.536C17.9827 13.5316 17.9838 13.5271 17.9848 13.5226C17.9873 13.5128 17.9894 13.5029 17.9912 13.4929C17.9922 13.4877 17.9932 13.4826 17.994 13.4774C17.996 13.4641 17.9976 13.4508 17.9985 13.4373C17.9989 13.4326 17.9988 13.428 17.999 13.4233C17.9993 13.4163 17.9998 13.4093 17.9998 13.4023V5.20837C17.9998 5.19699 17.9993 5.18568 17.9986 5.17444ZM8.80177 16.6868L2.23191 13.4024L4.17726 12.4297C4.42505 12.3058 4.52553 12.0044 4.40162 11.7567C4.2777 11.5088 3.97641 11.4084 3.72855 11.5323L1.61176 12.5907V6.02009L7.13294 8.78022L8.18254 9.30526L7.74259 9.52523C7.49477 9.64914 7.39432 9.95047 7.51824 10.1983C7.60614 10.3741 7.78329 10.4757 7.96732 10.4757C8.0427 10.4757 8.11926 10.4587 8.19127 10.4226L8.80173 10.1174V16.6868H8.80177ZM9.3034 6.79669C9.02633 6.79669 8.80173 7.02132 8.80173 7.29836V8.49275L7.5948 7.88939L2.23177 5.20647L8.80173 1.92269V3.27385C8.80173 3.55093 9.02636 3.77552 9.3034 3.77552C9.58044 3.77552 9.80506 3.55089 9.80506 3.27385V1.92276L16.3762 5.20837L9.8051 8.4934V7.29839C9.8051 7.02132 9.58047 6.79669 9.3034 6.79669ZM16.9964 12.5907L14.8796 11.5323C14.6318 11.4083 14.3305 11.5088 14.2066 11.7566C14.0827 12.0045 14.1831 12.3058 14.431 12.4297L16.3763 13.4024L9.80646 16.6868V10.1175L10.4169 10.4227C10.4889 10.4587 10.5655 10.4758 10.6409 10.4758C10.8249 10.4758 11.0021 10.3741 11.09 10.1984C11.2139 9.95054 11.1134 9.64925 10.8656 9.5253L10.4253 9.30516L16.9964 6.02013V12.5907Z" fill="white"/>
<path d="M7.07779 10.4181C6.95387 10.1702 6.65255 10.0698 6.40472 10.1937L5.03963 10.8762C4.79184 11.0002 4.69136 11.3015 4.81528 11.5493C4.90322 11.7251 5.08033 11.8267 5.26436 11.8267C5.33974 11.8267 5.4163 11.8097 5.48834 11.7736L6.85343 11.0911C7.10126 10.9672 7.2017 10.6659 7.07779 10.4181Z" fill="white"/>
<path d="M13.5687 10.8762L12.2036 10.1937C11.9559 10.0698 11.6545 10.1702 11.5306 10.418C11.4067 10.6658 11.5071 10.9672 11.755 11.0911L13.12 11.7736C13.192 11.8096 13.2686 11.8267 13.344 11.8267C13.528 11.8267 13.7052 11.7251 13.7931 11.5493C13.917 11.3015 13.8165 11.0001 13.5687 10.8762Z" fill="white"/>
<path d="M9.30342 4.12109C9.02635 4.12109 8.80176 4.34572 8.80176 4.62276V5.96057C8.80176 6.23764 9.02638 6.46224 9.30342 6.46224C9.58046 6.46224 9.80509 6.23761 9.80509 5.96057V4.62276C9.80512 4.34572 9.5805 4.12109 9.30342 4.12109Z" fill="white"/>
<path d="M17.9986 5.17444C17.9983 5.17067 17.9978 5.1669 17.9974 5.16316C17.9968 5.15569 17.9961 5.14828 17.9951 5.14088C17.9945 5.13639 17.9937 5.13198 17.9929 5.12753C17.9919 5.12094 17.9908 5.11438 17.9895 5.10786C17.9885 5.10314 17.9874 5.09852 17.9863 5.09387C17.9848 5.08768 17.9833 5.08154 17.9817 5.07539C17.9804 5.07067 17.9789 5.06601 17.9775 5.06136C17.9757 5.05541 17.9738 5.04944 17.9717 5.04356C17.9701 5.03894 17.9685 5.03439 17.9667 5.02984C17.9645 5.02403 17.9622 5.01822 17.9597 5.01248C17.9578 5.00806 17.9559 5.00365 17.9539 4.99927C17.9513 4.99353 17.9485 4.98782 17.9456 4.98221C17.9435 4.97804 17.9414 4.97386 17.9392 4.96971C17.9361 4.96401 17.9328 4.9584 17.9295 4.95283C17.9272 4.94896 17.925 4.94505 17.9225 4.94118C17.9189 4.93544 17.9151 4.9298 17.9112 4.92423C17.9089 4.92077 17.9066 4.91723 17.9041 4.91384C17.8997 4.90783 17.8951 4.90198 17.8905 4.89617C17.8882 4.89336 17.8861 4.89047 17.8838 4.88768C17.8778 4.88041 17.8715 4.87338 17.865 4.86645L17.8618 4.86289C17.8541 4.85484 17.8462 4.84699 17.838 4.83942C17.8358 4.83744 17.8336 4.83564 17.8314 4.83371C17.8253 4.82827 17.8191 4.82284 17.8127 4.81768C17.8094 4.81506 17.806 4.81261 17.8027 4.81007C17.7971 4.80579 17.7915 4.80154 17.7858 4.7975C17.7821 4.79488 17.7782 4.79244 17.7744 4.78992C17.7702 4.78714 17.7661 4.78425 17.7618 4.7816C17.7604 4.78065 17.7588 4.77987 17.7573 4.77895C17.7533 4.77658 17.7493 4.77433 17.7453 4.77206C17.7394 4.76869 17.7334 4.76537 17.7273 4.76231C17.7257 4.76143 17.7241 4.76047 17.7224 4.75963L9.52775 0.66233C9.52483 0.66087 9.52178 0.659885 9.51882 0.658526C9.50673 0.652751 9.49436 0.647419 9.48173 0.642595C9.47663 0.640659 9.47157 0.638757 9.46644 0.637025C9.45394 0.632711 9.44121 0.629008 9.42826 0.625679C9.42317 0.624389 9.41817 0.622894 9.41305 0.621773C9.39959 0.61875 9.38591 0.616508 9.37208 0.614606C9.36753 0.613961 9.36301 0.613043 9.35846 0.612534C9.34063 0.610598 9.32259 0.609443 9.30425 0.609409L9.30309 0.609375C9.28458 0.609375 9.26637 0.61053 9.24837 0.612534C9.24385 0.613043 9.2394 0.613961 9.23489 0.614606C9.22099 0.616508 9.20727 0.61875 9.19379 0.621773C9.18869 0.622894 9.18373 0.624355 9.17867 0.625645C9.16569 0.628974 9.15289 0.632711 9.14035 0.637025C9.13526 0.638757 9.13023 0.640659 9.12517 0.642561C9.11254 0.647385 9.10017 0.652684 9.08804 0.658492C9.08509 0.659885 9.08207 0.66087 9.07915 0.662296L0.885743 4.75752C0.724975 4.83789 0.620321 4.9977 0.609451 5.17559C0.609282 5.17814 0.609316 5.18072 0.60918 5.18327C0.608874 5.19088 0.608398 5.19852 0.608398 5.2062L0.608432 5.20725L0.608398 5.2084V13.4024C0.608398 13.4094 0.60884 13.4163 0.609146 13.4232C0.60935 13.428 0.609316 13.4327 0.609655 13.4374C0.610606 13.4508 0.612169 13.4641 0.614173 13.4772C0.614988 13.4826 0.616007 13.4879 0.617026 13.4932C0.618826 13.503 0.620898 13.5127 0.623276 13.5223C0.624397 13.527 0.625484 13.5316 0.626741 13.5363C0.630545 13.55 0.634893 13.5636 0.639852 13.5769C0.641007 13.58 0.642332 13.583 0.643521 13.586C0.648174 13.5978 0.653236 13.6094 0.658738 13.6208C0.659723 13.6228 0.660369 13.6248 0.661388 13.6268L0.663867 13.6313C0.666823 13.6371 0.669982 13.6427 0.67314 13.6483C0.675892 13.6532 0.678575 13.658 0.681395 13.6628C0.684214 13.6674 0.687203 13.6719 0.690158 13.6764C0.693725 13.6819 0.697325 13.6875 0.701096 13.6928C0.703338 13.696 0.705749 13.699 0.708093 13.7021C0.712882 13.7086 0.717638 13.715 0.722665 13.7211C0.724092 13.7228 0.725654 13.7244 0.727081 13.7262C0.733195 13.7335 0.739377 13.7406 0.745865 13.7474L0.747869 13.7494C0.75524 13.7571 0.762781 13.7646 0.770593 13.7718L0.771782 13.7728C0.7799 13.7803 0.788188 13.7874 0.796748 13.7942L0.799296 13.7961C0.807482 13.8026 0.81577 13.8088 0.82433 13.8147C0.826198 13.816 0.828134 13.8171 0.830002 13.8184C0.837645 13.8235 0.845356 13.8285 0.853236 13.8332C0.856191 13.835 0.859248 13.8366 0.862238 13.8383C0.869235 13.8423 0.876266 13.8462 0.883433 13.8498L0.885777 13.8511L9.06284 17.939C9.12018 17.9704 9.18217 17.9898 9.24548 17.9971L9.25017 17.9976C9.2679 17.9995 9.2857 18.0007 9.3035 18.0007H9.30479C9.32262 18.0007 9.34042 17.9995 9.35812 17.9976L9.36281 17.9971C9.42619 17.9897 9.48828 17.9703 9.54569 17.9389L17.7225 13.8511L17.7249 13.8498C17.7319 13.8463 17.7388 13.8425 17.7455 13.8386C17.7487 13.8368 17.752 13.8351 17.7552 13.8332C17.7628 13.8287 17.7701 13.8238 17.7775 13.8189C17.7797 13.8175 17.782 13.8161 17.7841 13.8146C17.7922 13.809 17.8001 13.803 17.8078 13.7969L17.8116 13.794C17.8197 13.7875 17.8276 13.7807 17.8353 13.7737L17.8378 13.7716C17.8452 13.7648 17.8523 13.7577 17.8593 13.7505L17.8625 13.7472C17.8686 13.7407 17.8745 13.7339 17.8803 13.7271C17.8821 13.725 17.884 13.723 17.8857 13.7208C17.8905 13.7151 17.895 13.709 17.8995 13.703C17.9021 13.6995 17.9048 13.6961 17.9073 13.6925C17.9108 13.6875 17.9142 13.6824 17.9175 13.6772C17.9207 13.6723 17.9239 13.6675 17.927 13.6624C17.9296 13.6581 17.9321 13.6535 17.9346 13.649C17.938 13.643 17.9414 13.6371 17.9445 13.6309L17.9468 13.6267C17.9478 13.6249 17.9484 13.623 17.9492 13.6211C17.9549 13.6094 17.9602 13.5976 17.9649 13.5854C17.966 13.5826 17.9672 13.5799 17.9683 13.5771C17.9733 13.5636 17.9777 13.5499 17.9815 13.536C17.9827 13.5316 17.9838 13.5271 17.9848 13.5226C17.9873 13.5128 17.9894 13.5029 17.9912 13.4929C17.9922 13.4877 17.9932 13.4826 17.994 13.4774C17.996 13.4641 17.9976 13.4508 17.9985 13.4373C17.9989 13.4326 17.9988 13.428 17.999 13.4233C17.9993 13.4163 17.9998 13.4093 17.9998 13.4023V5.20837C17.9998 5.19699 17.9993 5.18568 17.9986 5.17444Z" fill="white" fill-opacity="0.64"/>
<path d="M7.07779 10.4181C6.95387 10.1702 6.65255 10.0698 6.40472 10.1937L5.03963 10.8762C4.79184 11.0002 4.69136 11.3015 4.81528 11.5493C4.90322 11.7251 5.08033 11.8267 5.26436 11.8267C5.33974 11.8267 5.4163 11.8097 5.48834 11.7736L6.85343 11.0911C7.10126 10.9672 7.2017 10.6659 7.07779 10.4181Z" fill="white"/>
<path d="M13.5687 10.8762L12.2036 10.1937C11.9559 10.0698 11.6545 10.1702 11.5306 10.418C11.4067 10.6658 11.5071 10.9672 11.755 11.0911L13.12 11.7736C13.192 11.8096 13.2686 11.8267 13.344 11.8267C13.528 11.8267 13.7052 11.7251 13.7931 11.5493C13.917 11.3015 13.8165 11.0001 13.5687 10.8762Z" fill="white"/>
<path d="M9.30342 4.12109C9.02635 4.12109 8.80176 4.34572 8.80176 4.62276V5.96057C8.80176 6.23764 9.02638 6.46224 9.30342 6.46224C9.58046 6.46224 9.80509 6.23761 9.80509 5.96057V4.62276C9.80512 4.34572 9.5805 4.12109 9.30342 4.12109Z" fill="white"/>
</svg>
