<svg width="20" height="20" viewBox="0 0 20 20" fill="none" xmlns="http://www.w3.org/2000/svg">
<path d="M5.29297 7.12412C5.45477 7.12412 5.58594 6.99295 5.58594 6.83115V5.58594H6.83115C6.99295 5.58594 7.12412 5.45477 7.12412 5.29297C7.12412 5.13117 6.99295 5 6.83115 5H5.58594C5.26285 5 5 5.26285 5 5.58594V6.83115C5 6.99297 5.13117 7.12412 5.29297 7.12412Z" fill="white"/>
<path d="M14.4142 5H13.1689C13.0071 5 12.876 5.13117 12.876 5.29297C12.876 5.45477 13.0071 5.58594 13.1689 5.58594H14.4142V6.83115C14.4142 6.99295 14.5453 7.12412 14.7071 7.12412C14.8689 7.12412 15.0001 6.99295 15.0001 6.83115V5.58594C15.0001 5.26285 14.7372 5 14.4142 5Z" fill="white"/>
<path d="M14.7071 12.875C14.5453 12.875 14.4142 13.0062 14.4142 13.168V14.4132H13.1689C13.0071 14.4132 12.876 14.5444 12.876 14.7062C12.876 14.8679 13.0071 14.9991 13.1689 14.9991H14.4142C14.7372 14.9991 15.0001 14.7363 15.0001 14.4132V13.168C15.0001 13.0062 14.8689 12.875 14.7071 12.875Z" fill="white"/>
<path d="M6.83115 14.4132H5.58594V13.168C5.58594 13.0062 5.45477 12.875 5.29297 12.875C5.13117 12.875 5 13.0062 5 13.168V14.4132C5 14.7363 5.26285 14.9991 5.58594 14.9991H6.83115C6.99295 14.9991 7.12412 14.8679 7.12412 14.7062C7.12412 14.5444 6.99297 14.4132 6.83115 14.4132Z" fill="white"/>
<path d="M6.28662 8.48789V11.5123C6.28662 11.8471 6.47256 12.1482 6.77197 12.2982C9.83783 13.8328 9.63471 13.7345 9.70732 13.7598V9.95078L6.31807 8.25391C6.29736 8.32891 6.28662 8.40742 6.28662 8.48789Z" fill="white"/>
<path d="M13.6822 8.25391L10.293 9.95078V13.7598C10.3651 13.7346 10.1611 13.8335 13.2283 12.2982C13.5277 12.1482 13.7137 11.8471 13.7137 11.5123V8.48789C13.7137 8.40742 13.7029 8.32891 13.6822 8.25391Z" fill="white"/>
<path d="M10.3939 6.28203C10.1475 6.15859 9.85332 6.15859 9.60684 6.28203C6.54229 7.81641 6.73578 7.71488 6.65918 7.76875C6.80516 7.84158 9.82928 9.35574 10.0004 9.44141C10.1711 9.35594 13.1917 7.84367 13.3416 7.76855C13.265 7.71469 13.451 7.81246 10.3939 6.28203Z" fill="white"/>
<path d="M9.9274 18.8228C7.58643 18.8228 5.38561 17.901 3.7303 16.2272C2.07498 14.5534 1.16337 12.328 1.16337 9.96085C1.16337 7.33042 2.30517 4.87319 4.2625 3.19836V4.44295H5.42587V1.42773H2.44392V2.6041H3.17149C1.16205 4.48801 0 7.13624 0 9.96085C0 12.6422 1.03264 15.163 2.90764 17.059C4.78272 18.955 7.2757 19.9992 9.9274 19.9992C10.9258 19.9992 11.9116 19.8496 12.8571 19.5547L12.5143 18.4306C11.6798 18.6908 10.8095 18.8228 9.9274 18.8228Z" fill="white"/>
<path d="M20.0002 10.0383C20.0002 7.35699 18.9676 4.83615 17.0926 2.94013C15.2175 1.04418 12.7245 0 10.0728 0C9.07433 0 8.08865 0.149516 7.14307 0.44447L7.48603 1.56856C8.32039 1.30831 9.19071 1.17636 10.0728 1.17636C12.4138 1.17636 14.6146 2.09816 16.27 3.77197C17.9252 5.44578 18.8368 7.67119 18.8368 10.0383C18.8368 12.6687 17.695 15.1259 15.7378 16.8008V15.5562H14.5744V18.5714H17.5563V17.3951H16.8287C18.8382 15.5112 20.0002 12.8629 20.0002 10.0383Z" fill="white"/>
</svg>
