<svg width="22" height="18" viewBox="0 0 22 18" fill="none" xmlns="http://www.w3.org/2000/svg">
<path d="M20.3775 12.7759L20.9071 12.2083C20.9072 12.2083 20.9072 12.2083 20.9072 12.2083C21.022 12.0856 21.24 12.0624 21.389 12.1643C21.5293 12.2605 21.5459 12.4242 21.4403 12.5373L21.4403 12.5373L20.7883 13.2362L20.7247 13.3044L20.7883 13.3726L21.4403 14.0715L21.4403 14.0715C21.5458 14.1846 21.5293 14.3483 21.3888 14.4447C21.24 14.5466 21.0219 14.5233 20.9073 14.4004L20.9073 14.4004L20.3775 13.8327L20.3044 13.7544L20.2313 13.8327L19.7013 14.4004L19.7012 14.4005C19.5869 14.5232 19.3687 14.5466 19.2197 14.4446C19.0794 14.3483 19.0629 14.1845 19.1683 14.0715C19.1683 14.0715 19.1683 14.0715 19.1683 14.0715L19.8204 13.3726L19.8841 13.3044L19.8204 13.2362L19.1683 12.5373C19.1683 12.5373 19.1683 12.5373 19.1683 12.5373C19.0628 12.424 19.0795 12.2602 19.2197 12.1641L19.2198 12.1641C19.3687 12.062 19.5869 12.0855 19.7013 12.2082L19.7013 12.2082L20.2313 12.7759L20.3044 12.8542L20.3775 12.7759Z" fill="white" stroke="#8A9FBA" stroke-width="0.2"/>
<path d="M19.1079 16.038L18.4902 14.5273C18.4263 14.3709 18.2463 14.2955 18.0882 14.3586C17.93 14.4218 17.8537 14.5998 17.9176 14.7561L18.1991 15.4446L15.3194 13.8019V7.76254C15.3194 7.65347 15.2605 7.55272 15.165 7.49816L9.87405 4.47846V1.19255L10.3363 1.77794C10.3972 1.85506 10.4881 1.89543 10.5799 1.89543C10.6464 1.89543 10.7133 1.87431 10.7698 1.83078C10.9042 1.72705 10.9281 1.53522 10.8232 1.40229L9.80864 0.117452C9.75014 0.0433439 9.66032 0 9.56521 0C9.47011 0 9.38028 0.0433439 9.32178 0.117452L8.30724 1.40229C8.2023 1.53522 8.22621 1.72705 8.36066 1.83078C8.49506 1.93451 8.68921 1.91091 8.79415 1.77794L9.25637 1.19255V4.47846L3.9654 7.49816C3.86987 7.55272 3.81102 7.65347 3.81102 7.76254V13.8019L0.932135 15.4442L1.21394 14.7562C1.27796 14.5999 1.20168 14.422 1.04359 14.3587C0.885392 14.2955 0.705401 14.3709 0.641419 14.5271L0.0225777 16.0378C-0.0131351 16.125 -0.00619307 16.2235 0.0413597 16.305C0.0889124 16.3864 0.171792 16.4416 0.266049 16.4547L1.89935 16.6805C1.91385 16.6826 1.92827 16.6835 1.94254 16.6835C2.09411 16.6835 2.22639 16.5731 2.24799 16.4205C2.27163 16.2535 2.15385 16.0993 1.98493 16.0759L1.24086 15.973L4.11979 14.3307L9.41079 17.3504C9.45857 17.3777 9.51191 17.3913 9.56521 17.3913C9.61851 17.3913 9.67185 17.3777 9.71963 17.3504L15.0106 14.3307L17.8897 15.9731L17.1466 16.0759C16.9777 16.0993 16.8599 16.2536 16.8835 16.4206C16.9052 16.5732 17.0374 16.6836 17.189 16.6835C17.2033 16.6835 17.2177 16.6826 17.2322 16.6806L18.8644 16.4547C18.9586 16.4417 19.0414 16.3865 19.089 16.3051C19.1366 16.2237 19.1436 16.1251 19.1079 16.038ZM5.46731 13.2094C5.3818 13.0635 5.43213 12.8767 5.57977 12.7923C5.98032 12.5629 6.18168 12.4483 6.18168 12.4483C6.32943 12.3641 6.51829 12.4143 6.60348 12.5604C6.68864 12.7065 6.63785 12.8931 6.49006 12.9773C6.49006 12.9773 6.28889 13.0919 5.88938 13.3206C5.84063 13.3485 5.78741 13.3617 5.73488 13.3617C5.62821 13.3617 5.52454 13.3071 5.46731 13.2094ZM7.08179 12.2873C6.99648 12.1413 7.04704 11.9546 7.19475 11.8703C7.5965 11.641 7.79681 11.5273 7.79681 11.5273C7.94472 11.4434 8.13346 11.494 8.21839 11.6402C8.30327 11.7864 8.25213 11.973 8.10423 12.0569C8.10423 12.0569 7.90414 12.1704 7.50371 12.399C7.45507 12.4268 7.40193 12.4399 7.34952 12.4399C7.2428 12.44 7.13902 12.3852 7.08179 12.2873ZM13.6631 13.2094C13.6059 13.3071 13.5022 13.3618 13.3956 13.3618C13.3431 13.3618 13.2898 13.3485 13.2411 13.3206C12.8416 13.0919 12.6404 12.9773 12.6404 12.9773C12.4926 12.8932 12.4418 12.7065 12.527 12.5604C12.6122 12.4143 12.801 12.3641 12.9488 12.4483C12.9488 12.4483 13.1501 12.563 13.5507 12.7923C13.6983 12.8767 13.7486 13.0635 13.6631 13.2094ZM12.0486 12.2873C11.9914 12.3852 11.8876 12.44 11.7809 12.44C11.7285 12.44 11.6754 12.4268 11.6268 12.399C11.2263 12.1704 11.0262 12.0569 11.0262 12.0569C10.8783 11.973 10.8272 11.7864 10.9121 11.6402C10.997 11.4939 11.1857 11.4435 11.3336 11.5274C11.3336 11.5274 11.534 11.641 11.9357 11.8704C12.0833 11.9546 12.1339 12.1413 12.0486 12.2873ZM9.25637 6.49714C9.25637 6.32853 9.39463 6.19186 9.56521 6.19186C9.73579 6.19186 9.87405 6.32853 9.87405 6.49714V7.18332C9.87405 7.35193 9.73579 7.4886 9.56521 7.4886C9.39463 7.4886 9.25637 7.35193 9.25637 7.18332V6.49714Z" fill="#FAFAFA" fill-opacity="0.56"/>
<path d="M19.1079 16.038L18.4902 14.5273C18.4263 14.3709 18.2463 14.2955 18.0882 14.3586C17.93 14.4218 17.8537 14.5998 17.9176 14.7561L18.1991 15.4446L15.3194 13.8019V7.76254C15.3194 7.65347 15.2605 7.55272 15.165 7.49816L9.87405 4.47846V1.19255L10.3363 1.77794C10.3972 1.85506 10.4881 1.89543 10.5799 1.89543C10.6464 1.89543 10.7133 1.87431 10.7698 1.83078C10.9042 1.72705 10.9281 1.53522 10.8232 1.40229L9.80864 0.117452C9.75014 0.043344 9.66032 0 9.56521 0C9.47011 0 9.38028 0.043344 9.32178 0.117452L8.30724 1.40229C8.2023 1.53522 8.22621 1.72705 8.36066 1.83078C8.49506 1.93451 8.68921 1.91091 8.79415 1.77794L9.25637 1.19255V4.47846L3.9654 7.49816C3.86987 7.55272 3.81102 7.65347 3.81102 7.76254V13.8019L0.932135 15.4442L1.21394 14.7562C1.27796 14.5999 1.20168 14.422 1.04359 14.3587C0.885392 14.2955 0.705401 14.3709 0.641419 14.5271L0.0225777 16.0378C-0.0131351 16.125 -0.00619307 16.2235 0.0413597 16.305C0.0889124 16.3864 0.171792 16.4416 0.266049 16.4547L1.89935 16.6805C1.91385 16.6826 1.92827 16.6835 1.94254 16.6835C2.09411 16.6835 2.22639 16.5731 2.24799 16.4205C2.27163 16.2535 2.15385 16.0993 1.98493 16.0759L1.24086 15.973L4.11979 14.3307L9.41079 17.3504C9.45857 17.3777 9.51191 17.3913 9.56521 17.3913C9.61851 17.3913 9.67185 17.3777 9.71963 17.3504L15.0106 14.3307L17.8897 15.9731L17.1466 16.0759C16.9777 16.0993 16.8599 16.2536 16.8835 16.4206C16.9052 16.5732 17.0374 16.6836 17.189 16.6835C17.2033 16.6835 17.2177 16.6826 17.2322 16.6806L18.8644 16.4547C18.9586 16.4417 19.0414 16.3865 19.089 16.3051C19.1366 16.2237 19.1436 16.1251 19.1079 16.038ZM4.98873 13.4822C4.90358 13.3361 4.71476 13.2859 4.56697 13.37C4.56697 13.37 4.52042 13.3965 4.42867 13.4489V8.29132L8.9473 10.8702C8.90445 10.8946 8.85878 10.9206 8.81 10.9483C8.66213 11.0323 8.61119 11.219 8.69623 11.3651C8.75334 11.4633 8.85732 11.5183 8.96423 11.5183C9.01645 11.5183 9.0694 11.5052 9.11788 11.4776C9.16709 11.4496 9.21317 11.4234 9.25637 11.3989V16.5573L4.73701 13.978C4.82864 13.9257 4.87515 13.8992 4.87527 13.8992C5.02306 13.8149 5.07385 13.6283 4.98873 13.4822ZM9.56521 5.64615C9.73579 5.64615 9.87405 5.50949 9.87405 5.34088V5.18347L14.393 7.7625L9.87405 10.3416V10.1842C9.87405 10.0155 9.73579 9.87888 9.56521 9.87888C9.39463 9.87888 9.25637 10.0155 9.25637 10.1842V10.3416L4.73747 7.7625L9.25637 5.18347V5.34088C9.25637 5.50949 9.39463 5.64615 9.56521 5.64615ZM9.87405 11.3988C9.91721 11.4234 9.96334 11.4496 10.0125 11.4775C10.0611 11.5051 10.114 11.5182 10.1662 11.5182C10.2731 11.5182 10.3771 11.4632 10.4342 11.365C10.5192 11.2189 10.4683 11.0323 10.3204 10.9482C10.2716 10.9205 10.226 10.8945 10.1831 10.8702L14.7018 8.29124V13.4488C14.61 13.3965 14.5635 13.37 14.5635 13.37C14.4156 13.2857 14.2268 13.336 14.1417 13.4821C14.0565 13.6282 14.1074 13.8149 14.2552 13.899C14.2553 13.8991 14.3018 13.9256 14.3934 13.9779L9.87405 16.5572V11.3988ZM5.46731 13.2094C5.3818 13.0635 5.43213 12.8767 5.57977 12.7923C5.98032 12.5629 6.18168 12.4483 6.18168 12.4483C6.32943 12.3641 6.51829 12.4143 6.60348 12.5604C6.68864 12.7065 6.63785 12.8931 6.49006 12.9773C6.48986 12.9774 6.28889 13.0919 5.88938 13.3206C5.84063 13.3485 5.78741 13.3617 5.73488 13.3617C5.62821 13.3617 5.52454 13.3071 5.46731 13.2094ZM7.08179 12.2873C6.99648 12.1413 7.04704 11.9546 7.19475 11.8703C7.5965 11.641 7.79681 11.5273 7.79681 11.5273C7.94472 11.4434 8.13346 11.494 8.21839 11.6402C8.30327 11.7864 8.25213 11.973 8.10423 12.0569C8.10396 12.057 7.90414 12.1704 7.50371 12.399C7.45507 12.4268 7.40193 12.4399 7.34952 12.4399C7.2428 12.44 7.13902 12.3852 7.08179 12.2873ZM13.6631 13.2094C13.6059 13.3071 13.5022 13.3618 13.3956 13.3618C13.3431 13.3618 13.2898 13.3485 13.2411 13.3206C12.8416 13.0919 12.6406 12.9775 12.6404 12.9773C12.4926 12.8932 12.4418 12.7065 12.527 12.5604C12.6122 12.4143 12.801 12.3641 12.9488 12.4483C12.9488 12.4483 13.1501 12.563 13.5507 12.7923C13.6983 12.8767 13.7486 13.0635 13.6631 13.2094ZM12.0486 12.2873C11.9914 12.3852 11.8876 12.44 11.7809 12.44C11.7285 12.44 11.6754 12.4268 11.6268 12.399C11.2263 12.1704 11.0265 12.0571 11.0262 12.0569C10.8783 11.973 10.8272 11.7864 10.9121 11.6402C10.997 11.4939 11.1857 11.4435 11.3336 11.5274C11.3336 11.5274 11.534 11.641 11.9357 11.8704C12.0833 11.9546 12.1339 12.1413 12.0486 12.2873ZM9.25637 6.49714C9.25637 6.32853 9.39463 6.19186 9.56521 6.19186C9.73579 6.19186 9.87405 6.32853 9.87405 6.49714V7.18332C9.87405 7.35193 9.73579 7.4886 9.56521 7.4886C9.39463 7.4886 9.25637 7.35193 9.25637 7.18332V6.49714ZM9.87405 8.34065V9.02683C9.87405 9.19544 9.73579 9.33211 9.56521 9.33211C9.39463 9.33211 9.25637 9.19544 9.25637 9.02683V8.34065C9.25637 8.17204 9.39463 8.03537 9.56521 8.03537C9.73579 8.03537 9.87405 8.17204 9.87405 8.34065Z" fill="white"/>
</svg>
