<svg width="18" height="20" viewBox="0 0 18 20" fill="none" xmlns="http://www.w3.org/2000/svg">
<path d="M9.27288 1.66386L9.25178 1.69096V1.7253V2.40471C9.25178 2.55643 9.10243 2.70488 8.88422 2.70488C8.66625 2.70488 8.51686 2.55646 8.51686 2.40471V1.7253V1.69096L8.49577 1.66386L7.63938 0.563943L7.63938 0.56394L7.63874 0.563128C7.56899 0.475435 7.56092 0.366364 7.61407 0.273652C7.66883 0.178113 7.78457 0.107897 7.9235 0.100614C8.06249 0.0933283 8.18932 0.150953 8.25888 0.24196L8.25888 0.241962L8.25941 0.24265L8.8053 0.944048L8.8842 1.04543L8.96312 0.944063L9.5089 0.243078C9.61987 0.103785 9.85239 0.0606818 10.0265 0.160146C10.1934 0.255463 10.2281 0.434047 10.1289 0.564354L9.27288 1.66386Z" fill="white" stroke="#8A9FBA" stroke-width="0.2"/>
<path d="M17.8651 18.7351L17.2876 17.3227C17.2279 17.1765 17.0596 17.1059 16.9117 17.165C16.7638 17.224 16.6924 17.3904 16.7522 17.5365L17.0154 18.1803L14.323 16.6444V10.9979C14.323 10.8959 14.268 10.8017 14.1787 10.7507L9.23184 7.92741V4.85522L9.664 5.40254C9.72093 5.47464 9.80592 5.51239 9.89181 5.51239C9.95394 5.51239 10.0165 5.49264 10.0693 5.45194C10.195 5.35496 10.2173 5.17561 10.1192 5.05132L9.17068 3.85005C9.11598 3.78076 9.032 3.74023 8.94308 3.74023C8.85416 3.74023 8.77018 3.78076 8.71548 3.85005L7.76693 5.05132C7.66882 5.17561 7.69118 5.35496 7.81687 5.45194C7.94254 5.54892 8.12406 5.52686 8.22217 5.40254L8.65433 4.85522V7.92741L3.70749 10.7507C3.61818 10.8017 3.56315 10.8959 3.56315 10.9979V16.6445L0.871508 18.1799L1.13499 17.5367C1.19484 17.3906 1.12352 17.2242 0.975716 17.165C0.827805 17.1059 0.659521 17.1764 0.599701 17.3225L0.0211092 18.7349C-0.0122808 18.8164 -0.00579027 18.9086 0.0386696 18.9847C0.0831295 19.0609 0.160619 19.1125 0.248745 19.1247L1.77581 19.3359C1.78937 19.3377 1.80286 19.3386 1.8162 19.3386C1.95791 19.3386 2.08159 19.2354 2.10178 19.0927C2.12388 18.9366 2.01376 18.7924 1.85583 18.7705L1.16015 18.6743L3.85183 17.1388L8.79871 19.9622C8.84338 19.9876 8.89325 20.0004 8.94308 20.0004C8.99292 20.0004 9.04279 19.9877 9.08746 19.9622L14.0343 17.1388L16.7261 18.6744L16.0313 18.7706C15.8734 18.7924 15.7633 18.9367 15.7854 19.0928C15.8057 19.2355 15.9293 19.3387 16.071 19.3387C16.0844 19.3387 16.0978 19.3378 16.1114 19.3359L17.6375 19.1247C17.7255 19.1125 17.803 19.0609 17.8475 18.9848C17.892 18.9087 17.8984 18.8165 17.8651 18.7351ZM5.11171 16.0905C5.03177 15.9541 5.07882 15.7795 5.21686 15.7005C5.59136 15.4861 5.77962 15.3789 5.77962 15.3789C5.91776 15.3002 6.09433 15.3471 6.17399 15.4837C6.2536 15.6203 6.20612 15.7948 6.06794 15.8735C6.06794 15.8735 5.87986 15.9806 5.50633 16.1944C5.46075 16.2205 5.41099 16.2329 5.36188 16.2329C5.26215 16.2329 5.16522 16.1819 5.11171 16.0905ZM6.62118 15.2284C6.54142 15.0919 6.58869 14.9173 6.7268 14.8385C7.10242 14.6241 7.2897 14.5178 7.2897 14.5178C7.42799 14.4394 7.60446 14.4866 7.68386 14.6233C7.76322 14.76 7.71541 14.9345 7.57712 15.0129C7.57712 15.0129 7.39005 15.119 7.01566 15.3328C6.97019 15.3587 6.9205 15.3711 6.8715 15.3711C6.77173 15.3711 6.67469 15.3199 6.62118 15.2284ZM12.7745 16.0905C12.7209 16.1819 12.624 16.2329 12.5243 16.2329C12.4752 16.2329 12.4254 16.2205 12.3799 16.1944C12.0063 15.9806 11.8183 15.8735 11.8183 15.8735C11.6801 15.7948 11.6326 15.6203 11.7122 15.4837C11.7919 15.3471 11.9684 15.3002 12.1066 15.3789C12.1066 15.3789 12.2948 15.4861 12.6693 15.7005C12.8073 15.7795 12.8544 15.9541 12.7745 16.0905ZM11.265 15.2284C11.2115 15.3199 11.1144 15.3711 11.0147 15.3711C10.9657 15.3711 10.916 15.3588 10.8705 15.3328C10.4962 15.119 10.3091 15.013 10.3091 15.013C10.1708 14.9345 10.1229 14.7601 10.2023 14.6234C10.2817 14.4866 10.4582 14.4394 10.5965 14.5178C10.5965 14.5178 10.7838 14.6241 11.1594 14.8386C11.2974 14.9173 11.3447 15.0919 11.265 15.2284ZM8.65433 9.81479C8.65433 9.65715 8.7836 9.52937 8.94308 9.52937C9.10257 9.52937 9.23184 9.65715 9.23184 9.81479V10.4563C9.23184 10.614 9.10257 10.7418 8.94308 10.7418C8.7836 10.7418 8.65433 10.614 8.65433 10.4563V9.81479ZM9.23184 11.5384V12.18C9.23184 12.3376 9.10257 12.4654 8.94308 12.4654C8.7836 12.4654 8.65433 12.3376 8.65433 12.18V11.5384C8.65433 11.3808 8.7836 11.253 8.94308 11.253C9.10257 11.253 9.23184 11.3808 9.23184 11.5384Z" fill="#FAFAFA" fill-opacity="0.56"/>
<path d="M17.8651 18.7351L17.2876 17.3227C17.2279 17.1765 17.0596 17.1059 16.9117 17.165C16.7638 17.224 16.6924 17.3904 16.7522 17.5365L17.0154 18.1803L14.323 16.6444V10.9979C14.323 10.8959 14.268 10.8017 14.1787 10.7507L9.23184 7.92741V4.85522L9.664 5.40254C9.72093 5.47464 9.80592 5.51239 9.89181 5.51239C9.95394 5.51239 10.0165 5.49264 10.0693 5.45194C10.195 5.35496 10.2173 5.17561 10.1192 5.05132L9.17068 3.85005C9.11598 3.78076 9.032 3.74023 8.94308 3.74023C8.85416 3.74023 8.77018 3.78076 8.71548 3.85005L7.76693 5.05132C7.66882 5.17561 7.69118 5.35496 7.81687 5.45194C7.94254 5.54892 8.12406 5.52686 8.22217 5.40254L8.65433 4.85522V7.92741L3.70749 10.7507C3.61818 10.8017 3.56315 10.8959 3.56315 10.9979V16.6445L0.871508 18.1799L1.13499 17.5367C1.19484 17.3906 1.12352 17.2242 0.975716 17.165C0.827805 17.1059 0.659521 17.1764 0.599701 17.3225L0.0211092 18.7349C-0.0122808 18.8164 -0.00579027 18.9086 0.0386696 18.9847C0.0831295 19.0609 0.160619 19.1125 0.248745 19.1247L1.77581 19.3359C1.78937 19.3377 1.80286 19.3386 1.8162 19.3386C1.95791 19.3386 2.08159 19.2354 2.10178 19.0927C2.12388 18.9366 2.01376 18.7924 1.85583 18.7705L1.16015 18.6743L3.85183 17.1388L8.79871 19.9622C8.84338 19.9876 8.89325 20.0004 8.94308 20.0004C8.99292 20.0004 9.04279 19.9877 9.08746 19.9622L14.0343 17.1388L16.7261 18.6744L16.0313 18.7706C15.8734 18.7924 15.7633 18.9367 15.7854 19.0928C15.8057 19.2355 15.9293 19.3387 16.071 19.3387C16.0844 19.3387 16.0978 19.3378 16.1114 19.3359L17.6375 19.1247C17.7255 19.1125 17.803 19.0609 17.8475 18.9848C17.892 18.9087 17.8984 18.8165 17.8651 18.7351ZM4.66426 16.3455C4.58465 16.2089 4.4081 16.162 4.26993 16.2407C4.26993 16.2407 4.22641 16.2654 4.14062 16.3144V11.4923L8.36536 13.9035C8.3253 13.9262 8.2826 13.9505 8.23699 13.9764C8.09874 14.055 8.05111 14.2295 8.13062 14.3662C8.18402 14.458 8.28123 14.5094 8.38119 14.5094C8.43001 14.5094 8.47952 14.4971 8.52484 14.4713C8.57085 14.4452 8.61394 14.4207 8.65433 14.3977V19.2207L4.42891 16.8091C4.51459 16.7602 4.55818 16.7354 4.55818 16.7354C4.69635 16.6566 4.74384 16.4821 4.66426 16.3455ZM8.94308 9.01916C9.10257 9.01916 9.23184 8.89138 9.23184 8.73374V8.58657L13.4568 10.9979L9.23184 13.4092V13.262C9.23184 13.1044 9.10257 12.9766 8.94308 12.9766C8.7836 12.9766 8.65433 13.1044 8.65433 13.262V13.4092L4.42934 10.9979L8.65433 8.58657V8.73374C8.65433 8.89138 8.7836 9.01916 8.94308 9.01916ZM9.23184 14.3977C9.27219 14.4206 9.31531 14.4451 9.36132 14.4713C9.40668 14.4971 9.45616 14.5093 9.50498 14.5093C9.60493 14.5093 9.70215 14.4579 9.75555 14.3661C9.83506 14.2294 9.78743 14.055 9.64918 13.9764C9.60356 13.9505 9.56087 13.9262 9.52081 13.9034L13.7455 11.4922V16.3143C13.6598 16.2654 13.6162 16.2406 13.6162 16.2406C13.478 16.1619 13.3015 16.2088 13.2219 16.3455C13.1423 16.4821 13.1898 16.6566 13.328 16.7352C13.328 16.7352 13.3716 16.7601 13.4573 16.809L9.23184 19.2205V14.3977ZM5.11171 16.0905C5.03177 15.9541 5.07882 15.7795 5.21686 15.7005C5.59136 15.4861 5.77962 15.3789 5.77962 15.3789C5.91776 15.3002 6.09433 15.3471 6.17399 15.4837C6.2536 15.6203 6.20612 15.7948 6.06794 15.8735C6.06794 15.8735 5.87986 15.9806 5.50633 16.1944C5.46075 16.2205 5.41099 16.2329 5.36188 16.2329C5.26215 16.2329 5.16522 16.1819 5.11171 16.0905ZM6.62118 15.2284C6.54142 15.0919 6.58869 14.9173 6.7268 14.8385C7.10242 14.6241 7.2897 14.5178 7.2897 14.5178C7.42799 14.4394 7.60446 14.4866 7.68386 14.6233C7.76322 14.76 7.71541 14.9345 7.57712 15.0129C7.57712 15.0129 7.39005 15.119 7.01566 15.3328C6.97019 15.3587 6.9205 15.3711 6.8715 15.3711C6.77173 15.3711 6.67469 15.3199 6.62118 15.2284ZM12.7745 16.0905C12.7209 16.1819 12.624 16.2329 12.5243 16.2329C12.4752 16.2329 12.4254 16.2205 12.3799 16.1944C12.0063 15.9806 11.8183 15.8735 11.8183 15.8735C11.6801 15.7948 11.6326 15.6203 11.7122 15.4837C11.7919 15.3471 11.9684 15.3002 12.1066 15.3789C12.1066 15.3789 12.2948 15.4861 12.6693 15.7005C12.8073 15.7795 12.8544 15.9541 12.7745 16.0905ZM11.265 15.2284C11.2115 15.3199 11.1144 15.3711 11.0147 15.3711C10.9657 15.3711 10.916 15.3588 10.8705 15.3328C10.4962 15.119 10.3091 15.013 10.3091 15.013C10.1708 14.9345 10.1229 14.7601 10.2023 14.6234C10.2817 14.4866 10.4582 14.4394 10.5965 14.5178C10.5965 14.5178 10.7838 14.6241 11.1594 14.8386C11.2974 14.9173 11.3447 15.0919 11.265 15.2284ZM8.65433 9.81479C8.65433 9.65715 8.7836 9.52937 8.94308 9.52937C9.10257 9.52937 9.23184 9.65715 9.23184 9.81479V10.4563C9.23184 10.614 9.10257 10.7418 8.94308 10.7418C8.7836 10.7418 8.65433 10.614 8.65433 10.4563V9.81479ZM9.23184 11.5384V12.18C9.23184 12.3376 9.10257 12.4654 8.94308 12.4654C8.7836 12.4654 8.65433 12.3376 8.65433 12.18V11.5384C8.65433 11.3808 8.7836 11.253 8.94308 11.253C9.10257 11.253 9.23184 11.3808 9.23184 11.5384Z" fill="white"/>
</svg>
