<svg width="25" height="22" viewBox="0 0 25 22" fill="none" xmlns="http://www.w3.org/2000/svg">
<path d="M2.48011 21.9995C2.75394 21.9995 2.97599 21.7774 2.97599 21.5033C2.97599 21.2295 2.75394 21.0075 2.48011 21.0075H1.5283L2.86746 19.3332C2.98667 19.1842 3.00983 18.9803 2.92718 18.8084C2.84453 18.6366 2.67083 18.5273 2.48011 18.5273H0.496113C0.222059 18.5273 0 18.7494 0 19.0235C0 19.2973 0.222059 19.5193 0.496113 19.5193H1.44792L0.108532 21.1936C-0.0104445 21.3426 -0.033604 21.5465 0.0490436 21.7184C0.131691 21.8902 0.305387 21.9995 0.496113 21.9995H2.48011Z" fill="white"/>
<path d="M24.9761 17.0801L24.3182 15.4713C24.2502 15.3048 24.0585 15.2244 23.8901 15.2917C23.7216 15.359 23.6403 15.5485 23.7084 15.7149L24.0082 16.4483L20.9414 14.6988V8.26696C20.9414 8.15081 20.8787 8.04351 20.7769 7.98541L15.1422 4.76948V1.27005L15.6344 1.89348C15.6993 1.97561 15.7961 2.0186 15.8939 2.0186C15.9647 2.0186 16.0359 1.99611 16.0961 1.94975C16.2393 1.83928 16.2647 1.63499 16.153 1.49342L15.0725 0.125084C15.0102 0.0461605 14.9145 0 14.8132 0C14.712 0 14.6163 0.0461605 14.554 0.125084L13.4735 1.49342C13.3618 1.63499 13.3872 1.83928 13.5304 1.94975C13.6736 2.06021 13.8803 2.03508 13.9921 1.89348L14.4843 1.27005V4.76948L8.84955 7.98541C8.74781 8.04351 8.68514 8.15081 8.68514 8.26696V14.6988L5.61917 16.4478L5.91929 15.7151C5.98747 15.5487 5.90623 15.3592 5.73787 15.2918C5.56939 15.2244 5.3777 15.3047 5.30956 15.4711L4.65051 17.0799C4.61248 17.1728 4.61987 17.2778 4.67051 17.3645C4.72115 17.4513 4.80942 17.51 4.9098 17.5239L6.64924 17.7645C6.66468 17.7666 6.68004 17.7676 6.69524 17.7676C6.85666 17.7676 6.99754 17.6501 7.02054 17.4875C7.04571 17.3097 6.92028 17.1454 6.74038 17.1205L5.94796 17.011L9.01397 15.2619L14.6488 18.4779C14.6997 18.5069 14.7565 18.5214 14.8132 18.5214C14.87 18.5214 14.9268 18.5069 14.9777 18.4779L20.6125 15.2619L23.6787 17.011L22.8873 17.1206C22.7074 17.1455 22.5819 17.3098 22.6071 17.4876C22.6302 17.6501 22.771 17.7677 22.9324 17.7677C22.9476 17.7677 22.963 17.7667 22.9785 17.7645L24.7167 17.524C24.817 17.5101 24.9053 17.4513 24.9559 17.3646C25.0066 17.2779 25.014 17.1729 24.9761 17.0801ZM9.93938 14.3583C9.84869 14.2027 9.6476 14.1493 9.49021 14.2389C9.49021 14.2389 9.44063 14.2671 9.34292 14.3228V8.83011L14.1552 11.5766C14.1095 11.6025 14.0609 11.6302 14.009 11.6597C13.8515 11.7492 13.7972 11.948 13.8878 12.1037C13.9486 12.2082 14.0594 12.2668 14.1732 12.2668C14.2288 12.2668 14.2852 12.2528 14.3368 12.2235C14.3893 12.1937 14.4383 12.1658 14.4843 12.1396V17.6333L9.6713 14.8864C9.76889 14.8307 9.81854 14.8024 9.81854 14.8024C9.97593 14.7126 10.03 14.5139 9.93938 14.3583ZM14.8132 6.01305C14.9949 6.01305 15.1422 5.86751 15.1422 5.68794V5.52031L19.9547 8.26692L15.1422 11.0136V10.8459C15.1422 10.6664 14.9949 10.5208 14.8132 10.5208C14.6316 10.5208 14.4843 10.6664 14.4843 10.8459V11.0136L9.67179 8.26692L14.4843 5.52031V5.68794C14.4843 5.86751 14.6316 6.01305 14.8132 6.01305ZM15.1422 12.1395C15.1881 12.1657 15.2372 12.1936 15.2897 12.2234C15.3413 12.2528 15.3977 12.2667 15.4533 12.2667C15.5671 12.2667 15.6779 12.2082 15.7387 12.1036C15.8293 11.9479 15.775 11.7492 15.6175 11.6597C15.5656 11.6301 15.5169 11.6025 15.4713 11.5765L20.2836 8.83003V14.3228C20.1859 14.267 20.1363 14.2388 20.1363 14.2388C19.9789 14.1491 19.7778 14.2026 19.6871 14.3582C19.5964 14.5138 19.6506 14.7126 19.808 14.8022C19.808 14.8022 19.8576 14.8305 19.9552 14.8862L15.1422 17.6331V12.1395ZM10.4491 14.0678C10.358 13.9124 10.4116 13.7135 10.5688 13.6235C10.9954 13.3793 11.2098 13.2572 11.2098 13.2572C11.3672 13.1676 11.5683 13.221 11.6591 13.3766C11.7497 13.5322 11.6957 13.731 11.5383 13.8206C11.5383 13.8206 11.324 13.9426 10.8986 14.1862C10.8466 14.2159 10.79 14.23 10.734 14.23C10.6204 14.23 10.51 14.1719 10.4491 14.0678ZM12.1684 13.0858C12.0776 12.9303 12.1314 12.7315 12.2887 12.6417C12.7166 12.3974 12.9299 12.2764 12.9299 12.2764C13.0874 12.187 13.2885 12.2409 13.3789 12.3966C13.4693 12.5523 13.4148 12.751 13.2573 12.8404C13.2573 12.8404 13.0442 12.9612 12.6178 13.2047C12.566 13.2343 12.5094 13.2483 12.4536 13.2483C12.3399 13.2484 12.2294 13.1901 12.1684 13.0858ZM19.1774 14.0678C19.1165 14.1719 19.006 14.23 18.8925 14.23C18.8366 14.23 18.7799 14.2159 18.728 14.1862C18.3025 13.9426 18.0883 13.8206 18.0883 13.8206C17.9309 13.731 17.8768 13.5322 17.9675 13.3766C18.0582 13.221 18.2593 13.1676 18.4167 13.2572C18.4167 13.2572 18.6311 13.3793 19.0577 13.6236C19.2149 13.7135 19.2685 13.9124 19.1774 14.0678ZM17.4581 13.0858C17.3971 13.1901 17.2866 13.2484 17.173 13.2484C17.1171 13.2484 17.0606 13.2343 17.0088 13.2047C16.5823 12.9612 16.3692 12.8404 16.3692 12.8404C16.2117 12.751 16.1572 12.5523 16.2476 12.3966C16.338 12.2408 16.5391 12.1871 16.6966 12.2764C16.6966 12.2764 16.9099 12.3974 17.3378 12.6417C17.495 12.7315 17.5489 12.9303 17.4581 13.0858ZM14.4843 6.91934C14.4843 6.73977 14.6316 6.59422 14.8132 6.59422C14.9949 6.59422 15.1422 6.73977 15.1422 6.91934V7.65011C15.1422 7.82968 14.9949 7.97522 14.8132 7.97522C14.6316 7.97522 14.4843 7.82968 14.4843 7.65011V6.91934ZM15.1422 8.88264V9.61342C15.1422 9.79298 14.9949 9.93853 14.8132 9.93853C14.6316 9.93853 14.4843 9.79298 14.4843 9.61342V8.88264C14.4843 8.70307 14.6316 8.55753 14.8132 8.55753C14.9949 8.55753 15.1422 8.70307 15.1422 8.88264Z" fill="white"/>
</svg>
